<svg width="100" height="100" viewBox="0 0 100 100" fill="none" xmlns="http://www.w3.org/2000/svg">
<path d="M41.6668 91.6666H58.3335H41.6668ZM20.8335 37.5C20.8335 29.7645 23.9064 22.3458 29.3762 16.876C34.846 11.4062 42.2647 8.33331 50.0002 8.33331C57.7356 8.33331 65.1543 11.4062 70.6241 16.876C76.0939 22.3458 79.1668 29.7645 79.1668 37.5C79.1696 42.1961 78.0338 46.8229 75.8567 50.984C73.6797 55.145 70.5263 58.7162 66.6668 61.3916L64.4085 72.0833C64.1095 74.054 63.1141 75.8523 61.6027 77.1519C60.0914 78.4515 58.1643 79.1663 56.171 79.1666H43.8293C41.8361 79.1663 39.909 78.4515 38.3976 77.1519C36.8863 75.8523 35.8908 74.054 35.5918 72.0833L33.3335 61.4375C29.4727 58.7526 26.3192 55.173 24.1425 51.0045C21.9657 46.836 20.8304 42.2026 20.8335 37.5V37.5Z" stroke="black" stroke-width="8.33333" stroke-linecap="round" stroke-linejoin="round"/>
<path d="M33.3335 62.5H66.6668" stroke="black" stroke-width="8.33333" stroke-linecap="round" stroke-linejoin="round"/>
</svg>
