<svg width="47" height="63" viewBox="0 0 47 63" fill="none" xmlns="http://www.w3.org/2000/svg">
<path d="M10.2933 37.5L4.77139 59.5875C4.18702 61.9188 7.07139 63.5125 8.73702 61.7781L46.2183 22.7188C46.5369 22.3876 46.7512 21.97 46.8344 21.518C46.9175 21.0661 46.866 20.5996 46.6862 20.1767C46.5064 19.7537 46.2062 19.393 45.8229 19.1393C45.4397 18.8857 44.9903 18.7503 44.5308 18.75H30.5933L35.8183 3.08438C35.9356 2.73197 35.9676 2.35671 35.9114 1.98954C35.8553 1.62237 35.7127 1.2738 35.4954 0.972561C35.2781 0.671324 34.9923 0.426048 34.6616 0.256953C34.3309 0.0878582 33.9647 -0.000212893 33.5933 3.86446e-07H11.7183C11.209 0.000105385 10.7136 0.166078 10.3071 0.472806C9.90058 0.779534 9.60502 1.21033 9.46514 1.7L0.0901412 34.5125C-0.00948481 34.8613 -0.0268026 35.2284 0.0395488 35.585C0.1059 35.9416 0.254111 36.2779 0.472515 36.5675C0.69092 36.8571 0.973556 37.092 1.29818 37.2539C1.6228 37.4157 1.98055 37.4999 2.34327 37.5H10.2933Z" fill="black"/>
</svg>
