<svg width="138" height="137" viewBox="0 0 138 137" fill="none" xmlns="http://www.w3.org/2000/svg">
<path d="M57.5 102.75C67.7061 102.748 77.6181 99.356 85.6577 93.1143L110.935 118.208L119.065 110.137L93.7882 85.0428C100.079 77.0606 103.498 67.2181 103.5 57.0834C103.5 31.9039 82.8632 11.4167 57.5 11.4167C32.1367 11.4167 11.5 31.9039 11.5 57.0834C11.5 82.2628 32.1367 102.75 57.5 102.75ZM57.5 22.8334C76.5267 22.8334 92 38.1945 92 57.0834C92 75.9722 76.5267 91.3334 57.5 91.3334C38.4732 91.3334 23 75.9722 23 57.0834C23 38.1945 38.4732 22.8334 57.5 22.8334Z" fill="black"/>
<path d="M65.6185 49.0118C67.7978 51.1809 68.9995 54.0465 68.9995 57.0833H80.4995C80.5046 54.0832 79.9106 51.1118 78.7519 48.3409C77.5933 45.5701 75.8929 43.0547 73.749 40.9402C65.0435 32.3092 49.9497 32.3092 41.25 40.9402L49.369 49.0232C53.739 44.6963 61.2715 44.7077 65.6185 49.0118Z" fill="black"/>
</svg>
