<svg width="138" height="137" viewBox="0 0 138 137" fill="none" xmlns="http://www.w3.org/2000/svg">
<path d="M116.437 71.7538V68.5V65.2034L124.717 58.0109C126.244 56.6754 127.245 54.8472 127.545 52.8495C127.845 50.8517 127.424 48.8131 126.356 47.0938L116.179 29.9688C115.422 28.6684 114.335 27.5883 113.026 26.8369C111.716 26.0854 110.231 25.689 108.718 25.6875C107.781 25.6804 106.849 25.825 105.958 26.1156L95.4787 29.6263C93.6694 28.4327 91.7821 27.36 89.8293 26.4153L87.6299 15.6266C87.2356 13.6555 86.1554 11.8849 84.5786 10.6248C83.0018 9.36465 81.0288 8.69525 79.0049 8.73375H58.8224C56.7986 8.69525 54.8255 9.36465 53.2487 10.6248C51.6719 11.8849 50.5918 13.6555 50.1974 15.6266L47.9981 26.4153C46.0313 27.3598 44.1296 28.4324 42.3056 29.6263L32.0418 25.9444C31.1418 25.7116 30.2097 25.6248 29.2818 25.6875C27.7693 25.689 26.2838 26.0854 24.9743 26.8369C23.6648 27.5883 22.5774 28.6684 21.8212 29.9688L11.6437 47.0938C10.6371 48.8105 10.263 50.8213 10.5856 52.7817C10.9082 54.7421 11.9073 56.5302 13.4118 57.8397L21.5624 65.2463V71.7966L13.4118 78.9891C11.8648 80.3077 10.8383 82.1278 10.5147 84.1263C10.191 86.1249 10.591 88.1727 11.6437 89.9063L21.8212 107.031C22.5774 108.332 23.6648 109.412 24.9743 110.163C26.2838 110.915 27.7693 111.311 29.2818 111.313C30.2191 111.32 31.1514 111.175 32.0418 110.884L42.5212 107.374C44.3304 108.567 46.2177 109.64 48.1706 110.585L50.3699 121.373C50.7643 123.345 51.8444 125.115 53.4212 126.375C54.998 127.635 56.9711 128.305 58.9949 128.266H79.3499C81.3738 128.305 83.3468 127.635 84.9236 126.375C86.5005 125.115 87.5806 123.345 87.9749 121.373L90.1743 110.585C92.1411 109.64 94.0427 108.568 95.8668 107.374L106.303 110.884C107.194 111.175 108.126 111.32 109.063 111.313C110.576 111.311 112.061 110.915 113.371 110.163C114.68 109.412 115.767 108.332 116.524 107.031L126.356 89.9063C127.363 88.1895 127.737 86.1788 127.414 84.2183C127.092 82.2579 126.093 80.4698 124.588 79.1603L116.437 71.7538ZM108.718 102.75L93.9262 97.7838C90.4635 100.695 86.5061 102.972 82.2393 104.505L79.1774 119.875H58.8224L55.7606 104.677C51.5275 103.099 47.5915 100.827 44.1168 97.955L29.2818 102.75L19.1043 85.625L30.8343 75.35C30.0369 70.9183 30.0369 66.3814 30.8343 61.9497L19.1043 51.375L29.2818 34.25L44.0737 39.2163C47.5363 36.3045 51.4938 34.0285 55.7606 32.4947L58.8224 17.125H79.1774L82.2393 32.3234C86.4724 33.9008 90.4084 36.1729 93.8831 39.045L108.718 34.25L118.896 51.375L107.166 61.65C107.963 66.0817 107.963 70.6186 107.166 75.0503L118.896 85.625L108.718 102.75Z" fill="black"/>
<path d="M69 94.1875C63.8824 94.1875 58.8798 92.681 54.6246 89.8584C50.3695 87.0358 47.053 83.024 45.0946 78.3302C43.1362 73.6364 42.6238 68.4715 43.6222 63.4886C44.6206 58.5057 47.0849 53.9287 50.7036 50.3362C54.3223 46.7437 58.9328 44.2972 63.952 43.3061C68.9713 42.3149 74.1739 42.8236 78.9019 44.7679C83.63 46.7121 87.6711 50.0045 90.5143 54.2288C93.3575 58.4531 94.875 63.4195 94.875 68.5C94.9096 71.8829 94.264 75.2386 92.9759 78.3707C91.6878 81.5027 89.7831 84.3482 87.3735 86.7404C84.9639 89.1325 82.0977 91.0234 78.9427 92.3021C75.7878 93.5809 72.4076 94.2218 69 94.1875ZM69 51.375C66.7202 51.3223 64.4533 51.7292 62.3364 52.5711C60.2195 53.4131 58.2967 54.6726 56.6842 56.2734C55.0716 57.8742 53.803 59.7832 52.9549 61.8847C52.1068 63.9862 51.6969 66.2367 51.75 68.5C51.6969 70.7633 52.1068 73.0138 52.9549 75.1153C53.803 77.2169 55.0716 79.1258 56.6842 80.7266C58.2967 82.3274 60.2195 83.5869 62.3364 84.4289C64.4533 85.2708 66.7202 85.6777 69 85.625C71.2798 85.6777 73.5467 85.2708 75.6636 84.4289C77.7805 83.5869 79.7033 82.3274 81.3159 80.7266C82.9284 79.1258 84.197 77.2169 85.0451 75.1153C85.8932 73.0138 86.3031 70.7633 86.25 68.5C86.3031 66.2367 85.8932 63.9862 85.0451 61.8847C84.197 59.7832 82.9284 57.8742 81.3159 56.2734C79.7033 54.6726 77.7805 53.4131 75.6636 52.5711C73.5467 51.7292 71.2798 51.3223 69 51.375Z" fill="black"/>
</svg>
