<svg width="129" height="129" viewBox="0 0 129 129" fill="none" xmlns="http://www.w3.org/2000/svg">
<path d="M100.58 17.7375C80.8265 -8.46564 24.7921 11.0859 20.5593 9.27186C20.5593 9.27186 19.9546 13.1015 22.1718 15.5203C19.3499 17.5359 15.9234 14.1094 15.9234 14.1094C15.9234 14.1094 12.2953 22.575 16.1249 27.8156C10.0781 35.6765 17.3343 76.5937 17.3343 76.5937H109.852C109.852 76.5937 120.937 44.5453 108.239 22.7766C105.619 17.7375 102.797 20.7609 100.58 17.7375Z" fill="#DBB471"/>
<path d="M110.859 59.6625C110.456 61.8797 110.053 63.8953 109.449 65.1047C108.441 67.1203 106.224 68.3297 106.224 68.3297C106.224 68.3297 106.828 64.0969 106.627 58.05C103.805 17.5359 91.9126 36.8859 64.5001 36.8859C37.0876 36.8859 25.1954 17.5359 22.5751 58.2516C22.3735 64.0969 22.9782 68.5312 22.9782 68.5312C22.9782 68.5312 20.761 67.3219 19.7532 65.3062C19.1485 64.0969 18.7454 62.0812 18.3423 59.8641C14.7142 58.8562 10.2798 59.6625 10.2798 70.3453C10.2798 76.9969 12.6985 82.2375 20.5595 82.8422C23.986 109.448 30.0329 113.681 49.9876 123.155C55.0267 125.573 58.4532 124.969 64.5001 124.969C70.547 124.969 73.9735 125.573 79.2142 123.155C99.3704 113.681 105.417 109.448 108.642 82.8422C116.503 82.2375 118.922 76.7953 118.922 70.3453C118.922 59.6625 114.286 58.8562 110.859 59.6625Z" fill="#FFE1BD"/>
<path d="M82.6406 98.5641C82.6406 105.417 73.5703 108.844 64.5 108.844C55.4297 108.844 46.3594 105.417 46.3594 98.5641C46.3594 98.5641 46.3594 96.75 48.1734 96.75H80.8266C82.6406 96.75 82.6406 98.5641 82.6406 98.5641Z" fill="#664E27"/>
<path d="M40.3125 57.6469C30.2344 57.6469 26.2031 61.275 26.2031 64.9031C26.2031 68.5312 26.2031 73.7718 39.5063 73.7718C52.4063 73.7718 54.4219 72.1593 54.4219 66.7172C54.4219 63.089 50.3906 57.6469 40.3125 57.6469Z" fill="#F5F5F5"/>
<path d="M41.3203 72.764C46.3297 72.764 50.3906 68.7031 50.3906 63.6937C50.3906 58.6843 46.3297 54.6234 41.3203 54.6234C36.3109 54.6234 32.25 58.6843 32.25 63.6937C32.25 68.7031 36.3109 72.764 41.3203 72.764Z" fill="#0A84A5"/>
<path d="M44.3438 63.6937C44.3438 65.3062 42.9328 66.7172 41.3203 66.7172C39.7078 66.7172 38.2969 65.3062 38.2969 63.6937C38.2969 62.0812 39.7078 60.6703 41.3203 60.6703C42.9328 60.6703 44.3438 62.0812 44.3438 63.6937Z" fill="#231F20"/>
<path d="M26.2031 64.7016C26.2031 50.5922 54.4219 50.5922 54.4219 66.7172C50.3906 54.6234 30.2344 54.6234 26.2031 64.7016Z" fill="#664E27"/>
<path d="M88.6875 57.6469C98.7656 57.6469 102.797 61.275 102.797 64.9031C102.797 68.5312 102.797 73.7718 89.4938 73.7718C76.5938 73.7718 74.5781 72.1593 74.5781 66.7172C74.5781 63.089 78.6094 57.6469 88.6875 57.6469Z" fill="#F5F5F5"/>
<path d="M87.6797 72.764C92.6891 72.764 96.75 68.7031 96.75 63.6937C96.75 58.6843 92.6891 54.6234 87.6797 54.6234C82.6703 54.6234 78.6094 58.6843 78.6094 63.6937C78.6094 68.7031 82.6703 72.764 87.6797 72.764Z" fill="#0A84A5"/>
<path d="M84.6562 63.6937C84.6562 65.3062 86.0672 66.7172 87.6797 66.7172C89.2922 66.7172 90.7031 65.3062 90.7031 63.6937C90.7031 62.0812 89.2922 60.6703 87.6797 60.6703C86.0672 60.6703 84.6562 62.0812 84.6562 63.6937Z" fill="#231F20"/>
<path d="M102.797 64.7016C102.797 50.5922 74.5781 50.5922 74.5781 66.7172C78.6094 54.6234 98.7656 54.6234 102.797 64.7016Z" fill="#664E27"/>
<path d="M64.5002 90.7031C56.0346 90.7031 51.8018 84.6562 56.0346 84.6562H72.9658C77.1986 84.6562 72.9658 90.7031 64.5002 90.7031Z" fill="#E6B796"/>
</svg>
