<svg width="128" height="129" viewBox="0 0 128 129" fill="none" xmlns="http://www.w3.org/2000/svg">
<g clip-path="url(#clip0)">
<path d="M85.5419 65.653C85.3239 66.4894 86.1599 67.4146 87.3939 67.7291C88.6299 68.0395 89.7939 67.6101 90.0059 66.7757L97.2519 37.5471C97.4619 36.7126 96.6279 35.7754 95.3999 35.475C94.1639 35.1525 92.9919 35.5819 92.7879 36.4204L85.5419 65.653Z" fill="#808285"/>
<path d="M87.44 65.8484C87.39 66.0478 87.3794 66.2551 87.4089 66.4585C87.4384 66.662 87.5074 66.8576 87.612 67.0341C87.7166 67.2106 87.8547 67.3647 88.0184 67.4874C88.1821 67.6101 88.3682 67.699 88.566 67.7492C88.9648 67.8468 89.3857 67.7816 89.7371 67.568C90.0884 67.3543 90.3418 67.0094 90.442 66.6083L97.696 37.3838C97.7771 36.9897 97.704 36.5792 97.4918 36.2382C97.2796 35.8972 96.9449 35.6521 96.5576 35.554C96.1703 35.4558 95.7603 35.5124 95.4134 35.7118C95.0665 35.9112 94.8095 36.238 94.696 36.6239L87.44 65.8484Z" fill="#9D9EA4"/>
<path d="M81.782 26.9247C82.204 20.2127 86.152 15.5647 90.512 13.3313C92.764 12.1683 95.422 11.3661 98.512 11.5032C105.604 11.8136 110.036 16.4193 111.73 21.3193C112.614 23.8589 112.896 27.1283 111.706 30.3674C109.652 36.0253 104.226 39.3672 98.394 38.5488C94.962 38.061 92.642 36.3276 91.03 33.9633C89.218 31.3127 88.176 26.3261 90.92 22.5689C93.204 19.4246 99.02 17.2618 102.92 20.9484C104.342 22.2807 105.664 24.9353 104.732 27.7229C103.95 30.1215 101.426 31.7461 99.05 31.095C97.306 30.6234 96.384 29.3273 96.728 27.3137C96.938 27.2633 96.994 27.9204 97.22 28.2389C97.446 28.5574 97.844 28.9 98.282 29.0613C100.816 30.0308 102.458 27.8055 102.184 25.4815C101.98 23.607 100.268 22.0509 97.97 22.0187C95.602 21.9723 93.476 23.5586 92.672 25.7254C91.162 29.803 93.796 34.2414 98.002 35.3218C102.584 36.4989 106.71 33.8161 108.424 30.1699C110.026 26.7675 109.384 23.5082 108.156 20.9786C106.438 17.4331 102.42 14.3029 96.924 14.704C91.67 15.0849 86.2 18.7352 85.096 25.8242C84.728 28.2167 84.924 29.926 85.442 31.8348C86.348 35.2371 88.2 38.2485 91.632 40.5241C95.018 42.7655 100.028 43.5657 103.82 42.6345C107.368 41.7637 110.542 39.863 112.826 37.0492C115.559 33.6786 116.962 29.4105 116.766 25.0623C116.568 21.3678 115.325 17.8074 113.186 14.8007C111.224 12.0554 107.628 9.25776 103.742 8.01412L101.498 7.44168C97.098 6.9015 93.158 7.39936 89.766 8.81634C91.9133 7.47845 94.3052 6.5884 96.8 6.1989C99.2947 5.8094 101.842 5.92837 104.29 6.54876C114.428 9.10256 120.596 19.4729 118.064 29.6942C115.524 39.9194 105.244 46.1356 95.1 43.5838C91.5231 42.684 88.285 40.7506 85.7836 38.0213C83.2823 35.2919 81.6265 31.8856 81.02 28.2208C81.322 27.8942 81.59 27.473 81.786 26.9247" fill="#DEB5E5"/>
<path d="M108.46 30.1719C107.614 31.9651 106.244 33.4548 104.534 34.441L103.588 29.6982C104.112 29.1379 104.534 28.4687 104.776 27.7249C105.145 26.5982 105.183 25.3881 104.886 24.2399L108.694 22.1396C109.56 24.4677 109.826 27.2634 108.46 30.1719Z" fill="#29ABE2"/>
<path d="M103.856 42.6305C102.644 42.9108 101.401 43.0368 100.158 43.0054L99.8379 38.6516C102.098 38.7141 104.238 38.1679 106.116 37.1077L110.156 39.6494C108.278 41.0651 106.134 42.0795 103.854 42.6305" fill="#93278F"/>
<path d="M113.22 14.8007C114.848 17.0926 115.963 19.7135 116.488 22.4823L112.196 22.8652C111.571 20.1544 110.215 17.6704 108.278 15.6876L111.062 12.3719C111.898 13.158 112.634 13.9844 113.22 14.8007Z" fill="#93278F"/>
<path d="M98.0405 35.3239C93.8345 34.2394 91.2005 29.8051 92.7105 25.7234C93.5145 23.5566 95.6345 21.9744 98.0025 22.0167C100.308 22.053 102.022 23.609 102.224 25.4836C102.49 27.8116 100.848 30.0328 98.3225 29.0593C97.8985 28.8899 97.5285 28.6069 97.2525 28.2409C97.0345 27.9225 96.9785 27.2553 96.7685 27.3158C96.4165 29.3314 97.3465 30.6254 99.0905 31.0971C99.2225 31.1374 99.3565 31.1656 99.4885 31.1838L100.356 35.598C99.5758 35.6102 98.7971 35.518 98.0405 35.3239Z" fill="#29ABE2"/>
<path d="M113.292 36.503L109.586 34.1709C110.511 33.0286 111.24 31.7382 111.742 30.3533C112.115 29.3357 112.357 28.2743 112.462 27.1949L116.792 26.8099C116.598 30.3177 115.381 33.6897 113.292 36.503Z" fill="#29ABE2"/>
<path d="M91.6602 40.5342C89.7002 39.2301 88.2442 37.6781 87.1982 35.9568L91.0682 33.9794C92.1642 35.5718 93.5862 36.894 95.4622 37.7144L95.7902 42.3705C94.3291 41.9731 92.9365 41.3539 91.6602 40.5342Z" fill="#29ABE2"/>
<path d="M85.47 31.8327C84.96 29.926 84.758 28.2167 85.132 25.8262C85.774 21.7183 87.884 18.7554 90.574 16.9232L92.474 21.0129C91.899 21.4609 91.3858 21.9842 90.948 22.5689C89.292 24.8365 89.018 27.5475 89.456 29.926L85.508 31.9416C85.494 31.9113 85.486 31.873 85.47 31.8287" fill="#93278F"/>
<path d="M96.9596 14.702C101.072 14.4077 104.346 16.0807 106.466 18.4208L102.542 20.5795C100.68 19.0678 98.4516 18.7635 96.3896 19.1908L94.4976 15.1192C95.3176 14.8975 96.1376 14.7604 96.9596 14.7" fill="#29ABE2"/>
<path d="M93.6077 7.66339L93.9897 11.9889C92.7477 12.3195 91.5897 12.7811 90.5337 13.3333C89.0906 14.076 87.7675 15.0349 86.6097 16.1774L83.3657 13.2709C86.0957 10.3885 89.5417 8.47166 93.6077 7.66339Z" fill="#29ABE2"/>
<path d="M81.8118 26.9247C80.6538 30.0691 77.4478 29.154 77.4258 28.6884C77.3158 24.5644 78.6318 20.1683 80.7318 16.7216L83.9598 19.614C82.6897 21.8495 81.9542 24.3527 81.8118 26.9247Z" fill="#29ABE2"/>
<path d="M101.526 7.44573L103.778 8.01414C105.106 8.43943 106.398 9.05017 107.6 9.77176L104.794 13.1197C102.851 12.1284 100.717 11.5773 98.5401 11.5052C98.4541 11.4971 98.3601 11.4971 98.2741 11.4971L97.8921 7.23409C99.1068 7.22242 100.321 7.29312 101.526 7.44573Z" fill="#93278F"/>
<path d="M80.7402 16.7236C80.8949 16.4591 81.059 16.2002 81.2322 15.9476C81.8902 14.9781 82.6022 14.0872 83.3742 13.2689L86.6182 16.1754C85.5858 17.1966 84.6945 18.3532 83.9682 19.614L80.7402 16.7236Z" fill="#FBB03B"/>
<path d="M97.8904 7.23407L98.2724 11.4971C96.8286 11.4576 95.3865 11.6232 93.9884 11.9889L93.6064 7.6634C94.9664 7.39532 96.3984 7.24616 97.8904 7.23407Z" fill="#FBB03B"/>
<path d="M111.06 12.3719L108.278 15.6876C107.254 14.6557 106.078 13.7895 104.792 13.1197L107.598 9.77173C108.874 10.5397 110.044 11.4245 111.06 12.3719Z" fill="#FBB03B"/>
<path d="M116.8 25.0663C116.832 25.6569 116.832 26.2334 116.8 26.8159L112.47 27.2009C112.61 25.7506 112.52 24.2872 112.204 22.8653L116.496 22.4823C116.652 23.341 116.754 24.1996 116.8 25.0663Z" fill="#FBB03B"/>
<path d="M112.86 37.0532C112.064 38.0265 111.156 38.9007 110.154 39.6574L106.114 37.1157C107.439 36.3574 108.615 35.3615 109.584 34.1769L113.29 36.509C113.15 36.6945 113.01 36.8799 112.862 37.0532" fill="#FBB03B"/>
<path d="M95.7904 42.3684L95.4624 37.7123C96.3444 38.1074 97.3304 38.3977 98.4304 38.5488C98.9084 38.6194 99.3784 38.6597 99.8384 38.6677L100.158 43.0215C98.6814 42.984 97.2146 42.7647 95.7904 42.3684Z" fill="#FBB03B"/>
<path d="M85.5103 31.9476L89.4583 29.932C89.7543 31.4961 90.3403 32.9212 91.0683 33.9834L87.1982 35.9607C86.449 34.7144 85.8806 33.3664 85.5103 31.9577" fill="#FBB03B"/>
<path d="M94.48 15.1192L96.372 19.1908C94.9494 19.4939 93.6134 20.1175 92.464 21.0149L90.564 16.9252C91.7631 16.1129 93.0859 15.5036 94.48 15.1212" fill="#FBB03B"/>
<path d="M108.18 20.9806C108.36 21.3475 108.534 21.7365 108.682 22.1396L104.874 24.2399C104.544 22.9846 103.879 21.8443 102.952 20.9423C102.814 20.8185 102.673 20.6975 102.53 20.5795L106.454 18.4208C107.164 19.2129 107.75 20.0796 108.18 20.9806Z" fill="#FBB03B"/>
<path d="M100.36 35.5999L99.4922 31.1857C101 31.4377 102.526 30.8108 103.588 29.7002L104.534 34.443C103.259 35.1711 101.825 35.5687 100.36 35.5999Z" fill="#FBB03B"/>
<path d="M65.084 14.5165L103.77 24.6269L93.666 63.9034L54.978 53.793L65.084 14.5165Z" fill="#00A79D"/>
<path d="M81.274 17.6206L88.106 19.4065L77.458 60.8074L70.626 59.0236L81.274 17.6206Z" fill="#EF4136"/>
<path d="M58.0801 36.7449L59.8541 29.8655L100.932 40.6169L99.1581 47.4982L58.0801 36.7449Z" fill="#EF4136"/>
<path d="M8.14014 14.577L62.7001 -0.143127L77.4121 55.2462L22.8521 69.9663L8.14014 14.577Z" fill="#FFF200"/>
<path d="M55.3502 62.8069L45.7282 65.409L30.2002 7.0083L39.8342 4.40411L55.3502 62.8069Z" fill="#27AAE1"/>
<path d="M14.8901 46.829L12.3101 37.1177L70.2681 21.4764L72.8481 31.1857L14.8901 46.829Z" fill="#27AAE1"/>
<path d="M17.1879 42.3281L8.2839 41.2982L1.2959 120.512L12.9979 119.134L30.1999 74.8502L17.1879 42.3281Z" fill="#BE1E2D"/>
<path d="M1.2959 120.502L18.2359 128.274L12.9979 119.123L1.2959 120.502Z" fill="#CC2D32"/>
<path d="M17.188 42.3282L12.998 119.123L18.236 128.274L34.06 68.5716L20.51 39.851L17.188 42.3282Z" fill="#840C1A"/>
<path d="M118 41.2982L20.5098 39.851L18.2358 128.274L124.18 121.925L118 41.2982Z" fill="#C92B3D"/>
<path d="M57.774 49.6832C75.12 53.6499 91.55 61.8777 109.304 54.6477C112.486 53.3496 115.604 51.9044 118.7 50.4189L118.002 41.2962L20.508 39.851L19.978 60.3902C31.166 52.4849 42.82 46.2606 57.774 49.6832Z" fill="#BE1E2D"/>
<path d="M70.1602 69.0956C47.7882 62.4541 36.6402 67.2191 19.5142 78.6275L18.6382 112.819C24.7662 107.959 30.4102 102.152 36.8682 96.9919C47.0462 88.8689 56.6062 91.2554 68.4042 93.5089C85.1722 96.7157 102.424 99.2655 118.864 92.8477C119.91 92.4366 120.856 91.979 121.85 91.5396L119.91 66.2516C104.72 72.5141 89.0342 74.697 70.1542 69.0956" fill="#DB425F"/>
<path d="M81.6182 111.988C73.3942 110.646 63.4582 106.872 55.1882 107.116C42.7982 107.471 36.9202 115.143 28.4922 122.635C26.3771 124.517 24.195 126.322 21.9502 128.045L124.17 121.927L123.076 107.598C109.636 112.329 95.9802 114.332 81.6142 111.988" fill="#D1334A"/>
<path d="M123.352 109.569L18.572 113.218L18.228 128.274L126.688 122.127L123.352 109.569Z" fill="#BE1E2D"/>
<path d="M46.9621 53.1903C46.9621 56.369 43.9141 58.957 40.1621 58.957C36.4181 58.957 33.3701 56.369 33.3701 53.1903C33.3701 50.0036 36.4181 47.4277 40.1621 47.4277C43.9141 47.4257 46.9621 50.0036 46.9621 53.1903Z" fill="#FFF200"/>
<path d="M111.704 51.8822C111.704 55.0568 108.664 57.6448 104.912 57.6448C101.16 57.6448 98.1123 55.0568 98.1123 51.8822C98.1123 48.6955 101.16 46.1195 104.912 46.1195C108.664 46.1175 111.704 48.6955 111.704 51.8822Z" fill="#FFF200"/>
<path d="M43.3201 57.1994C45.1721 67.0014 43.9521 79.1959 64.2161 86.4139C67.6081 87.6192 71.9321 88.6653 76.2561 88.9173C80.9541 89.2015 84.9701 88.4376 88.1141 87.0992C95.3541 83.971 98.0101 79.0367 99.7001 74.7293C102.084 68.6421 103.312 62.2667 102.85 56.0082C102.732 54.1881 109.284 54.2123 109.416 56.0404C109.814 61.4625 108.69 66.8442 107.242 72.1654C105.984 76.8155 103.896 81.5018 98.8641 85.5734C96.4021 87.5668 93.1421 89.4272 88.6561 90.6326C84.5661 91.7351 79.6581 91.9468 74.7561 91.6082C64.9221 90.9148 56.2381 87.4177 50.5561 84.0072C44.4201 80.3287 41.5981 75.7512 39.8161 71.464C37.8461 66.7152 37.6741 61.9079 36.7821 57.1712C36.4381 55.3571 42.9961 55.3813 43.3321 57.1974" fill="#E6E7E8"/>
</g>
<defs>
<clipPath id="clip0">
<rect width="128" height="129" fill="white"/>
</clipPath>
</defs>
</svg>
