<svg width="129" height="128" viewBox="0 0 129 128" fill="none" xmlns="http://www.w3.org/2000/svg">
<path d="M64.5 72C68.9528 72 72.5625 68.4183 72.5625 64C72.5625 59.5817 68.9528 56 64.5 56C60.0472 56 56.4375 59.5817 56.4375 64C56.4375 68.4183 60.0472 72 64.5 72Z" fill="black"/>
<path d="M117.659 55.04L113.413 41.6C112.954 40.0467 112.185 38.6009 111.151 37.3489C110.117 36.0969 108.84 35.0643 107.395 34.3128C105.951 33.5612 104.368 33.106 102.743 32.9744C101.117 32.8428 99.4809 33.0374 97.9325 33.5467L96.105 34.1334C94.6734 34.6029 93.1485 34.7221 91.6604 34.4806C90.1723 34.2392 88.7651 33.6443 87.5588 32.7467L86.9675 32.32C85.7903 31.426 84.8414 30.27 84.1972 28.9452C83.5529 27.6205 83.2315 26.164 83.2588 24.6934V23.2C83.2849 19.8508 81.9704 16.6282 79.6038 14.24C78.4781 13.1118 77.1389 12.2153 75.663 11.6021C74.1872 10.9888 72.6038 10.671 71.0038 10.6667H57.2975C54.009 10.7089 50.8704 12.0384 48.565 14.3658C46.2597 16.6932 44.9743 19.83 44.9888 23.0934V24.3734C44.9836 25.9215 44.6284 27.4487 43.9493 28.8425C43.2702 30.2363 42.2846 31.4611 41.065 32.4267L40.3663 32.96C39.019 33.9713 37.4432 34.6409 35.7758 34.9104C34.1084 35.18 32.3999 35.0414 30.7988 34.5067C29.3283 34.0018 27.7698 33.7981 26.2177 33.9081C24.6655 34.0181 23.152 34.4395 21.7688 35.1467C20.3286 35.8559 19.0509 36.8517 18.0152 38.072C16.9795 39.2924 16.2081 40.7111 15.7488 42.24L11.3413 56.1067C10.3192 59.2331 10.5813 62.6333 12.0707 65.5691C13.5601 68.5049 16.1566 70.7391 19.2963 71.7867H20.1563C21.6046 72.3252 22.9046 73.1951 23.9505 74.3256C24.9965 75.4562 25.7591 76.8155 26.1763 78.2933L26.4988 79.1467C27.098 80.7794 27.2983 82.5298 27.0834 84.2542C26.8685 85.9787 26.2445 87.628 25.2625 89.0667C23.2749 91.7525 22.4366 95.1084 22.9298 98.4044C23.423 101.7 25.208 104.67 27.8963 106.667L39.0225 115.04C41.1293 116.56 43.6742 117.364 46.2788 117.333C46.9759 117.401 47.6779 117.401 48.375 117.333C49.9881 117.024 51.5206 116.391 52.8791 115.474C54.2375 114.557 55.3935 113.375 56.2763 112L57.5125 110.24C58.3797 109.006 59.5272 107.991 60.8623 107.278C62.1975 106.564 63.6829 106.172 65.1988 106.133C66.7874 106.095 68.36 106.456 69.7699 107.183C71.1798 107.911 72.3809 108.981 73.2613 110.293L73.9063 111.2C74.8227 112.553 76.0086 113.706 77.391 114.588C78.7734 115.469 80.323 116.06 81.9443 116.325C83.5657 116.59 85.2245 116.523 86.8186 116.127C88.4128 115.732 89.9085 115.017 91.2138 114.027L102.125 105.92C104.705 103.932 106.421 101.04 106.92 97.8368C107.42 94.6338 106.666 91.3624 104.813 88.6933L103.415 86.6667C102.575 85.3783 102.024 83.9251 101.802 82.4064C101.579 80.8877 101.689 79.3392 102.125 77.8667C102.569 76.2904 103.393 74.845 104.526 73.6556C105.66 72.4662 107.068 71.5685 108.629 71.04L109.704 70.6667C112.814 69.5957 115.383 67.3666 116.868 64.4505C118.352 61.5344 118.636 58.1598 117.659 55.04ZM64.5 82.6667C60.7793 82.6667 57.1421 81.5719 54.0484 79.5208C50.9547 77.4697 48.5434 74.5543 47.1195 71.1434C45.6957 67.7325 45.3231 63.9793 46.049 60.3583C46.7749 56.7373 48.5666 53.4113 51.1976 50.8007C53.8286 48.1901 57.1806 46.4123 60.8299 45.692C64.4792 44.9718 68.2617 45.3414 71.6993 46.7543C75.1368 48.1671 78.0749 50.5597 80.1421 53.6294C82.2092 56.6991 83.3125 60.3081 83.3125 64C83.3125 68.9507 81.3305 73.6987 77.8025 77.1993C74.2744 80.7 69.4894 82.6667 64.5 82.6667Z" fill="black"/>
</svg>
