<svg width="138" height="137" viewBox="0 0 138 137" fill="none" xmlns="http://www.w3.org/2000/svg">
<path d="M121.21 39.9583C120.216 38.2494 118.794 36.8252 117.081 35.8248C115.367 34.8243 113.422 34.2818 111.435 34.25H37.835L34.5 21.3492C34.163 20.1038 33.4113 19.0084 32.3672 18.2414C31.3231 17.4743 30.0481 17.0808 28.75 17.125H17.25C15.725 17.125 14.2625 17.7264 13.1841 18.7969C12.1058 19.8674 11.5 21.3194 11.5 22.8333C11.5 24.3473 12.1058 25.7992 13.1841 26.8697C14.2625 27.9402 15.725 28.5417 17.25 28.5417H24.38L40.25 87.1092C40.587 88.3545 41.3387 89.4499 42.3828 90.2169C43.4269 90.984 44.7019 91.3775 46 91.3333H97.75C98.8118 91.3301 99.852 91.0351 100.755 90.4809C101.659 89.9268 102.39 89.1351 102.867 88.1937L121.728 50.7471C122.545 49.0461 122.926 47.1706 122.835 45.2881C122.745 43.4056 122.187 41.5745 121.21 39.9583ZM94.185 79.9167H50.37L40.9975 45.6667H111.435L94.185 79.9167Z" fill="black"/>
<path d="M43.125 119.875C47.8885 119.875 51.75 116.041 51.75 111.312C51.75 106.584 47.8885 102.75 43.125 102.75C38.3615 102.75 34.5 106.584 34.5 111.312C34.5 116.041 38.3615 119.875 43.125 119.875Z" fill="black"/>
<path d="M100.625 119.875C105.388 119.875 109.25 116.041 109.25 111.312C109.25 106.584 105.388 102.75 100.625 102.75C95.8615 102.75 92 106.584 92 111.312C92 116.041 95.8615 119.875 100.625 119.875Z" fill="black"/>
</svg>
