<svg width="129" height="129" viewBox="0 0 129 129" fill="none" xmlns="http://www.w3.org/2000/svg">
<path fill-rule="evenodd" clip-rule="evenodd" d="M50.6209 83.5378C49.1634 82.0809 47.1869 81.2625 45.1261 81.2625C43.0653 81.2625 41.0888 82.0809 39.6313 83.5378L11.3055 111.865C9.89508 113.332 9.11617 115.293 9.13612 117.328C9.15606 119.363 9.97326 121.309 11.4122 122.748C12.8511 124.187 14.797 125.004 16.8318 125.024C18.8667 125.044 20.8282 124.265 22.295 122.854L50.6209 94.5286C51.3426 93.807 51.9151 92.9503 52.3058 92.0074C52.6964 91.0645 52.8974 90.0538 52.8974 89.0332C52.8974 88.0126 52.6964 87.002 52.3058 86.0591C51.9151 85.1162 51.3426 84.2595 50.6209 83.5378Z" fill="#2C3E50"/>
<path fill-rule="evenodd" clip-rule="evenodd" d="M64.6421 69.5091C63.9127 68.78 62.9237 68.3705 61.8924 68.3705C60.8612 68.3705 59.8721 68.78 59.1428 69.5091L44.9992 83.6539C44.2939 84.3881 43.9046 85.3695 43.9147 86.3875C43.9249 87.4054 44.3338 88.3789 45.0537 89.0987C45.7736 89.8186 46.747 90.2275 47.765 90.2377C48.783 90.2479 49.7644 89.8585 50.4985 89.1532L64.6421 75.0084C65.0034 74.6474 65.29 74.2188 65.4855 73.747C65.6811 73.2752 65.7817 72.7695 65.7817 72.2587C65.7817 71.748 65.6811 71.2423 65.4855 70.7705C65.29 70.2987 65.0034 69.8701 64.6421 69.5091Z" fill="#BDC2C7"/>
<path d="M129 46.3046C129 49.3478 127.791 52.2664 125.639 54.4183C123.487 56.5702 120.569 57.7791 117.526 57.7791H11.4747C8.46123 57.7339 5.58651 56.5051 3.47149 54.3581C1.35646 52.2112 0.170898 49.3183 0.170898 46.3046C0.170898 43.2908 1.35646 40.398 3.47149 38.251C5.58651 36.104 8.46123 34.8752 11.4747 34.83H117.524C120.568 34.83 123.486 36.0389 125.638 38.1908C127.791 40.3426 129 43.2612 129 46.3046Z" fill="#BDC2C7"/>
<path d="M11.6102 51.6C14.46 51.6 16.7702 49.2898 16.7702 46.44C16.7702 43.5902 14.46 41.28 11.6102 41.28C8.76041 41.28 6.4502 43.5902 6.4502 46.44C6.4502 49.2898 8.76041 51.6 11.6102 51.6Z" fill="#D4D7DA"/>
<path d="M87.72 83.85C66.3808 83.85 49.02 66.4892 49.02 45.15C49.02 23.8108 66.3808 6.45001 87.72 6.45001C109.059 6.45001 126.42 23.8108 126.42 45.15C126.42 66.4892 109.059 83.85 87.72 83.85Z" fill="#ECF0F1"/>
<path d="M87.7199 9.02999C107.636 9.02999 123.84 25.2337 123.84 45.15C123.84 65.0663 107.636 81.27 87.7199 81.27C67.8036 81.27 51.5999 65.0663 51.5999 45.15C51.5999 25.2337 67.8036 9.02999 87.7199 9.02999ZM87.7199 3.87C64.9218 3.87 46.4399 22.3518 46.4399 45.15C46.4399 67.9482 64.9218 86.43 87.7199 86.43C110.518 86.43 129 67.9482 129 45.15C129 22.3518 110.518 3.87 87.7199 3.87Z" fill="#2C3E50"/>
<path d="M87.7197 16.77C103.393 16.77 116.1 29.4765 116.1 45.15" stroke="white" stroke-width="4" stroke-miterlimit="10" stroke-linecap="round" stroke-linejoin="round"/>
</svg>
