<svg width="129" height="129" viewBox="0 0 129 129" fill="none" xmlns="http://www.w3.org/2000/svg">
<path d="M36.2812 16.125H30.9062C26.986 16.125 23.2264 17.6823 20.4543 20.4543C17.6823 23.2264 16.125 26.986 16.125 30.9062V98.0938C16.125 102.014 17.6823 105.774 20.4543 108.546C23.2264 111.318 26.986 112.875 30.9062 112.875H32.25V80.625C32.25 77.4175 33.5242 74.3414 35.7922 72.0734C38.0602 69.8054 41.1363 68.5312 44.3438 68.5312H83.8661L93.4766 58.9207C95.1149 57.2807 97.0605 55.9798 99.2021 55.0925C101.344 54.2052 103.639 53.749 105.957 53.75H105.968C108.317 53.75 110.671 54.2176 112.875 55.1529V44.5426C112.876 42.2477 112.424 39.9752 111.546 37.855C110.668 35.7347 109.381 33.8082 107.758 32.1855L96.8199 21.2474C93.5912 18.015 89.2246 16.1762 84.6562 16.125V40.3125C84.6562 43.52 83.3821 46.5961 81.1141 48.8641C78.8461 51.1321 75.77 52.4062 72.5625 52.4062H48.375C45.1675 52.4062 42.0914 51.1321 39.8234 48.8641C37.5554 46.5961 36.2812 43.52 36.2812 40.3125V16.125Z" fill="black"/>
<path d="M75.8036 76.5938L61.748 90.6494C59.2101 93.1881 57.4098 96.3687 56.5396 99.8514L54.0779 109.688C53.8091 110.773 53.7016 111.838 53.7446 112.875H40.3125V80.625C40.3125 79.5558 40.7372 78.5305 41.4932 77.7745C42.2492 77.0185 43.2746 76.5938 44.3437 76.5938H75.8036Z" fill="black"/>
<path d="M76.5938 16.125V40.3125C76.5938 41.3817 76.169 42.407 75.413 43.163C74.657 43.919 73.6317 44.3437 72.5625 44.3437H48.375C47.3058 44.3437 46.2805 43.919 45.5245 43.163C44.7685 42.407 44.3438 41.3817 44.3438 40.3125V16.125H76.5938Z" fill="black"/>
<path d="M105.968 59.125H105.957C102.813 59.125 99.6687 60.3236 97.2768 62.7263L65.5535 94.4495C63.7026 96.2979 62.389 98.6147 61.7534 101.152L59.2917 110.994C59.0468 111.973 59.0599 112.999 59.3295 113.972C59.5991 114.944 60.116 115.83 60.83 116.544C61.544 117.257 62.4306 117.774 63.4035 118.042C64.3764 118.311 65.4023 118.324 66.3813 118.078L76.2175 115.622C78.7569 114.987 81.0757 113.673 82.9255 111.822L114.649 80.0983C116.369 78.3812 117.54 76.1925 118.016 73.8093C118.491 71.4261 118.249 68.9554 117.319 66.7099C116.39 64.4645 114.815 62.5452 112.795 61.195C110.774 59.8448 108.398 59.1244 105.968 59.125Z" fill="black"/>
</svg>
