<svg width="110" height="124" viewBox="0 0 110 124" fill="none" xmlns="http://www.w3.org/2000/svg">
<path d="M55.0192 62.267C70.8331 62.267 83.6527 49.4473 83.6527 33.6335C83.6527 17.8196 70.8331 5 55.0192 5C39.2054 5 26.3857 17.8196 26.3857 33.6335C26.3857 49.4473 39.2054 62.267 55.0192 62.267Z" stroke="black" stroke-width="8.33333"/>
<path d="M83.653 73.7204H85.6688C89.8554 73.7216 93.8976 75.2515 97.0358 78.0228C100.174 80.794 102.192 84.6158 102.711 88.7702L104.951 106.66C105.152 108.272 105.008 109.908 104.529 111.46C104.05 113.012 103.246 114.444 102.171 115.662C101.096 116.879 99.7742 117.854 98.2936 118.522C96.813 119.189 95.2073 119.534 93.5831 119.534H16.4559C14.8317 119.534 13.226 119.189 11.7454 118.522C10.2647 117.854 8.94304 116.879 7.86799 115.662C6.79294 114.444 5.98913 113.012 5.50991 111.46C5.03068 109.908 4.887 108.272 5.0884 106.66L7.32181 88.7702C7.8412 84.6139 9.86112 80.7905 13.0017 78.019C16.1423 75.2475 20.1873 73.7188 24.3759 73.7204H26.386" stroke="black" stroke-width="8.33333" stroke-linecap="round" stroke-linejoin="round"/>
</svg>
