<svg width="103" height="103" viewBox="0 0 103 103" fill="none" xmlns="http://www.w3.org/2000/svg">
<path d="M11.4444 103H91.5556C97.8672 103 103 97.8672 103 91.5556V28.6111C103.001 27.8596 102.853 27.1153 102.565 26.421C102.278 25.7268 101.856 25.0962 101.323 24.5655L78.4345 1.67662C77.904 1.14421 77.2735 0.721976 76.5792 0.434233C75.8848 0.14649 75.1405 -0.00108407 74.3889 5.99502e-06H11.4444C5.13283 5.99502e-06 0 5.13284 0 11.4444V91.5556C0 97.8672 5.13283 103 11.4444 103ZM68.6667 91.5556H34.3333V62.9444H68.6667V91.5556ZM57.2222 22.8889H45.7778V11.4444H57.2222V22.8889ZM11.4444 11.4444H22.8889V34.3333H68.6667V11.4444H72.0199L91.5556 30.9801L91.5613 91.5556H80.1111V62.9444C80.1111 56.6328 74.9783 51.5 68.6667 51.5H34.3333C28.0217 51.5 22.8889 56.6328 22.8889 62.9444V91.5556H11.4444V11.4444Z" fill="black"/>
</svg>
