<svg width="118" height="118" viewBox="0 0 118 118" fill="none" xmlns="http://www.w3.org/2000/svg">
<path d="M117.246 26.7467C116.994 25.1515 116.264 23.6703 115.152 22.4995C114.04 21.3287 112.598 20.5237 111.018 20.1911L91.7773 15.9628C89.714 15.5128 87.5781 15.5111 85.5141 15.9578C83.45 16.4046 81.506 17.2893 79.8134 18.5522L22.944 59.9833L7.01398 59.3278C5.7334 59.2819 4.47093 59.6408 3.40589 60.3533C2.34085 61.0658 1.52739 62.0958 1.08104 63.2969C0.634691 64.4981 0.578154 65.8093 0.919458 67.0444C1.26076 68.2795 1.98255 69.3757 2.98231 70.1772L19.3712 83.0589C21.3379 85.4517 22.649 84.9928 55.1973 67.26L58.2456 98.1367C58.2964 98.979 58.5851 99.7896 59.0783 100.474C59.5715 101.159 60.2489 101.69 61.0318 102.004C61.595 102.227 62.1961 102.338 62.8018 102.332C64.0208 102.295 65.1852 101.818 66.0795 100.988L73.9134 93.8428C74.6935 93.1201 75.2218 92.1667 75.4212 91.1222L82.5995 52.1167C94.3012 45.5611 105.38 39.3989 113.28 34.9083C114.693 34.1134 115.83 32.906 116.539 31.4475C117.247 29.9891 117.494 28.3491 117.246 26.7467ZM110.035 29.205C101.84 33.8594 90.3679 40.3822 78.0434 47.1344L76.6995 47.8883L69.0623 89.4178L64.244 93.81L60.6384 56.7711L56.279 59C32.7773 72.1111 24.9434 75.9133 22.2556 77.0933L8.1612 65.9161L24.8123 66.6372L83.8123 23.8294C84.7397 23.1361 85.803 22.6464 86.9326 22.3922C88.0623 22.138 89.2329 22.1251 90.3679 22.3544L109.543 26.4844C109.838 26.538 110.109 26.6846 110.315 26.9027C110.522 27.1209 110.653 27.3992 110.69 27.6972C110.758 27.9856 110.73 28.2881 110.612 28.5597C110.494 28.8313 110.291 29.0576 110.035 29.205Z" fill="black"/>
<path d="M22.9435 41.1034L34.6124 44.3811L39.988 40.4806L26.8769 36.6783L32.7769 33.0728L50.7063 32.5484L58.2452 27.0745L32.7769 27.8611C31.9739 27.8177 31.176 28.0115 30.4824 28.4184L21.8619 33.4334C21.1492 33.8556 20.5774 34.4793 20.2186 35.2259C19.8598 35.9726 19.7301 36.8087 19.8458 37.6289C19.9615 38.4492 20.3174 39.2168 20.8686 39.8351C21.4199 40.4534 22.1419 40.8947 22.9435 41.1034Z" fill="black"/>
</svg>
