<svg width="118" height="118" viewBox="0 0 118 118" fill="none" xmlns="http://www.w3.org/2000/svg">
<path d="M14.75 54.0833V83.5833H24.5833L29.5 76.2083L44.25 83.5833H93.4167C97.3286 83.5833 101.08 82.0293 103.846 79.2631C106.613 76.497 108.167 72.7453 108.167 68.8333C108.167 64.9214 106.613 61.1696 103.846 58.4035C101.08 55.6373 97.3286 54.0833 93.4167 54.0833H44.25L29.5 61.4583L24.5833 54.0833H14.75Z" stroke="black" stroke-width="9.83333" stroke-linecap="round" stroke-linejoin="round"/>
<path d="M83.5832 54.0833L78.6665 39.3333H54.0832L49.1665 54.0833" stroke="black" stroke-width="9.83333" stroke-linecap="round" stroke-linejoin="round"/>
<path d="M63.9165 39.3333V29.5C63.9165 28.196 64.4345 26.9454 65.3566 26.0234C66.2786 25.1013 67.5292 24.5833 68.8332 24.5833H73.7498" stroke="black" stroke-width="9.83333" stroke-linecap="round" stroke-linejoin="round"/>
</svg>
