<?xml version="1.0" encoding="utf-8"?>
<!-- Generator: Adobe Illustrator 25.2.3, SVG Export Plug-In . SVG Version: 6.00 Build 0)  -->
<svg version="1.1" preserveAspectRatio="none" id="BACKGROUND" xmlns="http://www.w3.org/2000/svg" xmlns:xlink="http://www.w3.org/1999/xlink" x="0px" y="0px"
	 viewBox="0 0 500 500" style="enable-background:new 0 0 500 500;" xml:space="preserve">
<style type="text/css">
	.st0{opacity:0.06;fill:url(#SVGID_1_);}
	.st1{fill:url(#SVGID_2_);}
	.st2{fill:url(#SVGID_3_);}
	.st3{fill:url(#SVGID_4_);}
	.st4{opacity:0.06;fill:#FFFFFF;}
	.st5{fill:url(#SVGID_5_);}
	.st6{fill:url(#SVGID_6_);}
	.st7{opacity:0.6;fill:url(#SVGID_7_);}
	.st8{opacity:0.28;fill:url(#SVGID_8_);}
	.st9{opacity:0.6;fill:url(#SVGID_9_);}
	.st10{opacity:0.2;}
	.st11{opacity:0.4;fill:url(#SVGID_10_);}
	.st12{opacity:0.4;fill:url(#SVGID_11_);}
	.st13{fill:#FFFFFF;}
	.st14{fill:url(#SVGID_12_);}
	.st15{opacity:0.6;fill:url(#SVGID_13_);}
	.st16{fill:url(#SVGID_14_);}
	.st17{fill:url(#SVGID_15_);}
	.st18{opacity:0.6;fill:url(#SVGID_16_);}
	.st19{opacity:0.6;fill:url(#SVGID_17_);}
	.st20{fill:url(#SVGID_18_);}
	.st21{fill:url(#SVGID_19_);}
	.st22{fill:url(#SVGID_20_);}
	.st23{opacity:0.4;fill:url(#SVGID_21_);}
	.st24{opacity:0.4;fill:url(#SVGID_22_);}
	.st25{opacity:0.28;fill:url(#SVGID_23_);}
	.st26{opacity:0.28;fill:url(#SVGID_24_);}
	.st27{opacity:0.4;fill:url(#SVGID_25_);}
	.st28{opacity:0.4;fill:url(#SVGID_26_);}
	.st29{opacity:0.4;fill:url(#SVGID_27_);}
	.st30{opacity:0.8;}
	.st31{fill:url(#SVGID_28_);}
	.st32{fill:url(#SVGID_29_);}
	.st33{fill:url(#SVGID_30_);}
	.st34{fill:url(#SVGID_31_);}
	.st35{fill:url(#SVGID_32_);}
	.st36{opacity:0.6;fill:url(#SVGID_33_);}
	.st37{opacity:0.28;fill:url(#SVGID_34_);}
	.st38{fill:url(#SVGID_35_);}
	.st39{opacity:0.4;fill:url(#SVGID_36_);}
	.st40{opacity:0.6;fill:url(#SVGID_37_);}
	.st41{opacity:0.4;fill:url(#SVGID_38_);}
	.st42{opacity:0.4;fill:url(#SVGID_39_);}
	.st43{opacity:0.2;fill:url(#SVGID_40_);}
	.st44{opacity:0.4;fill:url(#SVGID_41_);}
	.st45{opacity:0.1;fill:url(#SVGID_42_);}
	.st46{opacity:0.1;fill:url(#SVGID_43_);}
	.st47{opacity:0.2;fill:url(#SVGID_44_);}
	.st48{opacity:0.4;fill:url(#SVGID_45_);}
	.st49{opacity:0.2;fill:url(#SVGID_46_);}
	.st50{opacity:0.2;fill:url(#SVGID_47_);}
	.st51{opacity:0.28;fill:url(#SVGID_48_);}
	.st52{opacity:0.4;fill:url(#SVGID_49_);}
	.st53{opacity:0.6;fill:url(#SVGID_50_);}
	.st54{fill:#007196;}
	.st55{opacity:0.6;}
	.st56{fill:#00779E;}
	.st57{fill:#D9D9D9;}
	.st58{fill:#8F8F8F;}
	.st59{fill:#7D7D7D;}
	.st60{fill:#454038;}
	.st61{fill:#5E584D;}
	.st62{fill:#47433A;}
	.st63{fill:#4F1313;}
	.st64{fill:#E3E3E3;}
	.st65{fill:#962323;}
	.st66{opacity:0.4;fill:#4F1313;}
</style>
<g>
	<g id="Ocean">
		<linearGradient id="SVGID_1_" gradientUnits="userSpaceOnUse" x1="-38.2938" y1="282.2625" x2="503.73" y2="397.4732">
			<stop  offset="0.0306" style="stop-color:#03344F;stop-opacity:0"/>
			<stop  offset="0.199" style="stop-color:#FCFCFC;stop-opacity:0.4"/>
			<stop  offset="0.2908" style="stop-color:#03344F;stop-opacity:0"/>
			<stop  offset="0.3469" style="stop-color:#FCFCFC;stop-opacity:0.6"/>
			<stop  offset="0.449" style="stop-color:#03344F;stop-opacity:0"/>
			<stop  offset="0.5051" style="stop-color:#FCFCFC;stop-opacity:0.4"/>
			<stop  offset="0.5306" style="stop-color:#03344F;stop-opacity:0"/>
			<stop  offset="0.6071" style="stop-color:#FCFCFC;stop-opacity:0.6"/>
			<stop  offset="0.6582" style="stop-color:#03344F;stop-opacity:0"/>
			<stop  offset="0.7092" style="stop-color:#FCFCFC;stop-opacity:0.6"/>
			<stop  offset="0.8163" style="stop-color:#03344F;stop-opacity:0"/>
			<stop  offset="0.852" style="stop-color:#FCFCFC;stop-opacity:0.4"/>
			<stop  offset="1" style="stop-color:#03344F;stop-opacity:0"/>
		</linearGradient>
		<rect y="187.08" class="st0" width="500" height="312.92"/>
		<radialGradient id="SVGID_2_" cx="249" cy="185.5414" r="411.4272" gradientUnits="userSpaceOnUse">
			<stop  offset="0" style="stop-color:#2784B5"/>
			<stop  offset="0.2784" style="stop-color:#1E719D"/>
			<stop  offset="0.8652" style="stop-color:#08405E"/>
			<stop  offset="1" style="stop-color:#03344F"/>
		</radialGradient>
		<rect y="187.08" class="st1" width="500" height="312.92"/>
		<linearGradient id="SVGID_3_" gradientUnits="userSpaceOnUse" x1="250" y1="531.3459" x2="250" y2="207.01">
			<stop  offset="0" style="stop-color:#03344F"/>
			<stop  offset="0.6021" style="stop-color:#03344F;stop-opacity:0"/>
		</linearGradient>
		<rect y="187.08" class="st2" width="500" height="312.92"/>
	</g>
	<g id="Sky">
		
			<radialGradient id="SVGID_4_" cx="248.4305" cy="188.6683" r="315.9024" gradientTransform="matrix(1 0 0 -1.0528 0 385.5584)" gradientUnits="userSpaceOnUse">
			<stop  offset="0" style="stop-color:#BAE6F2"/>
			<stop  offset="0.1498" style="stop-color:#AFDDF0"/>
			<stop  offset="0.7045" style="stop-color:#8BBEE9"/>
			<stop  offset="1" style="stop-color:#7DB2E6"/>
		</radialGradient>
		<rect class="st3" width="500" height="187.08"/>
		<path class="st4" d="M412.82,83.34c40.55,0,87.18-5.97,87.18-5.97V41.06c-15.6,8.46-84.58,14.92-159.97-7.46
			s-110.75-19.4-165.86-7.96C119.06,37.08,16.64,19.17,0,9.22V71.9c0,0,138.3-25.37,195.49-25.87
			C252.69,45.54,372.27,83.34,412.82,83.34z M0,172.23c0,0,164.3,14.43,257.89-1.49s231.72-2.98,242.11,2.98v-66.51
			c0,0-102.25-27.36-181.8-13.93s-114.9,35.81-186.66,39.3C59.79,136.06,13,127.61,13,127.61s89.99,1.4,117.35-13.21
			c44.96-24.01,100.2-18.46,100.2-18.46s-46.94-15.92-85.41-8.46c-38.47,7.46-76.91,18.46-101.43,15.93
			C20.36,100.99,0,101.25,0,101.25V172.23z"/>
	</g>
	<g id="Sun">
		<radialGradient id="SVGID_5_" cx="334.1969" cy="82.3056" r="50.1397" gradientUnits="userSpaceOnUse">
			<stop  offset="5.102040e-03" style="stop-color:#FFFFFF"/>
			<stop  offset="0.4499" style="stop-color:#FFFCF6;stop-opacity:0.5529"/>
			<stop  offset="1" style="stop-color:#FFFBF2;stop-opacity:0"/>
		</radialGradient>
		<circle class="st5" cx="334.2" cy="82.31" r="50.14"/>
		<radialGradient id="SVGID_6_" cx="334.1969" cy="82.3056" r="21.2983" gradientUnits="userSpaceOnUse">
			<stop  offset="5.102040e-03" style="stop-color:#FFFFFF"/>
			<stop  offset="0.2078" style="stop-color:#FFFEFB;stop-opacity:0.8361"/>
			<stop  offset="0.4212" style="stop-color:#FFFAEE;stop-opacity:0.6637"/>
			<stop  offset="0.6395" style="stop-color:#FFF4D9;stop-opacity:0.4873"/>
			<stop  offset="0.8598" style="stop-color:#FFECBC;stop-opacity:0.3092"/>
			<stop  offset="0.9949" style="stop-color:#FFE6A6;stop-opacity:0.2"/>
		</radialGradient>
		<circle class="st6" cx="334.2" cy="82.31" r="21.3"/>
	</g>
	<g id="Cloud1">
		<linearGradient id="SVGID_7_" gradientUnits="userSpaceOnUse" x1="322.8523" y1="134.3286" x2="322.8523" y2="109.1572">
			<stop  offset="5.102040e-03" style="stop-color:#FFFFFF;stop-opacity:0.2"/>
			<stop  offset="0.9949" style="stop-color:#FFFFFF"/>
		</linearGradient>
		<path class="st7" d="M345.32,127.67c-0.82,0-1.6,0.15-2.32,0.42c0.02-0.21,0.03-0.42,0.03-0.63c0-4.02-3.26-7.28-7.28-7.28
			c-0.83,0-1.63,0.15-2.38,0.41c-1.35-6.53-7.13-11.43-14.06-11.43c-7.93,0-14.35,6.43-14.35,14.35c0,0.48,0.02,0.95,0.07,1.41
			c-0.56-0.1-1.14-0.16-1.73-0.16c-5.29,0-9.57,4.28-9.57,9.57h58.25C351.98,130.65,349,127.67,345.32,127.67z"/>
		<linearGradient id="SVGID_8_" gradientUnits="userSpaceOnUse" x1="61.3537" y1="187.186" x2="61.3537" y2="119.0681">
			<stop  offset="0.199" style="stop-color:#FFFFFF;stop-opacity:0.2"/>
			<stop  offset="0.9949" style="stop-color:#FFFFFF"/>
		</linearGradient>
		<path class="st8" d="M0,187.19h122.71c0-14.42-11.69-26.12-26.12-26.12c-3.06,0-5.99,0.55-8.72,1.52
			c-1.49-10.04-10.12-17.76-20.57-17.76c-5.05,0-9.68,1.8-13.28,4.79c-3.03-3.98-7.8-6.55-13.19-6.55c-1.46,0-2.87,0.21-4.22,0.56
			c-5.02-14.29-18.6-24.56-34.61-24.56c-0.67,0-1.34,0.02-2,0.06V187.19z"/>
		
			<linearGradient id="SVGID_9_" gradientUnits="userSpaceOnUse" x1="202.8174" y1="66.3883" x2="202.8174" y2="43.0931" gradientTransform="matrix(-1 0 0 1 360.3013 0)">
			<stop  offset="5.102040e-03" style="stop-color:#FFFFFF;stop-opacity:0.2"/>
			<stop  offset="0.9949" style="stop-color:#FFFFFF"/>
		</linearGradient>
		<path class="st9" d="M136.69,60.23c0.76,0,1.48,0.14,2.15,0.39c-0.02-0.19-0.03-0.39-0.03-0.58c0-3.72,3.02-6.74,6.74-6.74
			c0.77,0,1.51,0.14,2.2,0.38c1.25-6.04,6.6-10.58,13.01-10.58c7.34,0,13.28,5.95,13.28,13.28c0,0.44-0.02,0.88-0.06,1.31
			c0.52-0.1,1.06-0.15,1.61-0.15c4.89,0,8.86,3.97,8.86,8.86h-53.91C130.53,62.99,133.29,60.23,136.69,60.23z"/>
	</g>
	<g id="Bubble2" class="st10">
		<linearGradient id="SVGID_10_" gradientUnits="userSpaceOnUse" x1="161.7882" y1="453.1" x2="161.7882" y2="280.9899">
			<stop  offset="5.102040e-03" style="stop-color:#FFFFFF;stop-opacity:0.2"/>
			<stop  offset="0.9949" style="stop-color:#FFFFFF"/>
		</linearGradient>
		<path class="st11" d="M134.27,300.7c-0.52,0.14-0.82,0.66-0.69,1.18c0.13,0.52,0.66,0.82,1.18,0.69c0.52-0.14,0.82-0.66,0.69-1.18
			C135.31,300.87,134.78,300.56,134.27,300.7z M145.57,364.59c-1.1,0.29-1.77,1.42-1.48,2.52c0.29,1.1,1.42,1.77,2.52,1.48
			c1.1-0.29,1.77-1.42,1.48-2.52C147.81,364.96,146.68,364.3,145.57,364.59z M131.02,396.29c-0.97,0.25-1.54,1.24-1.29,2.21
			c0.25,0.97,1.24,1.54,2.21,1.29c0.97-0.25,1.54-1.24,1.29-2.21C132.98,396.62,131.99,396.04,131.02,396.29z M128.79,357.61
			c-0.52,0.14-0.82,0.66-0.69,1.18c0.13,0.52,0.66,0.82,1.18,0.69c0.52-0.14,0.82-0.66,0.69-1.18
			C129.83,357.78,129.3,357.48,128.79,357.61z M161.72,430.88c-0.63,0.17-1.01,0.82-0.85,1.45c0.17,0.63,0.82,1.01,1.45,0.85
			s1.01-0.82,0.85-1.45C163,431.09,162.36,430.71,161.72,430.88z M155.52,344.88c-1.34,0.35-2.14,1.72-1.79,3.06
			c0.35,1.34,1.72,2.14,3.06,1.79c1.34-0.35,2.14-1.72,1.79-3.06C158.24,345.34,156.87,344.53,155.52,344.88z M157.78,380.64
			c-1.34,0.35-2.14,1.72-1.79,3.06c0.35,1.34,1.72,2.14,3.06,1.79c1.34-0.35,2.14-1.72,1.79-3.06
			C160.49,381.09,159.12,380.29,157.78,380.64z M110.34,282.53c-0.29-1.1-1.42-1.77-2.52-1.48c-1.1,0.29-1.77,1.42-1.48,2.52
			c0.29,1.1,1.42,1.77,2.52,1.48C109.96,284.77,110.62,283.64,110.34,282.53z M96.99,324.81c-1.1,0.29-1.77,1.42-1.48,2.52
			c0.29,1.1,1.42,1.77,2.52,1.48c1.1-0.29,1.77-1.42,1.48-2.52C99.22,325.18,98.09,324.52,96.99,324.81z M98.33,304.3
			c-0.58-2.21-2.84-3.53-5.05-2.95c-2.21,0.58-3.53,2.84-2.95,5.05c0.58,2.21,2.84,3.53,5.05,2.95
			C97.59,308.77,98.91,306.51,98.33,304.3z M113.78,363.27c-0.72,0.19-1.16,0.93-0.97,1.66c0.19,0.72,0.93,1.16,1.66,0.97
			c0.72-0.19,1.16-0.93,0.97-1.66C115.25,363.52,114.51,363.08,113.78,363.27z M110.68,347.09c-0.52,0.14-0.82,0.66-0.69,1.18
			c0.14,0.52,0.66,0.82,1.18,0.69c0.52-0.14,0.82-0.66,0.69-1.18C111.72,347.26,111.2,346.95,110.68,347.09z M117.59,328.87
			c-1.89,0.5-3.03,2.43-2.53,4.33c0.5,1.89,2.43,3.03,4.33,2.53c1.89-0.5,3.03-2.43,2.53-4.33
			C121.42,329.51,119.49,328.38,117.59,328.87z M124.77,291.17c-0.58-2.21-2.84-3.53-5.05-2.95c-2.21,0.58-3.53,2.84-2.95,5.05
			c0.58,2.21,2.84,3.53,5.05,2.95C124.02,295.64,125.35,293.38,124.77,291.17z M147.41,334.31c-0.72,0.19-1.16,0.93-0.97,1.66
			c0.19,0.72,0.93,1.16,1.66,0.97c0.72-0.19,1.16-0.93,0.97-1.66C148.88,334.55,148.14,334.12,147.41,334.31z M200.73,416.97
			c-0.68,0-1.24,0.55-1.24,1.24s0.55,1.24,1.24,1.24s1.24-0.55,1.24-1.24S201.41,416.97,200.73,416.97z M196.59,345.52
			c0-1.78-1.44-3.22-3.22-3.22c-1.78,0-3.22,1.44-3.22,3.22s1.44,3.22,3.22,3.22C195.15,348.74,196.59,347.3,196.59,345.52z
			 M205.82,395.35c-0.68,0-1.24,0.55-1.24,1.24c0,0.68,0.55,1.24,1.24,1.24s1.24-0.55,1.24-1.24
			C207.06,395.91,206.5,395.35,205.82,395.35z M187.68,371.4c-1.46,0-2.65,1.19-2.65,2.65s1.19,2.65,2.65,2.65
			c1.46,0,2.65-1.19,2.65-2.65S189.14,371.4,187.68,371.4z M222.75,345.68c0-0.96-0.78-1.74-1.74-1.74c-0.96,0-1.74,0.78-1.74,1.74
			c0,0.96,0.78,1.74,1.74,1.74C221.97,347.42,222.75,346.64,222.75,345.68z M155.34,413.48c-0.72,0.19-1.16,0.93-0.97,1.66
			c0.19,0.72,0.93,1.16,1.66,0.97c0.72-0.19,1.16-0.93,0.97-1.66C156.81,413.72,156.07,413.29,155.34,413.48z M221.82,361.09
			c-0.96,0-1.74,0.78-1.74,1.74c0,0.96,0.78,1.74,1.74,1.74c0.96,0,1.74-0.78,1.74-1.74C223.56,361.87,222.78,361.09,221.82,361.09z
			 M230.73,377.63c-1.46,0-2.65,1.19-2.65,2.65c0,1.46,1.19,2.65,2.65,2.65c1.46,0,2.65-1.19,2.65-2.65
			C233.38,378.81,232.2,377.63,230.73,377.63z M176.7,402.97c-0.72,0.19-1.16,0.93-0.97,1.66c0.19,0.72,0.93,1.16,1.66,0.97
			c0.72-0.19,1.16-0.93,0.97-1.66C178.16,403.21,177.42,402.78,176.7,402.97z M139.6,424.68c-0.52,0.14-0.82,0.66-0.69,1.18
			c0.13,0.52,0.66,0.82,1.18,0.69c0.52-0.14,0.82-0.66,0.69-1.18C140.64,424.85,140.12,424.54,139.6,424.68z M165.29,307.83
			c-1.28,0-2.32,1.04-2.32,2.32s1.04,2.32,2.32,2.32c1.28,0,2.32-1.04,2.32-2.32S166.57,307.83,165.29,307.83z M184.8,327.5
			c-0.84,0-1.52,0.68-1.52,1.52s0.68,1.52,1.52,1.52c0.84,0,1.52-0.68,1.52-1.52S185.64,327.5,184.8,327.5z M173.69,284.17
			c-0.96,0-1.74,0.78-1.74,1.74s0.78,1.74,1.74,1.74c0.96,0,1.74-0.78,1.74-1.74S174.65,284.17,173.69,284.17z M208.49,302.68
			c-2.51,0-4.54,2.03-4.54,4.54c0,2.51,2.03,4.54,4.54,4.54c2.51,0,4.54-2.03,4.54-4.54C213.03,304.71,211,302.68,208.49,302.68z
			 M162.9,449.62c-0.96,0-1.74,0.78-1.74,1.74c0,0.96,0.78,1.74,1.74,1.74c0.96,0,1.74-0.78,1.74-1.74
			C164.64,450.4,163.86,449.62,162.9,449.62z"/>
	</g>
	<g id="Bubble1" class="st10">
		
			<linearGradient id="SVGID_11_" gradientUnits="userSpaceOnUse" x1="408.1653" y1="402.868" x2="408.1653" y2="226.2545" gradientTransform="matrix(-1 0 0 1 747.0949 0)">
			<stop  offset="5.102040e-03" style="stop-color:#FFFFFF;stop-opacity:0.2"/>
			<stop  offset="0.9949" style="stop-color:#FFFFFF"/>
		</linearGradient>
		<path class="st12" d="M358.6,251.37c0.52,0.13,0.82,0.66,0.69,1.18c-0.14,0.52-0.66,0.82-1.18,0.69
			c-0.52-0.14-0.82-0.66-0.69-1.18C357.56,251.54,358.08,251.24,358.6,251.37z M355.14,314.36c1.1,0.29,1.77,1.42,1.48,2.52
			c-0.29,1.1-1.42,1.77-2.52,1.48s-1.77-1.42-1.48-2.52C352.91,314.73,354.04,314.07,355.14,314.36z M369.69,346.06
			c0.97,0.25,1.54,1.24,1.29,2.21c-0.25,0.97-1.24,1.54-2.21,1.29c-0.97-0.25-1.54-1.24-1.29-2.21
			C367.74,346.38,368.73,345.81,369.69,346.06z M371.93,307.38c0.52,0.14,0.82,0.66,0.69,1.18c-0.14,0.52-0.66,0.82-1.18,0.69
			c-0.52-0.14-0.82-0.66-0.69-1.18C370.89,307.55,371.42,307.24,371.93,307.38z M339,380.65c0.63,0.17,1.01,0.82,0.85,1.45
			s-0.82,1.01-1.45,0.85c-0.63-0.17-1.01-0.82-0.85-1.45C337.71,380.86,338.36,380.48,339,380.65z M345.19,294.65
			c1.34,0.35,2.14,1.72,1.79,3.06c-0.35,1.34-1.72,2.14-3.06,1.79c-1.34-0.35-2.14-1.72-1.79-3.06
			C342.48,295.1,343.85,294.3,345.19,294.65z M336.66,340.04c1.34,0.35,2.14,1.72,1.79,3.06c-0.35,1.34-1.72,2.14-3.06,1.79
			c-1.34-0.35-2.14-1.72-1.79-3.06C333.95,340.5,335.32,339.69,336.66,340.04z M384.08,227.8c0.29-1.1,1.42-1.77,2.52-1.48
			c1.1,0.29,1.77,1.42,1.48,2.52c-0.29,1.1-1.42,1.77-2.52,1.48C384.45,230.03,383.79,228.9,384.08,227.8z M403.73,274.57
			c1.1,0.29,1.77,1.42,1.48,2.52c-0.29,1.1-1.42,1.77-2.52,1.48c-1.1-0.29-1.77-1.42-1.48-2.52
			C401.5,274.95,402.63,274.28,403.73,274.57z M402.39,254.07c0.58-2.21,2.84-3.53,5.05-2.95c2.21,0.58,3.53,2.84,2.95,5.05
			c-0.58,2.21-2.84,3.53-5.05,2.95C403.13,258.54,401.81,256.28,402.39,254.07z M386.94,313.04c0.72,0.19,1.16,0.93,0.97,1.66
			c-0.19,0.72-0.93,1.16-1.66,0.97c-0.72-0.19-1.16-0.93-0.97-1.66C385.47,313.28,386.21,312.85,386.94,313.04z M390.04,296.86
			c0.52,0.14,0.82,0.66,0.69,1.18c-0.14,0.52-0.66,0.82-1.18,0.69c-0.52-0.13-0.82-0.66-0.69-1.18
			C388.99,297.03,389.52,296.72,390.04,296.86z M383.13,278.64c1.89,0.5,3.03,2.43,2.53,4.33s-2.43,3.03-4.33,2.53
			c-1.89-0.5-3.03-2.43-2.53-4.33C379.3,279.28,381.23,278.14,383.13,278.64z M371.78,249.71c0.58-2.21,2.84-3.53,5.05-2.95
			c2.21,0.58,3.53,2.84,2.95,5.05c-0.58,2.21-2.84,3.53-5.05,2.95C372.52,254.18,371.2,251.92,371.78,249.71z M353.31,284.08
			c0.72,0.19,1.16,0.93,0.97,1.66c-0.19,0.72-0.93,1.16-1.66,0.97c-0.72-0.19-1.16-0.93-0.97-1.66
			C351.84,284.32,352.58,283.89,353.31,284.08z M299.99,366.74c0.68,0,1.24,0.55,1.24,1.24c0,0.68-0.55,1.24-1.24,1.24
			s-1.24-0.55-1.24-1.24C298.75,367.29,299.31,366.74,299.99,366.74z M304.13,295.29c0-1.78,1.44-3.22,3.22-3.22
			c1.78,0,3.22,1.44,3.22,3.22c0,1.78-1.44,3.22-3.22,3.22C305.57,298.5,304.13,297.06,304.13,295.29z M294.9,345.12
			c0.68,0,1.24,0.55,1.24,1.24s-0.55,1.24-1.24,1.24c-0.68,0-1.24-0.55-1.24-1.24S294.22,345.12,294.9,345.12z M305.84,326.28
			c1.46,0,2.65,1.19,2.65,2.65s-1.19,2.65-2.65,2.65c-1.46,0-2.65-1.19-2.65-2.65S304.38,326.28,305.84,326.28z M277.97,295.45
			c0-0.96,0.78-1.74,1.74-1.74s1.74,0.78,1.74,1.74s-0.78,1.74-1.74,1.74S277.97,296.41,277.97,295.45z M345.38,363.25
			c0.72,0.19,1.16,0.93,0.97,1.66c-0.19,0.72-0.93,1.16-1.66,0.97c-0.72-0.19-1.16-0.93-0.97-1.66S344.65,363.06,345.38,363.25z
			 M278.9,310.86c0.96,0,1.74,0.78,1.74,1.74c0,0.96-0.78,1.74-1.74,1.74c-0.96,0-1.74-0.78-1.74-1.74
			C277.16,311.63,277.94,310.86,278.9,310.86z M269.99,327.39c1.46,0,2.65,1.19,2.65,2.65s-1.19,2.65-2.65,2.65
			c-1.46,0-2.65-1.19-2.65-2.65S268.52,327.39,269.99,327.39z M324.02,352.73c0.72,0.19,1.16,0.93,0.97,1.66
			c-0.19,0.72-0.93,1.16-1.66,0.97c-0.72-0.19-1.16-0.93-0.97-1.66C322.56,352.98,323.3,352.54,324.02,352.73z M361.12,374.45
			c0.52,0.14,0.82,0.66,0.69,1.18c-0.14,0.52-0.66,0.82-1.18,0.69c-0.52-0.13-0.82-0.66-0.69-1.18
			C360.07,374.62,360.6,374.31,361.12,374.45z M335.43,257.6c1.28,0,2.32,1.04,2.32,2.32c0,1.28-1.04,2.32-2.32,2.32
			c-1.28,0-2.32-1.04-2.32-2.32C333.11,258.64,334.15,257.6,335.43,257.6z M315.91,277.27c0.84,0,1.52,0.68,1.52,1.52
			s-0.68,1.52-1.52,1.52c-0.84,0-1.52-0.68-1.52-1.52S315.07,277.27,315.91,277.27z M327.03,233.94c0.96,0,1.74,0.78,1.74,1.74
			c0,0.96-0.78,1.74-1.74,1.74s-1.74-0.78-1.74-1.74C325.29,234.71,326.07,233.94,327.03,233.94z M292.23,252.45
			c2.51,0,4.54,2.03,4.54,4.54c0,2.51-2.03,4.54-4.54,4.54s-4.54-2.03-4.54-4.54C287.69,254.48,289.72,252.45,292.23,252.45z
			 M337.81,399.39c0.96,0,1.74,0.78,1.74,1.74c0,0.96-0.78,1.74-1.74,1.74c-0.96,0-1.74-0.78-1.74-1.74
			C336.08,400.17,336.85,399.39,337.81,399.39z"/>
	</g>
	<g id="Tip">
		<g>
			<polygon class="st13" points="279.6,113.57 274.37,91.77 266.7,85.87 265.77,79.2 261.81,74.59 256.69,56.72 246.67,47.91 
				238.92,78.95 230.68,85.1 228.84,93.31 220.2,97.15 214.85,117.29 210.51,113.57 209.02,123.06 192.99,127.42 175.63,187.06 
				292.68,187.06 289.37,125.37 			"/>
			
				<linearGradient id="SVGID_12_" gradientUnits="userSpaceOnUse" x1="261.9825" y1="189.3966" x2="261.9825" y2="50.2458" gradientTransform="matrix(1 0 0.0536 1 -6.7157 0)">
				<stop  offset="0" style="stop-color:#D3DAE0;stop-opacity:0.1"/>
				<stop  offset="1" style="stop-color:#D3DAE0"/>
			</linearGradient>
			<polygon class="st14" points="292.68,187.06 289.37,125.37 279.6,113.57 274.37,91.77 266.7,85.87 265.77,79.2 261.81,74.59 
				256.69,56.72 246.67,47.91 246.66,47.96 251.98,56.76 252.07,60.29 255.62,62.94 253.05,83.4 258.75,82.2 260.8,91.11 
				268.38,95.44 254.48,114.95 262.9,120.48 256.58,134.45 249.92,132.52 241.6,143.6 239.1,140.95 236.17,154.67 237.91,187.06 			
				"/>
			
				<linearGradient id="SVGID_13_" gradientUnits="userSpaceOnUse" x1="241.2416" y1="103.113" x2="241.2416" y2="61.1071" gradientTransform="matrix(1 0 0.0536 1 -6.7157 0)">
				<stop  offset="0.0102" style="stop-color:#FFFFFF;stop-opacity:0"/>
				<stop  offset="1" style="stop-color:#DCE4E8"/>
			</linearGradient>
			<polygon class="st15" points="247.05,60.4 242.79,70.47 243.38,75.65 239.03,84 233.78,87.74 230.62,100.39 243.86,102.41 
				239.75,91.48 244.85,85.15 247.62,88.89 247.14,73.93 245.64,69.9 			"/>
			<g>
				<polygon class="st13" points="352.13,173.47 348.24,174.81 336.17,160.14 326.35,155.81 320.41,142.59 313.62,135.93 
					305.27,111.44 296.97,98.34 288.73,80.97 284.67,97.2 278.24,113.72 272.77,123.97 268.95,138.77 256.72,149.6 249.68,156.43 
					240.17,167.25 220.47,178.07 213.57,187.06 361.35,187.06 				"/>
				
					<linearGradient id="SVGID_14_" gradientUnits="userSpaceOnUse" x1="320.751" y1="195.7446" x2="320.751" y2="89.6505" gradientTransform="matrix(1 0 0.0536 1 -6.7157 0)">
					<stop  offset="0" style="stop-color:#D3DAE0;stop-opacity:0.1"/>
					<stop  offset="1" style="stop-color:#D3DAE0"/>
				</linearGradient>
				<path class="st16" d="M286.88,184.07l-0.11,2.99h74.57l-9.21-13.59l-3.89,1.33l-12.07-14.67l-9.82-4.33l-5.94-13.21l-6.79-6.67
					l-8.35-24.49l-8.3-13.1l-8.24-17.37l0.52,5.11l4.24,16.55l5.28,9.89l-3.08,1.71l3.57,6.09l-4.96,10.66l6.49,5.71l-5.22,10.47
					l-9.27,8.37l14.23,4l-7.45,2.28c0,0,4.45,0.57,3.74,0.95c-0.71,0.38-6.31,4.95-6.31,4.95l10.18,5.9l-5.02,5.9L286.88,184.07z"/>
			</g>
			<polygon class="st13" points="141.22,187.06 144.49,179.7 157.01,172.65 157.79,164.35 167.17,155.5 167.38,151.35 173.3,147.9 
				175.66,149.63 175.53,153.7 179.56,144.3 183.96,145.08 186.69,137.56 189.52,138.35 199.65,109.37 209.77,128.95 209.62,132.71 
				216.99,136.78 216.61,142.73 219.43,140.07 222.79,157.15 229.64,161.22 238.33,180.17 247.94,187.06 			"/>
			
				<linearGradient id="SVGID_15_" gradientUnits="userSpaceOnUse" x1="209.0979" y1="187.0633" x2="209.0979" y2="109.3684" gradientTransform="matrix(1 0 0.0536 1 -6.7157 0)">
				<stop  offset="0" style="stop-color:#D3DAE0;stop-opacity:0.1"/>
				<stop  offset="1" style="stop-color:#D3DAE0"/>
			</linearGradient>
			<polygon class="st17" points="247.94,187.06 238.33,180.17 229.64,161.22 222.79,157.15 219.43,140.07 216.61,142.73 
				216.99,136.78 209.62,132.71 209.77,128.95 199.65,109.37 199.5,109.79 199.42,119.52 202.29,122.18 203.48,127.49 
				199.33,134.84 203.78,137.29 195.02,151.99 196.86,152.4 195.4,159.14 202.13,161.59 200.56,166.28 190.64,172 180.39,175.88 
				184.29,180.78 179.04,184.66 176.88,187.06 			"/>
			<linearGradient id="SVGID_16_" gradientUnits="userSpaceOnUse" x1="270.3557" y1="170.684" x2="270.3557" y2="89.2482">
				<stop  offset="0.0102" style="stop-color:#FFFFFF;stop-opacity:0"/>
				<stop  offset="1" style="stop-color:#DCE4E8"/>
			</linearGradient>
			<polygon class="st18" points="287.99,89.25 284.52,104.45 286.05,107.95 283.55,112.32 278.13,122.98 279.24,129.09 
				274.24,140.8 268.13,145.69 261.75,154.43 250.08,170.68 274.24,170.68 272.86,151.64 279.8,143.77 280.91,134.86 284.38,128.92 
				284.52,121.23 290.63,106.2 287.71,100.61 			"/>
			<linearGradient id="SVGID_17_" gradientUnits="userSpaceOnUse" x1="186.9337" y1="159.2219" x2="186.9337" y2="116.651">
				<stop  offset="0.0102" style="stop-color:#FFFFFF;stop-opacity:0"/>
				<stop  offset="1" style="stop-color:#DCE4E8"/>
			</linearGradient>
			<polygon class="st19" points="198.06,116.65 195.56,124.86 195.98,128.62 193.75,128.48 191.39,138.91 187.63,139.88 
				185.13,146.14 181.37,146.98 175.25,159.22 189.72,159.22 190.69,149.9 190.27,143.92 198.62,139.05 195.7,131.54 198.06,127.78 
				197.37,124.72 			"/>
			<linearGradient id="SVGID_18_" gradientUnits="userSpaceOnUse" x1="173.5186" y1="168.0056" x2="173.5186" y2="147.9034">
				<stop  offset="0.0153" style="stop-color:#D3DAE0;stop-opacity:0"/>
				<stop  offset="1" style="stop-color:#D3DAE0"/>
			</linearGradient>
			<polygon class="st20" points="172.17,168.01 172.48,161.87 174.61,158.64 175.61,153.5 175.53,153.7 175.66,149.63 173.3,147.9 
				173.03,148.06 172.56,150.14 174.37,153.13 171.38,161.08 			"/>
			<linearGradient id="SVGID_19_" gradientUnits="userSpaceOnUse" x1="230.0956" y1="123.0305" x2="230.0956" y2="85.0517">
				<stop  offset="0.0153" style="stop-color:#D3DAE0;stop-opacity:0"/>
				<stop  offset="1" style="stop-color:#D3DAE0"/>
			</linearGradient>
			<polygon class="st21" points="232.75,109.66 231.3,99.02 232.43,92.09 230.75,85.05 230.68,85.1 228.84,93.31 228.56,93.43 
				229.05,96.6 230.34,108.2 227.44,123.03 			"/>
			<linearGradient id="SVGID_20_" gradientUnits="userSpaceOnUse" x1="215.3392" y1="133.2773" x2="215.3392" y2="113.6111">
				<stop  offset="0.0153" style="stop-color:#D3DAE0;stop-opacity:0"/>
				<stop  offset="1" style="stop-color:#D3DAE0"/>
			</linearGradient>
			<polygon class="st22" points="211.7,117.09 215.15,120.66 213.74,124.23 215.65,128.56 215.02,133.28 218.33,126.65 
				220.12,121.55 217.31,118.75 214.85,117.29 210.56,113.61 			"/>
			<linearGradient id="SVGID_21_" gradientUnits="userSpaceOnUse" x1="256.6844" y1="109.1909" x2="256.6844" y2="83.956">
				<stop  offset="0.0153" style="stop-color:#D3DAE0;stop-opacity:0"/>
				<stop  offset="1" style="stop-color:#D3DAE0"/>
			</linearGradient>
			<path class="st23" d="M257.75,83.96l-0.09,6.68l2.41,2.13l-3.25,5.38l0.65,1.58l-4.17,9.46l0.56-13.45c0,0,3.53-2.04,3.25-2.04
				c-0.28,0-2.13-4.08-2.13-4.08L257.75,83.96z"/>
			<linearGradient id="SVGID_22_" gradientUnits="userSpaceOnUse" x1="182.3988" y1="169.7167" x2="182.3988" y2="138.803">
				<stop  offset="0.0153" style="stop-color:#D3DAE0;stop-opacity:0"/>
				<stop  offset="1" style="stop-color:#D3DAE0"/>
			</linearGradient>
			<polygon class="st24" points="184.9,148.22 187.22,138.8 188.27,142.87 186.87,144.27 190.13,150.31 188.62,154.49 
				186.41,156.58 182.11,168.79 174.67,169.72 183.15,161.47 184.55,155.31 180.83,154.26 182.34,146.47 183.97,150.08 			"/>
			<linearGradient id="SVGID_23_" gradientUnits="userSpaceOnUse" x1="281.6618" y1="159.0317" x2="281.6618" y2="114.9917">
				<stop  offset="0.0153" style="stop-color:#D3DAE0;stop-opacity:0"/>
				<stop  offset="1" style="stop-color:#D3DAE0"/>
			</linearGradient>
			<polygon class="st25" points="292.24,114.99 294.86,120.67 290.32,133.1 293.52,136.3 291.34,142.71 292.65,145.04 
				282.01,156.55 268.46,159.03 285.51,147.67 284.05,135.28 289.3,136.01 288.1,129.92 290.88,123.96 293.13,120.25 			"/>
			<linearGradient id="SVGID_24_" gradientUnits="userSpaceOnUse" x1="256.8224" y1="175.968" x2="256.8224" y2="141.6586">
				<stop  offset="0.0153" style="stop-color:#D3DAE0;stop-opacity:0"/>
				<stop  offset="1" style="stop-color:#D3DAE0"/>
			</linearGradient>
			<polygon class="st26" points="270.74,141.66 263.1,148.13 263.6,153.74 255.96,158.06 252.76,164.75 241.68,175.97 
				271.97,175.97 263.6,165.83 260.64,159.57 270.24,157.19 267.54,148.78 			"/>
			<linearGradient id="SVGID_25_" gradientUnits="userSpaceOnUse" x1="224.1336" y1="136.66" x2="222.1317" y2="99.3469">
				<stop  offset="0" style="stop-color:#D3DAE0;stop-opacity:0.1"/>
				<stop  offset="1" style="stop-color:#D3DAE0"/>
			</linearGradient>
			<polygon class="st27" points="221.34,98.76 221.71,103.77 223.57,106.55 224.12,114.9 221.34,117.32 224.12,122.7 220.23,136.24 
				226.17,122.14 225.05,118.24 226.35,105.63 223.57,103.77 			"/>
			<linearGradient id="SVGID_26_" gradientUnits="userSpaceOnUse" x1="239.6202" y1="145.6638" x2="236.8137" y2="93.353">
				<stop  offset="0" style="stop-color:#D3DAE0;stop-opacity:0.1"/>
				<stop  offset="1" style="stop-color:#D3DAE0"/>
			</linearGradient>
			<polygon class="st28" points="247.07,91.92 238.99,102.56 241.6,107.41 237.8,118.22 227.1,129.6 224.73,144.34 234,145.09 
				236.37,131.1 241.13,135.76 245.41,129.04 248.26,121.77 249.68,124.38 253.25,123.45 249.68,114.49 245.41,111.88 
				249.45,105.35 244.46,100.88 			"/>
		</g>
		<linearGradient id="SVGID_27_" gradientUnits="userSpaceOnUse" x1="159.7016" y1="183.8988" x2="159.7016" y2="150.6506">
			<stop  offset="0.0153" style="stop-color:#D3DAE0;stop-opacity:0"/>
			<stop  offset="1" style="stop-color:#D3DAE0"/>
		</linearGradient>
		<polygon class="st29" points="168.59,151.97 168.24,156.2 158.66,164.67 159.56,172.72 147,183.9 172.4,183.27 164.14,167.66 
			168.79,165.3 167.13,161.55 170.88,157.11 169.21,152.73 170.81,150.65 		"/>
	</g>
	<g id="Underwater" class="st30">
		<linearGradient id="SVGID_28_" gradientUnits="userSpaceOnUse" x1="248.5682" y1="338.7588" x2="333.3669" y2="338.7588">
			<stop  offset="5.102040e-03" style="stop-color:#366CA3"/>
			<stop  offset="1" style="stop-color:#3F749E;stop-opacity:0.6"/>
		</linearGradient>
		<polygon class="st31" points="258.04,342.61 261.84,364 267.39,369.79 268.07,376.33 270.93,380.86 274.64,398.4 281.9,407.04 
			287.52,376.59 293.48,370.55 294.82,362.49 301.08,358.72 304.95,338.96 308.1,342.61 309.17,333.29 325.51,317.54 333.37,270.48 
			248.57,270.48 250.97,331.03 		"/>
		<linearGradient id="SVGID_29_" gradientUnits="userSpaceOnUse" x1="161.3051" y1="344.0347" x2="176.2164" y2="260.5316">
			<stop  offset="0.0102" style="stop-color:#3C78B5"/>
			<stop  offset="0.5606" style="stop-color:#3E75A5;stop-opacity:0.7776"/>
			<stop  offset="1" style="stop-color:#3F749E;stop-opacity:0.6"/>
		</linearGradient>
		<polygon class="st32" points="134.33,230.74 129.33,258.48 142.47,292.22 142.47,318.46 202.82,376.18 181.17,319.53 
			184.4,288.47 		"/>
		<linearGradient id="SVGID_30_" gradientUnits="userSpaceOnUse" x1="205.7685" y1="404.8857" x2="216.8981" y2="342.5599">
			<stop  offset="0.0102" style="stop-color:#3C78B5"/>
			<stop  offset="0.5473" style="stop-color:#4A87BB"/>
			<stop  offset="1" style="stop-color:#518EBD"/>
		</linearGradient>
		<polygon class="st33" points="181.17,319.53 202.82,376.18 196.89,377.51 211.82,395.98 235.41,428.64 241.7,426.76 
			248.13,355.56 		"/>
		<linearGradient id="SVGID_31_" gradientUnits="userSpaceOnUse" x1="257.2614" y1="464.7432" x2="257.2614" y2="390.0648">
			<stop  offset="5.102040e-03" style="stop-color:#366CA3"/>
			<stop  offset="1" style="stop-color:#3F749E;stop-opacity:0.6"/>
		</linearGradient>
		<polygon class="st34" points="273.38,390.06 270.18,411.88 256.94,422.74 255.49,442.32 242.46,464.74 241.15,412.88 		"/>
		<linearGradient id="SVGID_32_" gradientUnits="userSpaceOnUse" x1="252.9298" y1="464.7432" x2="252.9298" y2="187.0633">
			<stop  offset="5.102040e-03" style="stop-color:#77A5D4"/>
			<stop  offset="0.9949" style="stop-color:#97BDDB"/>
		</linearGradient>
		<polygon class="st35" points="367.35,241.02 368.93,223.91 357.47,201.69 361.35,187.06 141.22,187.06 129.78,208.27 
			135.51,219.83 127.87,246.14 142.72,264.28 158,319.16 167.34,310.09 174.67,327.94 202.99,341.38 211.9,375.4 221.24,387.64 
			242.46,464.74 248.82,411.23 278.95,391.72 277.68,374.94 328.17,317.57 357.04,293.76 361.25,270.16 377.41,284.23 377.99,260.7 
					"/>
		<linearGradient id="SVGID_33_" gradientUnits="userSpaceOnUse" x1="313.4067" y1="411.2256" x2="313.4067" y2="187.0633">
			<stop  offset="5.102040e-03" style="stop-color:#366CA3"/>
			<stop  offset="1" style="stop-color:#3F749E;stop-opacity:0.6"/>
		</linearGradient>
		<path class="st36" d="M357.04,293.76l4.2-23.6l16.17,14.08l0.58-23.54l-10.64-19.68l1.58-17.1l-11.46-22.22l3.88-14.63h-72.68
			c-0.48,0.09-0.75,0-0.75,0l21.74,23.39l-1.04,19.53l-17.86,14.26l4.92,19.84l11.39,13.64l-16.37,5.15l-5.33,17.57l4.1,12.94
			l5.9,16.61l-13.4,12.85c0,0-7.76,20.78-8.54,21.4c-0.78,0.62-11.13,8.06-11.13,8.06l5.08,14.4l-14.65,11.33l-3.89,13.17
			l30.13-19.5l-1.27-16.78l50.49-57.37L357.04,293.76z"/>
		<linearGradient id="SVGID_34_" gradientUnits="userSpaceOnUse" x1="210.125" y1="394.3768" x2="210.125" y2="187.0633">
			<stop  offset="5.102040e-03" style="stop-color:#366CA3"/>
			<stop  offset="1" style="stop-color:#3F749E;stop-opacity:0.6"/>
		</linearGradient>
		<polyline class="st37" points="247.85,187.06 234.04,210.67 239.38,232.3 237.86,244.47 243.95,259.27 221.86,291.88 
			223.4,330.28 238.9,366.82 236.9,394.38 234.4,366.82 208.27,322.62 205.36,283.49 214.86,259.53 208.9,235.64 184.9,224.86 
			184.4,208.09 172.4,204.5 176.88,187.06 		"/>
		<linearGradient id="SVGID_35_" gradientUnits="userSpaceOnUse" x1="345.6996" y1="319.5254" x2="345.6996" y2="187.0633">
			<stop  offset="5.102040e-03" style="stop-color:#366CA3"/>
			<stop  offset="0.2796" style="stop-color:#3A70A1;stop-opacity:0.7057"/>
			<stop  offset="0.9377" style="stop-color:#3F749E;stop-opacity:0"/>
		</linearGradient>
		<polygon class="st38" points="377.41,284.23 377.99,260.7 367.35,241.02 368.93,223.91 357.47,201.69 361.35,187.06 
			333.41,187.06 334.56,205.43 355.56,229.23 340.58,246.11 348.95,273.52 313.41,319.53 328.17,317.57 357.04,293.76 
			361.25,270.16 		"/>
		<linearGradient id="SVGID_36_" gradientUnits="userSpaceOnUse" x1="165.308" y1="341.3158" x2="165.308" y2="216.7861">
			<stop  offset="5.102040e-03" style="stop-color:#366CA3"/>
			<stop  offset="0.2796" style="stop-color:#3A70A1;stop-opacity:0.7057"/>
			<stop  offset="0.9377" style="stop-color:#3F749E;stop-opacity:0"/>
		</linearGradient>
		<polygon class="st39" points="196.2,313.86 184.79,318.65 171.09,293.35 174.52,270.11 164.58,253.42 164.82,235.86 
			160.25,231.83 150.55,216.79 135.31,220.5 127.87,246.14 142.72,264.28 158,319.16 167.34,310.09 174.67,327.94 202.75,341.32 		
			"/>
		
			<linearGradient id="SVGID_37_" gradientUnits="userSpaceOnUse" x1="320.1238" y1="297.0083" x2="320.1238" y2="201.8397" gradientTransform="matrix(1.0119 -0.0119 0.0119 0.9881 -6.306 6.306)">
			<stop  offset="5.102040e-03" style="stop-color:#366CA3"/>
			<stop  offset="0.2796" style="stop-color:#3A70A1;stop-opacity:0.7057"/>
			<stop  offset="0.9377" style="stop-color:#3F749E;stop-opacity:0"/>
		</linearGradient>
		<polygon class="st40" points="328.68,204.51 336.09,231.32 321.22,277.19 308.17,296.12 316.24,267.47 304.99,257.84 
			320.45,235.61 311.7,202.03 		"/>
		<linearGradient id="SVGID_38_" gradientUnits="userSpaceOnUse" x1="259.4492" y1="440.9891" x2="259.4492" y2="288.8358">
			<stop  offset="5.102040e-03" style="stop-color:#366CA3"/>
			<stop  offset="0.2796" style="stop-color:#3A70A1;stop-opacity:0.7057"/>
			<stop  offset="0.9377" style="stop-color:#3F749E;stop-opacity:0"/>
		</linearGradient>
		<polygon class="st41" points="241.08,440.99 245.89,397.4 261.34,383.83 257.56,371.08 270.95,361.62 278.16,337.77 
			271.98,314.74 276.78,292.13 243.49,288.84 258.93,330.78 249.32,346.82 258.25,355.45 248.29,371.49 252.76,382.18 
			240.74,396.17 		"/>
		<linearGradient id="SVGID_39_" gradientUnits="userSpaceOnUse" x1="278.7771" y1="335.2843" x2="278.7771" y2="262.171">
			<stop  offset="5.102040e-03" style="stop-color:#366CA3"/>
			<stop  offset="0.2796" style="stop-color:#3A70A1;stop-opacity:0.7057"/>
			<stop  offset="0.9377" style="stop-color:#3F749E;stop-opacity:0"/>
		</linearGradient>
		<polygon class="st42" points="283.39,335.28 289.02,327.46 281.59,301.02 289.47,280.79 285.2,266.22 268.08,262.17 282.04,281.6 
			274.16,301.29 286.55,326.38 		"/>
		<linearGradient id="SVGID_40_" gradientUnits="userSpaceOnUse" x1="250.5247" y1="359.4245" x2="250.5247" y2="204.2771">
			<stop  offset="5.102040e-03" style="stop-color:#366CA3"/>
			<stop  offset="0.2796" style="stop-color:#3A70A1;stop-opacity:0.7057"/>
			<stop  offset="0.9377" style="stop-color:#3F749E;stop-opacity:0"/>
		</linearGradient>
		<path class="st43" d="M244.23,359.42l-12.55-25.21l-4.45-36.36l17-15.51l6.48-31.03l-4.05-19.88l1.21-27.15
			c0,0,27.12,16,25.9,15.51c-1.21-0.48-1.21,48.48-1.21,48.48l-29.14,29.58l3.64,11.15l-10.52,16.48L244.23,359.42z"/>
		<linearGradient id="SVGID_41_" gradientUnits="userSpaceOnUse" x1="145.5441" y1="308.8488" x2="145.5441" y2="206.6745">
			<stop  offset="5.102040e-03" style="stop-color:#366CA3"/>
			<stop  offset="0.2796" style="stop-color:#3A70A1;stop-opacity:0.7057"/>
			<stop  offset="0.9377" style="stop-color:#3F749E;stop-opacity:0"/>
		</linearGradient>
		<polygon class="st44" points="132.82,244.5 144.6,258.04 158.27,308.85 150.49,260.02 143.19,250.42 151.67,242.52 153.32,206.67 
			140.36,213.45 142.95,232.64 		"/>
		<linearGradient id="SVGID_42_" gradientUnits="userSpaceOnUse" x1="273.562" y1="283.0448" x2="273.562" y2="187.0633">
			<stop  offset="5.102040e-03" style="stop-color:#366CA3"/>
			<stop  offset="1" style="stop-color:#3F749E;stop-opacity:0.6"/>
		</linearGradient>
		<path class="st45" d="M256.35,194.73v18.61l12.32,5.84l-5.28,20.8l8.8,19.34l-7.92,23.72l21.99-25.55l-10.12-14.23
			c0,0,21.11-29.2,19.36-29.2c-1.76,0-13.64-12.41-13.64-12.41l2.2-14.6h-32.55L256.35,194.73z"/>
		
			<linearGradient id="SVGID_43_" gradientUnits="userSpaceOnUse" x1="166.909" y1="275.7322" x2="166.909" y2="187.172" gradientTransform="matrix(1 0 0.1405 1 -31.6498 0)">
			<stop  offset="5.102040e-03" style="stop-color:#366CA3"/>
			<stop  offset="1" style="stop-color:#3F749E;stop-opacity:0.6"/>
		</linearGradient>
		<path class="st46" d="M166.42,233.91l1.36,14.27l13.02,15.62c0,0,0.14,11.44,0.25,11.93c0.11,0.49,4.07-15.25,4.07-15.25
			l-5.32-11.07l1.94-12.42l-8.52-12.42l0.71-10.45l-10.16-9.47l-0.69-17.46l-10.02,0.12l-2.56,15.62l9.24,23.49l-1.51,6.76
			L166.42,233.91z"/>
		<linearGradient id="SVGID_44_" gradientUnits="userSpaceOnUse" x1="197.8457" y1="315.4278" x2="197.8457" y2="237.1616">
			<stop  offset="5.102040e-03" style="stop-color:#366CA3"/>
			<stop  offset="0.2796" style="stop-color:#3A70A1;stop-opacity:0.7057"/>
			<stop  offset="0.9377" style="stop-color:#3F749E;stop-opacity:0"/>
		</linearGradient>
		<polygon class="st47" points="210.12,259.37 206.41,239.28 200.94,237.16 192.81,244.99 200.94,264.66 192.64,287.51 
			197.93,300.41 185.57,315.43 196.52,306.97 201.29,299.99 197.76,282.85 		"/>
	</g>
	<g id="Bubble1_1_">
		<linearGradient id="SVGID_45_" gradientUnits="userSpaceOnUse" x1="252.9341" y1="348.9515" x2="252.9341" y2="207.4332">
			<stop  offset="5.102040e-03" style="stop-color:#FFFFFF;stop-opacity:0.2"/>
			<stop  offset="0.9949" style="stop-color:#FFFFFF"/>
		</linearGradient>
		<path class="st48" d="M124.34,216.64c-0.44,0.03-0.77,0.41-0.74,0.85c0.03,0.44,0.41,0.77,0.85,0.74
			c0.44-0.03,0.77-0.41,0.74-0.85C125.16,216.94,124.78,216.61,124.34,216.64z M117.27,268.26c-0.94,0.06-1.65,0.87-1.59,1.82
			c0.06,0.94,0.87,1.65,1.82,1.59c0.94-0.06,1.65-0.87,1.59-1.82C119.03,268.92,118.21,268.2,117.27,268.26z M100.5,291.7
			c-0.82,0.05-1.45,0.77-1.39,1.59c0.05,0.82,0.77,1.45,1.59,1.39c0.82-0.05,1.45-0.77,1.39-1.59
			C102.04,292.27,101.32,291.64,100.5,291.7z M104.75,259.97c-0.44,0.03-0.77,0.41-0.74,0.85c0.03,0.44,0.41,0.77,0.85,0.74
			c0.44-0.03,0.77-0.41,0.74-0.85C105.57,260.28,105.19,259.94,104.75,259.97z M119.98,324.56c-0.54,0.04-0.95,0.5-0.91,1.04
			c0.04,0.54,0.5,0.95,1.04,0.91c0.54-0.04,0.95-0.5,0.91-1.04C120.98,324.94,120.52,324.53,119.98,324.56z M128.43,253.84
			c-1.14,0.07-2.01,1.06-1.93,2.2c0.07,1.14,1.06,2.01,2.2,1.93c1.14-0.07,2.01-1.06,1.93-2.2
			C130.56,254.63,129.57,253.77,128.43,253.84z M126.24,278.51c-1.14,0.07-2.01,1.06-1.93,2.2c0.07,1.14,1.06,2.01,2.2,1.93
			c1.14-0.07,2.01-1.06,1.93-2.2C128.37,279.3,127.38,278.44,126.24,278.51z M74.94,258.94c-0.06-0.94-0.87-1.65-1.82-1.59
			c-0.94,0.06-1.65,0.87-1.59,1.82c0.06,0.94,0.87,1.65,1.82,1.59C74.29,260.7,75,259.89,74.94,258.94z M84.1,228.38
			c-0.94,0.06-1.65,0.87-1.59,1.82c0.06,0.94,0.87,1.65,1.82,1.59c0.94-0.06,1.65-0.87,1.59-1.82
			C85.85,229.03,85.04,228.32,84.1,228.38z M91.69,262.21c-0.62,0.04-1.09,0.57-1.05,1.19c0.04,0.62,0.57,1.09,1.19,1.05
			c0.62-0.04,1.09-0.57,1.05-1.19C92.84,262.64,92.31,262.17,91.69,262.21z M91.71,248.6c-0.44,0.03-0.77,0.41-0.74,0.85
			c0.03,0.44,0.41,0.77,0.85,0.74c0.44-0.03,0.77-0.41,0.74-0.85C92.53,248.9,92.15,248.57,91.71,248.6z M99.28,236.36
			c-1.17,0.08-2.05,1.08-1.98,2.25c0.08,1.17,1.08,2.05,2.25,1.98c1.17-0.08,2.05-1.08,1.98-2.25
			C101.45,237.17,100.45,236.28,99.28,236.36z M110.08,214.74c-0.06-0.91-0.84-1.6-1.75-1.54c-0.91,0.06-1.6,0.84-1.54,1.75
			c0.06,0.91,0.84,1.6,1.75,1.54C109.45,216.44,110.14,215.65,110.08,214.74z M123.51,243.99c-0.62,0.04-1.09,0.57-1.05,1.19
			c0.04,0.62,0.57,1.09,1.19,1.05c0.62-0.04,1.09-0.57,1.05-1.19C124.66,244.42,124.13,243.95,123.51,243.99z M407.37,267.76
			c-0.56,0-1.02,0.46-1.02,1.02c0,0.56,0.46,1.02,1.02,1.02c0.56,0,1.02-0.46,1.02-1.02C408.39,268.22,407.93,267.76,407.37,267.76z
			 M398.34,219.34c0-1.47-1.19-2.66-2.66-2.66c-1.47,0-2.66,1.19-2.66,2.66c0,1.47,1.19,2.66,2.66,2.66
			C397.15,221.99,398.34,220.8,398.34,219.34z M411.57,249.91c-0.56,0-1.02,0.46-1.02,1.02c0,0.56,0.46,1.02,1.02,1.02
			c0.56,0,1.02-0.46,1.02-1.02C412.59,250.36,412.14,249.91,411.57,249.91z M408.64,226.87c-1.21,0-2.19,0.98-2.19,2.19
			c0,1.21,0.98,2.19,2.19,2.19c1.21,0,2.19-0.98,2.19-2.19C410.82,227.85,409.84,226.87,408.64,226.87z M425.56,208.87
			c0-0.79-0.64-1.44-1.44-1.44c-0.79,0-1.44,0.64-1.44,1.44s0.64,1.44,1.44,1.44C424.92,210.31,425.56,209.66,425.56,208.87z
			 M117.53,309.45c-0.62,0.04-1.09,0.57-1.05,1.19c0.04,0.62,0.57,1.09,1.19,1.05c0.62-0.04,1.09-0.57,1.05-1.19
			C118.68,309.88,118.15,309.41,117.53,309.45z M414.69,215.81c-0.79,0-1.44,0.64-1.44,1.44c0,0.79,0.64,1.44,1.44,1.44
			c0.79,0,1.44-0.64,1.44-1.44C416.13,216.46,415.49,215.81,414.69,215.81z M432.15,235.26c-1.21,0-2.19,0.98-2.19,2.19
			c0,1.21,0.98,2.19,2.19,2.19c1.21,0,2.19-0.98,2.19-2.19C434.34,236.24,433.36,235.26,432.15,235.26z M135.54,311.89
			c-0.62,0.04-1.09,0.57-1.05,1.19c0.04,0.62,0.57,1.09,1.19,1.05c0.62-0.04,1.09-0.57,1.05-1.19
			C136.69,312.31,136.16,311.85,135.54,311.89z M103.01,316.07c-0.44,0.03-0.77,0.41-0.74,0.85c0.03,0.44,0.41,0.77,0.85,0.74
			c0.44-0.03,0.77-0.41,0.74-0.85C103.83,316.37,103.45,316.04,103.01,316.07z M337.92,330.19c-1.06,0-1.91,0.86-1.91,1.91
			c0,1.06,0.86,1.91,1.91,1.91c1.06,0,1.91-0.86,1.91-1.91C339.84,331.05,338.98,330.19,337.92,330.19z M354.04,346.44
			c-0.69,0-1.26,0.56-1.26,1.26s0.56,1.26,1.26,1.26c0.69,0,1.26-0.56,1.26-1.26S354.74,346.44,354.04,346.44z M344.86,310.64
			c-0.79,0-1.44,0.64-1.44,1.44c0,0.79,0.64,1.44,1.44,1.44c0.79,0,1.44-0.64,1.44-1.44C346.3,311.29,345.66,310.64,344.86,310.64z
			 M373.61,325.93c-2.07,0-3.75,1.68-3.75,3.75c0,2.07,1.68,3.75,3.75,3.75c2.07,0,3.75-1.68,3.75-3.75
			C377.36,327.61,375.68,325.93,373.61,325.93z M376.12,294.74c-0.79,0-1.44,0.64-1.44,1.44c0,0.79,0.64,1.44,1.44,1.44
			c0.79,0,1.44-0.64,1.44-1.44C377.56,295.38,376.91,294.74,376.12,294.74z"/>
		
			<linearGradient id="SVGID_46_" gradientUnits="userSpaceOnUse" x1="621.9482" y1="423.2757" x2="621.9482" y2="330.2824" gradientTransform="matrix(-1 0 0 1 800.1129 0)">
			<stop  offset="5.102040e-03" style="stop-color:#FFFFFF;stop-opacity:0.2"/>
			<stop  offset="0.9949" style="stop-color:#FFFFFF"/>
		</linearGradient>
		<path class="st49" d="M174.12,385.34c0.45,0,0.82,0.37,0.82,0.82c0,0.45-0.37,0.82-0.82,0.82c-0.45,0-0.82-0.37-0.82-0.82
			C173.3,385.71,173.66,385.34,174.12,385.34z M135.13,343.99c0-1.18,0.96-2.14,2.14-2.14s2.14,0.96,2.14,2.14s-0.96,2.14-2.14,2.14
			S135.13,345.17,135.13,343.99z M170.73,370.98c0.45,0,0.82,0.37,0.82,0.82c0,0.45-0.37,0.82-0.82,0.82
			c-0.45,0-0.82-0.37-0.82-0.82C169.91,371.34,170.28,370.98,170.73,370.98z M178.01,358.45c0.97,0,1.76,0.79,1.76,1.76
			c0,0.97-0.79,1.76-1.76,1.76c-0.97,0-1.76-0.79-1.76-1.76C176.25,359.24,177.04,358.45,178.01,358.45z M155.78,331.44
			c0-0.64,0.52-1.16,1.16-1.16c0.64,0,1.16,0.52,1.16,1.16c0,0.64-0.52,1.16-1.16,1.16C156.29,332.59,155.78,332.08,155.78,331.44z
			 M169.71,344.97c0.64,0,1.16,0.52,1.16,1.16c0,0.64-0.52,1.16-1.16,1.16c-0.64,0-1.16-0.52-1.16-1.16
			C168.55,345.49,169.07,344.97,169.71,344.97z M154.17,359.19c0.97,0,1.76,0.79,1.76,1.76c0,0.97-0.79,1.76-1.76,1.76
			c-0.97,0-1.76-0.79-1.76-1.76C152.41,359.98,153.2,359.19,154.17,359.19z M219.66,408.18c0.85,0,1.54,0.69,1.54,1.54
			s-0.69,1.54-1.54,1.54c-0.85,0-1.54-0.69-1.54-1.54S218.8,408.18,219.66,408.18z M206.69,421.25c0.56,0,1.01,0.45,1.01,1.01
			c0,0.56-0.45,1.01-1.01,1.01c-0.56,0-1.01-0.45-1.01-1.01C205.68,421.71,206.13,421.25,206.69,421.25z M205.97,385.7
			c0.64,0,1.16,0.52,1.16,1.16s-0.52,1.16-1.16,1.16c-0.64,0-1.16-0.52-1.16-1.16S205.33,385.7,205.97,385.7z M190.94,404.76
			c1.67,0,3.02,1.35,3.02,3.02c0,1.67-1.35,3.02-3.02,3.02s-3.02-1.35-3.02-3.02C187.93,406.11,189.28,404.76,190.94,404.76z
			 M184.45,383.56c0.64,0,1.16,0.52,1.16,1.16c0,0.64-0.52,1.16-1.16,1.16c-0.64,0-1.16-0.52-1.16-1.16
			C183.3,384.08,183.82,383.56,184.45,383.56z"/>
		
			<linearGradient id="SVGID_47_" gradientUnits="userSpaceOnUse" x1="295.4681" y1="429.866" x2="295.4681" y2="304.6423" gradientTransform="matrix(-1 0 0 1 612.5532 0)">
			<stop  offset="5.102040e-03" style="stop-color:#FFFFFF;stop-opacity:0.2"/>
			<stop  offset="0.9949" style="stop-color:#FFFFFF"/>
		</linearGradient>
		<path class="st50" d="M319.25,335.24c0.34-1.3,1.67-2.08,2.97-1.74c1.3,0.34,2.08,1.67,1.74,2.97c-0.34,1.3-1.67,2.08-2.97,1.74
			C319.69,337.87,318.91,336.54,319.25,335.24z M310.38,347.1c1.12,0.29,1.78,1.43,1.49,2.55c-0.29,1.12-1.43,1.78-2.55,1.49
			s-1.78-1.43-1.49-2.55C308.12,347.47,309.26,346.8,310.38,347.1z M306.35,370.93c0.3,0.08,0.49,0.39,0.41,0.69
			s-0.39,0.49-0.69,0.41c-0.3-0.08-0.49-0.39-0.41-0.69C305.73,371.03,306.04,370.85,306.35,370.93z M315.18,374.26
			c0.43,0.11,0.68,0.55,0.57,0.98c-0.11,0.43-0.55,0.68-0.98,0.57c-0.43-0.11-0.68-0.55-0.57-0.98
			C314.32,374.41,314.76,374.15,315.18,374.26z M341.56,347.95c0.3,0.08,0.49,0.39,0.41,0.69c-0.08,0.3-0.39,0.49-0.69,0.41
			c-0.3-0.08-0.49-0.39-0.41-0.69S341.25,347.87,341.56,347.95z M325.08,351.61c0.65,0.17,1.04,0.84,0.87,1.49
			c-0.17,0.65-0.84,1.04-1.49,0.87c-0.65-0.17-1.04-0.84-0.87-1.49C323.76,351.83,324.43,351.44,325.08,351.61z M317.01,364.73
			c0.3,0.08,0.49,0.39,0.41,0.69c-0.08,0.3-0.39,0.48-0.69,0.41c-0.3-0.08-0.49-0.39-0.41-0.69
			C316.4,364.83,316.71,364.65,317.01,364.73z M354.03,305.55c0.17-0.65,0.84-1.04,1.49-0.87c0.65,0.17,1.04,0.84,0.87,1.49
			c-0.17,0.65-0.84,1.04-1.49,0.87C354.25,306.87,353.86,306.2,354.03,305.55z M334.58,319.21c0.34-1.3,1.67-2.08,2.97-1.74
			c1.3,0.34,2.08,1.67,1.74,2.97c-0.34,1.3-1.67,2.08-2.97,1.74C335.02,321.84,334.24,320.51,334.58,319.21z M283.31,415.51
			c0.43,0.11,0.68,0.55,0.57,0.98c-0.11,0.43-0.55,0.68-0.98,0.57c-0.43-0.11-0.68-0.55-0.57-0.98
			C282.45,415.66,282.88,415.4,283.31,415.51z M279.03,428.75c0.3,0.08,0.49,0.39,0.41,0.69c-0.08,0.3-0.39,0.49-0.69,0.41
			c-0.3-0.08-0.49-0.39-0.41-0.69S278.73,428.67,279.03,428.75z M286.19,397.32c0.79,0.21,1.26,1.01,1.06,1.8
			c-0.21,0.79-1.02,1.26-1.8,1.06c-0.79-0.21-1.26-1.01-1.06-1.8C284.59,397.58,285.4,397.11,286.19,397.32z M277.77,405.36
			c0.11-0.43,0.55-0.68,0.98-0.57c0.43,0.11,0.68,0.55,0.57,0.98c-0.11,0.43-0.55,0.68-0.98,0.57
			C277.92,406.22,277.66,405.79,277.77,405.36z M287.57,421.23c0.37,0.1,0.6,0.48,0.5,0.85c-0.1,0.37-0.48,0.6-0.85,0.5
			s-0.6-0.48-0.5-0.85C286.81,421.35,287.19,421.13,287.57,421.23z M291.3,408.34c0.57,0.15,0.91,0.73,0.76,1.3
			c-0.15,0.57-0.73,0.91-1.3,0.76c-0.57-0.15-0.91-0.73-0.76-1.3C290.15,408.53,290.73,408.19,291.3,408.34z M328.89,361.95
			c0.43,0.11,0.68,0.55,0.57,0.98c-0.11,0.43-0.55,0.68-0.98,0.57c-0.43-0.11-0.68-0.55-0.57-0.98
			C328.02,362.1,328.46,361.84,328.89,361.95z M324.11,368.18c0.79,0.21,1.26,1.02,1.06,1.8c-0.21,0.79-1.02,1.26-1.81,1.06
			c-0.79-0.21-1.26-1.02-1.06-1.8C322.51,368.45,323.32,367.98,324.11,368.18z M296.46,375.04c0.65,0.17,1.04,0.84,0.87,1.49
			c-0.17,0.65-0.84,1.04-1.49,0.87c-0.65-0.17-1.04-0.84-0.87-1.49C295.14,375.26,295.81,374.87,296.46,375.04z"/>
	</g>
	<g id="Cloud2">
		<linearGradient id="SVGID_48_" gradientUnits="userSpaceOnUse" x1="436.729" y1="187.186" x2="436.729" y2="119.4237">
			<stop  offset="0.199" style="stop-color:#FFFFFF;stop-opacity:0.2"/>
			<stop  offset="0.9949" style="stop-color:#FFFFFF"/>
		</linearGradient>
		<path class="st51" d="M500,129.17c-5.99-6.02-14.27-9.75-23.44-9.75c-14.45,0-26.71,9.26-31.25,22.16
			c-3.32-2.03-7.2-3.22-11.38-3.22c-10.86,0-19.85,7.93-21.55,18.31c-1.03-0.3-2.11-0.46-3.23-0.46c-6.44,0-11.66,5.22-11.66,11.66
			c0,0.21,0.02,0.41,0.03,0.62c-1.53-0.39-3.12-0.62-4.77-0.62c-10.66,0-19.31,8.64-19.31,19.31H500V129.17z"/>
		<linearGradient id="SVGID_49_" gradientUnits="userSpaceOnUse" x1="87.0853" y1="113.458" x2="87.0853" y2="81.6774">
			<stop  offset="5.102040e-03" style="stop-color:#FFFFFF;stop-opacity:0.2"/>
			<stop  offset="0.9949" style="stop-color:#FFFFFF"/>
		</linearGradient>
		<path class="st52" d="M122.9,101.27c-1.43,0-2.79,0.26-4.07,0.71c-0.69-4.69-4.72-8.29-9.6-8.29c-2.36,0-4.52,0.84-6.2,2.23
			c-1.41-1.86-3.64-3.06-6.15-3.06c-0.68,0-1.34,0.1-1.97,0.26c-2.34-6.67-8.68-11.46-16.15-11.46c-7.89,0-14.51,5.34-16.5,12.6
			c-1.54-0.89-3.33-1.4-5.24-1.4c-5.82,0-10.54,4.72-10.54,10.54c0,0.79,0.1,1.56,0.26,2.31c-4.24,0.04-7.67,3.48-7.67,7.74h96
			C135.09,106.73,129.63,101.27,122.9,101.27z"/>
	</g>
	<g id="Cloud3">
		<linearGradient id="SVGID_50_" gradientUnits="userSpaceOnUse" x1="433.6661" y1="96.2207" x2="433.6661" y2="68.0663">
			<stop  offset="5.102040e-03" style="stop-color:#FFFFFF;stop-opacity:0.2"/>
			<stop  offset="0.9949" style="stop-color:#FFFFFF"/>
		</linearGradient>
		<path class="st53" d="M462.79,89.37c0.91-1.16,1.45-2.61,1.45-4.19c0-3.76-3.05-6.81-6.81-6.81c-0.66,0-1.3,0.1-1.9,0.28
			c-1.45-6.06-6.88-10.57-13.38-10.57c-6,0-11.1,3.85-12.98,9.21c-1.38-0.84-2.99-1.34-4.73-1.34c-4.51,0-8.25,3.3-8.95,7.61
			c-0.43-0.12-0.88-0.19-1.34-0.19c-2.68,0-4.84,2.17-4.84,4.84c0,0.09,0.01,0.17,0.01,0.26c-0.63-0.16-1.3-0.26-1.98-0.26
			c-4.43,0-8.02,3.59-8.02,8.02h68.72C468.03,92.94,465.81,90.19,462.79,89.37z"/>
	</g>
	<g id="fish5">
		<path class="st54" d="M413.89,295.43l1.1,0.58c0.55-0.34,2.89-1.69,5.02-1.69c2.43,0,3.66,1.77,3.66,1.77s-1.23,1.77-3.66,1.77
			c-2.13,0-4.47-1.36-5.02-1.69l-1.1,0.58V295.43z"/>
		<path class="st54" d="M402.62,293.74l0.98,0.52c0.49-0.3,2.58-1.51,4.48-1.51c2.17,0,3.26,1.58,3.26,1.58s-1.1,1.58-3.26,1.58
			c-1.9,0-3.99-1.21-4.48-1.51l-0.98,0.52V293.74z"/>
		<path class="st54" d="M407.07,301.08l0.98,0.52c0.49-0.3,2.58-1.51,4.48-1.51c2.17,0,3.26,1.58,3.26,1.58s-1.1,1.58-3.26,1.58
			c-1.9,0-3.99-1.21-4.48-1.51l-0.98,0.52V301.08z"/>
		<path class="st54" d="M411.66,290.88l0.91,0.48c0.45-0.28,2.39-1.4,4.14-1.4c2.01,0,3.02,1.46,3.02,1.46s-1.01,1.46-3.02,1.46
			c-1.76,0-3.69-1.12-4.14-1.4l-0.91,0.48V290.88z"/>
		<path class="st54" d="M389.51,296l0.91,0.48c0.45-0.28,2.39-1.4,4.14-1.4c2.01,0,3.02,1.46,3.02,1.46s-1.01,1.46-3.02,1.46
			c-1.76,0-3.69-1.12-4.14-1.4l-0.91,0.48V296z"/>
		<path class="st54" d="M401.44,288.92l0.91,0.48c0.45-0.28,2.39-1.4,4.14-1.4c2.01,0,3.02,1.46,3.02,1.46s-1.01,1.46-3.02,1.46
			c-1.76,0-3.69-1.12-4.14-1.4l-0.91,0.48V288.92z"/>
		<path class="st54" d="M394.62,291.83l0.77,0.41c0.39-0.24,2.04-1.19,3.54-1.19c1.71,0,2.58,1.25,2.58,1.25s-0.87,1.25-2.58,1.25
			c-1.5,0-3.15-0.96-3.54-1.19l-0.77,0.41V291.83z"/>
		<path class="st54" d="M400.12,298.26l0.77,0.41c0.39-0.24,2.04-1.19,3.54-1.19c1.71,0,2.58,1.25,2.58,1.25s-0.87,1.25-2.58,1.25
			c-1.5,0-3.15-0.96-3.54-1.19l-0.77,0.41V298.26z"/>
	</g>
	<g id="fish4" class="st55">
		<path class="st54" d="M164.39,239.06l0.7,0.37c0.35-0.21,1.83-1.07,3.18-1.07c1.54,0,2.32,1.12,2.32,1.12s-0.78,1.12-2.32,1.12
			c-1.35,0-2.84-0.86-3.18-1.07l-0.7,0.37V239.06z"/>
		<path class="st54" d="M157.25,237.99l0.62,0.33c0.31-0.19,1.64-0.96,2.84-0.96c1.37,0,2.07,1,2.07,1s-0.69,1-2.07,1
			c-1.2,0-2.53-0.77-2.84-0.96l-0.62,0.33V237.99z"/>
		<path class="st54" d="M160.07,242.64l0.62,0.33c0.31-0.19,1.64-0.96,2.84-0.96c1.37,0,2.07,1,2.07,1s-0.69,1-2.07,1
			c-1.2,0-2.53-0.77-2.84-0.96l-0.62,0.33V242.64z"/>
		<path class="st54" d="M162.98,236.18l0.57,0.31c0.29-0.18,1.51-0.89,2.63-0.89c1.27,0,1.91,0.93,1.91,0.93s-0.64,0.93-1.91,0.93
			c-1.11,0-2.34-0.71-2.63-0.89l-0.57,0.31V236.18z"/>
		<path class="st54" d="M148.94,239.42l0.57,0.31c0.29-0.18,1.51-0.89,2.63-0.89c1.27,0,1.91,0.93,1.91,0.93s-0.64,0.93-1.91,0.93
			c-1.11,0-2.34-0.71-2.63-0.89l-0.57,0.31V239.42z"/>
		<path class="st54" d="M156.5,234.93l0.57,0.31c0.29-0.18,1.51-0.89,2.63-0.89c1.27,0,1.91,0.92,1.91,0.92s-0.64,0.93-1.91,0.93
			c-1.11,0-2.34-0.71-2.63-0.89l-0.57,0.31V234.93z"/>
		<path class="st54" d="M152.18,236.78l0.49,0.26c0.24-0.15,1.29-0.76,2.24-0.76c1.09,0,1.63,0.79,1.63,0.79s-0.55,0.79-1.63,0.79
			c-0.95,0-2-0.61-2.24-0.76l-0.49,0.26V236.78z"/>
		<path class="st54" d="M155.67,240.85l0.49,0.26c0.24-0.15,1.29-0.76,2.24-0.76c1.09,0,1.63,0.79,1.63,0.79s-0.55,0.79-1.63,0.79
			c-0.95,0-2-0.61-2.24-0.76l-0.49,0.26V240.85z"/>
	</g>
	<g id="fish3" class="st55">
		<path class="st54" d="M116.63,380.1l1.1,0.59c0.55-0.34,2.9-1.7,5.03-1.7c2.43,0,3.66,1.77,3.66,1.77s-1.23,1.77-3.66,1.77
			c-2.13,0-4.48-1.36-5.03-1.7l-1.1,0.59V380.1z"/>
		<path class="st54" d="M112.09,384.85l0.87,0.47c0.44-0.27,2.3-1.35,4-1.35c1.93,0,2.91,1.41,2.91,1.41s-0.98,1.41-2.91,1.41
			c-1.7,0-3.56-1.08-4-1.35l-0.87,0.47V384.85z"/>
		<path class="st54" d="M101.4,380.53l0.98,0.52c0.49-0.3,2.58-1.51,4.47-1.51c2.16,0,3.26,1.57,3.26,1.57s-1.09,1.57-3.26,1.57
			c-1.9,0-3.99-1.21-4.47-1.51l-0.98,0.52V380.53z"/>
		<path class="st54" d="M109.77,375.96l0.83,0.44c0.42-0.26,2.2-1.29,3.82-1.29c1.85,0,2.78,1.34,2.78,1.34s-0.93,1.34-2.78,1.34
			c-1.62,0-3.4-1.03-3.82-1.29l-0.83,0.44V375.96z"/>
		<path class="st54" d="M123.4,385.36l0.83,0.44c0.42-0.26,2.2-1.29,3.82-1.29c1.85,0,2.78,1.34,2.78,1.34s-0.93,1.34-2.78,1.34
			c-1.62,0-3.4-1.03-3.82-1.29l-0.83,0.44V385.36z"/>
		<path class="st54" d="M102.03,388.06l0.77,0.41c0.39-0.24,2.04-1.19,3.53-1.19c1.71,0,2.57,1.24,2.57,1.24s-0.86,1.24-2.57,1.24
			c-1.5,0-3.15-0.96-3.53-1.19l-0.77,0.41V388.06z"/>
		<path class="st54" d="M121.77,374.17l0.81,0.43c0.4-0.25,2.14-1.25,3.71-1.25c1.79,0,2.7,1.31,2.7,1.31s-0.91,1.31-2.7,1.31
			c-1.57,0-3.31-1-3.71-1.25l-0.81,0.43V374.17z"/>
	</g>
	<g id="fish2">
		<path class="st54" d="M277.51,340.66l0.93,0.5c0.46-0.28,2.45-1.44,4.26-1.44c2.06,0,3.1,1.5,3.1,1.5s-1.04,1.5-3.1,1.5
			c-1.8,0-3.79-1.15-4.26-1.44l-0.93,0.5V340.66z"/>
		<path class="st54" d="M273.66,344.68l0.74,0.39c0.37-0.23,1.95-1.14,3.39-1.14c1.64,0,2.47,1.19,2.47,1.19s-0.83,1.19-2.47,1.19
			c-1.44,0-3.02-0.92-3.39-1.14l-0.74,0.39V344.68z"/>
		<path class="st54" d="M264.61,341.03l0.83,0.44c0.41-0.25,2.18-1.28,3.79-1.28c1.83,0,2.76,1.33,2.76,1.33s-0.93,1.33-2.76,1.33
			c-1.61,0-3.37-1.02-3.79-1.28l-0.83,0.44V341.03z"/>
		<path class="st54" d="M271.7,337.16l0.71,0.38c0.35-0.22,1.86-1.09,3.23-1.09c1.56,0,2.35,1.14,2.35,1.14s-0.79,1.14-2.35,1.14
			c-1.37,0-2.88-0.87-3.23-1.09l-0.71,0.38V337.16z"/>
		<path class="st54" d="M281.86,335.64l0.69,0.37c0.34-0.21,1.81-1.06,3.14-1.06c1.52,0,2.29,1.11,2.29,1.11s-0.77,1.11-2.29,1.11
			c-1.33,0-2.8-0.85-3.14-1.06l-0.69,0.37V335.64z"/>
	</g>
	<g id="fish1">
		<path class="st56" d="M71.78,319.04l0.76,0.4c0.38-0.23,1.99-1.17,3.46-1.17c1.67,0,2.52,1.22,2.52,1.22s-0.85,1.22-2.52,1.22
			c-1.47,0-3.08-0.93-3.46-1.17l-0.76,0.4V319.04z"/>
		<path class="st56" d="M70.01,323.66l0.6,0.32c0.3-0.18,1.58-0.93,2.75-0.93c1.33,0,2,0.97,2,0.97s-0.67,0.97-2,0.97
			c-1.17,0-2.45-0.74-2.75-0.93l-0.6,0.32V323.66z"/>
		<path class="st56" d="M58.93,323.81l0.6,0.32c0.3-0.18,1.58-0.93,2.75-0.93c1.33,0,2,0.97,2,0.97s-0.67,0.97-2,0.97
			c-1.17,0-2.45-0.74-2.75-0.93l-0.6,0.32V323.81z"/>
		<path class="st56" d="M61.15,317.98l0.67,0.36c0.34-0.21,1.77-1.04,3.08-1.04c1.49,0,2.24,1.08,2.24,1.08s-0.75,1.08-2.24,1.08
			c-1.3,0-2.74-0.83-3.08-1.04l-0.67,0.36V317.98z"/>
		<path class="st56" d="M75.31,315.04l0.67,0.36c0.34-0.21,1.77-1.04,3.08-1.04c1.49,0,2.24,1.08,2.24,1.08s-0.75,1.08-2.24,1.08
			c-1.3,0-2.74-0.83-3.08-1.04l-0.67,0.36V315.04z"/>
		<path class="st56" d="M68.86,316.72l0.57,0.31c0.29-0.18,1.51-0.89,2.63-0.89c1.27,0,1.91,0.92,1.91,0.92s-0.64,0.92-1.91,0.92
			c-1.11,0-2.34-0.71-2.63-0.89l-0.57,0.31V316.72z"/>
		<path class="st56" d="M65.02,320.49l0.57,0.31c0.29-0.18,1.51-0.89,2.63-0.89c1.27,0,1.91,0.92,1.91,0.92s-0.64,0.92-1.91,0.92
			c-1.11,0-2.34-0.71-2.63-0.89l-0.57,0.31V320.49z"/>
		<path class="st56" d="M64.84,314.43l0.56,0.3c0.28-0.17,1.47-0.86,2.55-0.86c1.23,0,1.86,0.9,1.86,0.9s-0.62,0.9-1.86,0.9
			c-1.08,0-2.27-0.69-2.55-0.86l-0.56,0.3V314.43z"/>
	</g>
	<g id="Ship">
		<polygon class="st57" points="95.77,169.21 104.55,169.21 101.81,162.02 95.77,162.02 		"/>
		<rect x="95.54" y="165.98" class="st58" width="8.44" height="1.45"/>
		<rect x="95.54" y="163.48" class="st58" width="7.9" height="1.07"/>
		<rect x="95.54" y="161.44" class="st58" width="6.77" height="1.07"/>
		<rect x="104.92" y="160.85" class="st59" width="0.31" height="6.76"/>
		<rect x="104.51" y="160.52" class="st58" width="1.13" height="0.66"/>
		<rect x="104.44" y="165.99" class="st58" width="1.28" height="1.56"/>
		<polygon class="st57" points="106.32,177.47 113.76,177.47 111.76,172.54 106.32,172.54 		"/>
		
			<rect x="107.9" y="168.01" transform="matrix(0.9796 -0.201 0.201 0.9796 -31.4329 26.773)" class="st60" width="16.39" height="0.28"/>
		<rect x="107.5" y="169.41" class="st61" width="17" height="0.56"/>
		<rect x="123.74" y="165.52" class="st62" width="1.81" height="8.25"/>
		<polygon class="st61" points="127.03,177.95 123.02,177.95 123.02,172.29 125.68,172.29 127.03,174.21 		"/>
		<rect x="119.47" y="176.92" class="st63" width="9.76" height="3.84"/>
		<polygon class="st64" points="94.91,178.06 110.16,178.06 108.09,167.32 94.91,167.32 		"/>
		<rect x="165.68" y="171.36" class="st62" width="0.37" height="3.94"/>
		<polygon class="st62" points="164.22,174.86 165.66,171.8 165.5,171.45 165.83,171.29 165.86,171.36 165.9,171.29 166.23,171.45 
			166.07,171.8 167.51,174.86 167.17,175.01 165.86,172.23 164.56,175.01 		"/>
		<polygon class="st61" points="168.87,175.09 172.45,175.09 172.45,171.62 170.6,171.62 		"/>
		
			<rect x="157.03" y="159.95" transform="matrix(0.201 -0.9796 0.9796 0.201 -39.1425 288.2997)" class="st60" width="0.28" height="16.39"/>
		<rect x="148.77" y="169.41" class="st61" width="17" height="0.56"/>
		<rect x="147.71" y="165.52" class="st62" width="1.81" height="8.25"/>
		<polygon class="st61" points="146.24,177.95 150.25,177.95 150.25,172.29 147.58,172.29 146.24,174.21 		"/>
		<rect x="144.04" y="176.92" class="st63" width="9.76" height="3.84"/>
		<g>
			<path class="st65" d="M174.46,174.2c-0.22,2.3-5.48,8.05-5.37,8.71c0.11,0.66,2.63,1.75,2.63,2.3s-1.75,1.86-3.07,1.86
				c-1.31,0-64.35,0-67.53,0c-3.18,0-4.27-0.77-4.6-1.53c-0.33-0.77,2.41-0.22,1.97-0.77c-0.44-0.55-4.6-1.97-4.6-8.43
				c0,0,16.64,0,18.94,0c2.3,0,2.3,2.41,2.3,2.41s36.1,0,39.06,0c2.96,0,9.31-4.54,11.17-4.54
				C167.23,174.2,174.46,174.2,174.46,174.2z"/>
			<path class="st66" d="M95.22,181.66h74.59c-0.45,0.63-0.74,1.09-0.71,1.24c0.11,0.66,2.63,1.75,2.63,2.3
				c0,0.55-1.75,1.86-3.07,1.86c-1.31,0-64.35,0-67.53,0c-3.18,0-4.27-0.77-4.6-1.53c-0.33-0.77,2.41-0.22,1.97-0.77
				C98.22,184.42,96.48,183.73,95.22,181.66z"/>
		</g>
		<rect x="164.66" y="171.05" class="st60" width="2.41" height="0.76"/>
		<g>
			<rect x="103.95" y="169.11" class="st61" width="3.21" height="1.32"/>
			<rect x="100.01" y="169.11" class="st61" width="3.21" height="1.32"/>
			<rect x="96.07" y="169.11" class="st61" width="3.21" height="1.32"/>
		</g>
		<g>
			<rect x="103.95" y="171.69" class="st61" width="3.21" height="1.32"/>
			<rect x="100.01" y="171.69" class="st61" width="3.21" height="1.32"/>
			<rect x="96.07" y="171.69" class="st61" width="3.21" height="1.32"/>
		</g>
	</g>
</g>
</svg>
