<?xml version="1.0" encoding="utf-8"?>
<!-- Generator: Adobe Illustrator 25.2.3, SVG Export Plug-In . SVG Version: 6.00 Build 0)  -->
<svg version="1.1" id="BACKGROUND" xmlns="http://www.w3.org/2000/svg" xmlns:xlink="http://www.w3.org/1999/xlink" x="0px" y="0px"
	 viewBox="0 0 500 500" style="enable-background:new 0 0 500 500;" xml:space="preserve" id="background">
<style type="text/css">
	.st0{opacity:6.000000e-02;fill:url(#SVGID_1_);enable-background:new    ;}
	.st1{fill:url(#SVGID_2_);}
	.st2{fill:url(#SVGID_3_);}
	.st3{fill:url(#SVGID_4_);}
	.st4{opacity:6.000000e-02;fill:#FFFFFF;enable-background:new    ;}
	.st5{fill:url(#SVGID_5_);}
	.st6{fill:url(#SVGID_6_);}
	.st7{opacity:0.6;fill:url(#SVGID_7_);enable-background:new    ;}
	.st8{opacity:0.28;fill:url(#SVGID_8_);enable-background:new    ;}
	.st9{opacity:0.6;fill:url(#SVGID_9_);enable-background:new    ;}
	.st10{opacity:0.2;}
	.st11{opacity:0.4;fill:url(#SVGID_10_);enable-background:new    ;}
	.st12{opacity:0.4;fill:url(#SVGID_11_);enable-background:new    ;}
	.st13{fill:#FFFFFF;}
	.st14{fill:url(#SVGID_12_);}
	.st15{opacity:0.6;fill:url(#SVGID_13_);enable-background:new    ;}
	.st16{fill:url(#SVGID_14_);}
	.st17{fill:url(#SVGID_15_);}
	.st18{opacity:0.6;fill:url(#SVGID_16_);enable-background:new    ;}
	.st19{opacity:0.6;fill:url(#SVGID_17_);enable-background:new    ;}
	.st20{fill:url(#SVGID_18_);}
	.st21{fill:url(#SVGID_19_);}
	.st22{fill:url(#SVGID_20_);}
	.st23{opacity:0.4;fill:url(#SVGID_21_);enable-background:new    ;}
	.st24{opacity:0.4;fill:url(#SVGID_22_);enable-background:new    ;}
	.st25{opacity:0.28;fill:url(#SVGID_23_);enable-background:new    ;}
	.st26{opacity:0.28;fill:url(#SVGID_24_);enable-background:new    ;}
	.st27{opacity:0.4;fill:url(#SVGID_25_);enable-background:new    ;}
	.st28{opacity:0.4;fill:url(#SVGID_26_);enable-background:new    ;}
	.st29{opacity:0.4;fill:url(#SVGID_27_);enable-background:new    ;}
	.st30{opacity:0.8;}
	.st31{fill:url(#SVGID_28_);}
	.st32{fill:url(#SVGID_29_);}
	.st33{fill:url(#SVGID_30_);}
	.st34{fill:url(#SVGID_31_);}
	.st35{fill:url(#SVGID_32_);}
	.st36{opacity:0.6;fill:url(#SVGID_33_);enable-background:new    ;}
	.st37{opacity:0.28;fill:url(#SVGID_34_);enable-background:new    ;}
	.st38{fill:url(#SVGID_35_);}
	.st39{opacity:0.4;fill:url(#SVGID_36_);enable-background:new    ;}
	.st40{opacity:0.6;fill:url(#SVGID_37_);enable-background:new    ;}
	.st41{opacity:0.4;fill:url(#SVGID_38_);enable-background:new    ;}
	.st42{opacity:0.4;fill:url(#SVGID_39_);enable-background:new    ;}
	.st43{opacity:0.2;fill:url(#SVGID_40_);enable-background:new    ;}
	.st44{opacity:0.4;fill:url(#SVGID_41_);enable-background:new    ;}
	.st45{opacity:0.1;fill:url(#SVGID_42_);enable-background:new    ;}
	.st46{opacity:0.1;fill:url(#SVGID_43_);enable-background:new    ;}
	.st47{opacity:0.2;fill:url(#SVGID_44_);enable-background:new    ;}
	.st48{opacity:0.4;fill:url(#SVGID_45_);enable-background:new    ;}
	.st49{opacity:0.2;fill:url(#SVGID_46_);enable-background:new    ;}
	.st50{opacity:0.2;fill:url(#SVGID_47_);enable-background:new    ;}
	.st51{opacity:0.28;fill:url(#SVGID_48_);enable-background:new    ;}
	.st52{opacity:0.4;fill:url(#SVGID_49_);enable-background:new    ;}
	.st53{opacity:0.6;fill:url(#SVGID_50_);enable-background:new    ;}
	.st54{fill:#007196;}
	.st55{opacity:0.6;}
	.st56{fill:#00779E;}
	.st57{fill:#D9D9D9;}
	.st58{fill:#8F8F8F;}
	.st59{fill:#7D7D7D;}
	.st60{fill:#454038;}
	.st61{fill:#5E584D;}
	.st62{fill:#47433A;}
	.st63{fill:#4F1313;}
	.st64{fill:#E3E3E3;}
	.st65{fill:#962323;}
	.st66{opacity:0.4;fill:#4F1313;enable-background:new    ;}
</style>
<g>
	<g id="Ocean">
		
			<linearGradient id="SVGID_1_" gradientUnits="userSpaceOnUse" x1="-38.2935" y1="219.7387" x2="503.7308" y2="104.5279" gradientTransform="matrix(1 0 0 -1 0 502)">
			<stop  offset="3.060000e-02" style="stop-color:#03344F;stop-opacity:0"/>
			<stop  offset="0.199" style="stop-color:#FCFCFC;stop-opacity:0.4"/>
			<stop  offset="0.2908" style="stop-color:#03344F;stop-opacity:0"/>
			<stop  offset="0.3469" style="stop-color:#FCFCFC;stop-opacity:0.6"/>
			<stop  offset="0.449" style="stop-color:#03344F;stop-opacity:0"/>
			<stop  offset="0.5051" style="stop-color:#FCFCFC;stop-opacity:0.4"/>
			<stop  offset="0.5306" style="stop-color:#03344F;stop-opacity:0"/>
			<stop  offset="0.6071" style="stop-color:#FCFCFC;stop-opacity:0.6"/>
			<stop  offset="0.6582" style="stop-color:#03344F;stop-opacity:0"/>
			<stop  offset="0.7092" style="stop-color:#FCFCFC;stop-opacity:0.6"/>
			<stop  offset="0.8163" style="stop-color:#03344F;stop-opacity:0"/>
			<stop  offset="0.852" style="stop-color:#FCFCFC;stop-opacity:0.4"/>
			<stop  offset="1" style="stop-color:#03344F;stop-opacity:0"/>
		</linearGradient>
		<rect y="187.1" class="st0" width="500" height="312.9"/>
		
			<radialGradient id="SVGID_2_" cx="249" cy="316.4586" r="411.4272" gradientTransform="matrix(1 0 0 -1 0 502)" gradientUnits="userSpaceOnUse">
			<stop  offset="0" style="stop-color:#2784B5"/>
			<stop  offset="0.2784" style="stop-color:#1E719D"/>
			<stop  offset="0.8652" style="stop-color:#08405E"/>
			<stop  offset="1" style="stop-color:#03344F"/>
		</radialGradient>
		<rect y="187.1" class="st1" width="500" height="312.9"/>
		
			<linearGradient id="SVGID_3_" gradientUnits="userSpaceOnUse" x1="250" y1="-29.3459" x2="250" y2="294.99" gradientTransform="matrix(1 0 0 -1 0 502)">
			<stop  offset="0" style="stop-color:#03344F"/>
			<stop  offset="0.6021" style="stop-color:#03344F;stop-opacity:0"/>
		</linearGradient>
		<rect y="187.1" class="st2" width="500" height="312.9"/>
	</g>
	<g id="Sky">
		
			<radialGradient id="SVGID_4_" cx="248.4305" cy="876.8378" r="315.9024" gradientTransform="matrix(1 0 0 1.0528 0 -736.2064)" gradientUnits="userSpaceOnUse">
			<stop  offset="0" style="stop-color:#BAE6F2"/>
			<stop  offset="0.1498" style="stop-color:#AFDDF0"/>
			<stop  offset="0.7045" style="stop-color:#8BBEE9"/>
			<stop  offset="1" style="stop-color:#7DB2E6"/>
		</radialGradient>
		<rect class="st3" width="500" height="187.1"/>
		<path class="st4" d="M412.8,83.3c40.5,0,87.2-6,87.2-6V41.1c-15.6,8.5-84.6,14.9-160-7.5s-110.8-19.4-165.9-8S16.6,19.2,0,9.2
			v62.7c0,0,138.3-25.4,195.5-25.9C252.7,45.5,372.3,83.3,412.8,83.3z M0,172.2c0,0,164.3,14.4,257.9-1.5s231.7-3,242.1,3v-66.5
			c0,0-102.2-27.4-181.8-13.9s-114.9,35.8-186.7,39.3c-71.8,3.5-118.5-5-118.5-5s90,1.4,117.4-13.2c45-24,100.2-18.5,100.2-18.5
			s-46.9-15.9-85.4-8.5s-76.9,18.5-101.4,15.9C20.4,101,0,101.2,0,101.2V172.2z"/>
	</g>
	<g id="Sun">
		
			<radialGradient id="SVGID_5_" cx="334.2" cy="419.69" r="50.14" gradientTransform="matrix(1 0 0 -1 0 502)" gradientUnits="userSpaceOnUse">
			<stop  offset="5.102040e-03" style="stop-color:#FFFFFF"/>
			<stop  offset="0.4499" style="stop-color:#FFFCF6;stop-opacity:0.5529"/>
			<stop  offset="1" style="stop-color:#FFFBF2;stop-opacity:0"/>
		</radialGradient>
		<circle class="st5" cx="334.2" cy="82.3" r="50.1"/>
		
			<radialGradient id="SVGID_6_" cx="334.2" cy="419.69" r="21.3" gradientTransform="matrix(1 0 0 -1 0 502)" gradientUnits="userSpaceOnUse">
			<stop  offset="5.102040e-03" style="stop-color:#FFFFFF"/>
			<stop  offset="0.2078" style="stop-color:#FFFEFB;stop-opacity:0.8361"/>
			<stop  offset="0.4212" style="stop-color:#FFFAEE;stop-opacity:0.6637"/>
			<stop  offset="0.6395" style="stop-color:#FFF4D9;stop-opacity:0.4873"/>
			<stop  offset="0.8598" style="stop-color:#FFECBC;stop-opacity:0.3092"/>
			<stop  offset="0.9949" style="stop-color:#FFE6A6;stop-opacity:0.2"/>
		</radialGradient>
		<circle class="st6" cx="334.2" cy="82.3" r="21.3"/>
	</g>
	<g id="Cloud1">
		
			<linearGradient id="SVGID_7_" gradientUnits="userSpaceOnUse" x1="322.855" y1="367.67" x2="322.855" y2="392.84" gradientTransform="matrix(1 0 0 -1 0 502)">
			<stop  offset="5.102040e-03" style="stop-color:#FFFFFF;stop-opacity:0.2"/>
			<stop  offset="0.9949" style="stop-color:#FFFFFF"/>
		</linearGradient>
		<path class="st7" d="M345.3,127.7c-0.8,0-1.6,0.2-2.3,0.4c0-0.2,0-0.4,0-0.6c0-4-3.3-7.3-7.3-7.3c-0.8,0-1.6,0.2-2.4,0.4
			c-1.4-6.5-7.1-11.4-14.1-11.4c-7.9,0-14.4,6.4-14.4,14.3c0,0.5,0,0.9,0.1,1.4c-0.6-0.1-1.1-0.2-1.7-0.2c-5.3,0-9.6,4.3-9.6,9.6
			H352C352,130.6,349,127.7,345.3,127.7z"/>
		
			<linearGradient id="SVGID_8_" gradientUnits="userSpaceOnUse" x1="61.355" y1="314.81" x2="61.355" y2="382.93" gradientTransform="matrix(1 0 0 -1 0 502)">
			<stop  offset="0.199" style="stop-color:#FFFFFF;stop-opacity:0.2"/>
			<stop  offset="0.9949" style="stop-color:#FFFFFF"/>
		</linearGradient>
		<path class="st8" d="M0,187.2h122.7c0-14.4-11.7-26.1-26.1-26.1c-3.1,0-6,0.6-8.7,1.5c-1.5-10-10.1-17.8-20.6-17.8
			c-5,0-9.7,1.8-13.3,4.8c-3-4-7.8-6.6-13.2-6.6c-1.5,0-2.9,0.2-4.2,0.6c-5-14.3-18.6-24.6-34.6-24.6c-0.7,0-1.3,0-2,0.1
			C0,119.1,0,187.2,0,187.2z"/>
		
			<linearGradient id="SVGID_9_" gradientUnits="userSpaceOnUse" x1="-1215.1937" y1="435.6" x2="-1215.1937" y2="458.9" gradientTransform="matrix(-1 0 0 -1 -1057.6987 502)">
			<stop  offset="5.102040e-03" style="stop-color:#FFFFFF;stop-opacity:0.2"/>
			<stop  offset="0.9949" style="stop-color:#FFFFFF"/>
		</linearGradient>
		<path class="st9" d="M136.7,60.2c0.8,0,1.5,0.1,2.1,0.4c0-0.2,0-0.4,0-0.6c0-3.7,3-6.7,6.7-6.7c0.8,0,1.5,0.1,2.2,0.4
			c1.2-6,6.6-10.6,13-10.6c7.3,0,13.3,6,13.3,13.3c0,0.4,0,0.9-0.1,1.3c0.5-0.1,1.1-0.2,1.6-0.2c4.9,0,8.9,4,8.9,8.9h-53.9
			C130.5,63,133.3,60.2,136.7,60.2z"/>
	</g>
	<g id="Bubble2" class="st10">
		
			<linearGradient id="SVGID_10_" gradientUnits="userSpaceOnUse" x1="161.7867" y1="48.9" x2="161.7867" y2="221.0177" gradientTransform="matrix(1 0 0 -1 0 502)">
			<stop  offset="5.102040e-03" style="stop-color:#FFFFFF;stop-opacity:0.2"/>
			<stop  offset="0.9949" style="stop-color:#FFFFFF"/>
		</linearGradient>
		<path class="st11" d="M134.3,300.7c-0.5,0.1-0.8,0.7-0.7,1.2s0.7,0.8,1.2,0.7c0.5-0.1,0.8-0.7,0.7-1.2
			C135.3,300.9,134.8,300.6,134.3,300.7z M145.6,364.6c-1.1,0.3-1.8,1.4-1.5,2.5c0.3,1.1,1.4,1.8,2.5,1.5c1.1-0.3,1.8-1.4,1.5-2.5
			C147.8,365,146.7,364.3,145.6,364.6z M131,396.3c-1,0.2-1.5,1.2-1.3,2.2s1.2,1.5,2.2,1.3s1.5-1.2,1.3-2.2
			C133,396.6,132,396,131,396.3z M128.8,357.6c-0.5,0.1-0.8,0.7-0.7,1.2c0.1,0.5,0.7,0.8,1.2,0.7c0.5-0.1,0.8-0.7,0.7-1.2
			C129.8,357.8,129.3,357.5,128.8,357.6z M161.7,430.9c-0.6,0.2-1,0.8-0.9,1.5c0.2,0.6,0.8,1,1.4,0.9s1-0.8,0.9-1.5
			C163,431.1,162.4,430.7,161.7,430.9z M155.5,344.9c-1.3,0.4-2.1,1.7-1.8,3.1s1.7,2.1,3.1,1.8s2.1-1.7,1.8-3.1
			C158.2,345.3,156.9,344.5,155.5,344.9z M157.8,380.6c-1.3,0.4-2.1,1.7-1.8,3.1s1.7,2.1,3.1,1.8s2.1-1.7,1.8-3.1
			C160.5,381.1,159.1,380.3,157.8,380.6z M110.3,282.5c-0.3-1.1-1.4-1.8-2.5-1.5c-1.1,0.3-1.8,1.4-1.5,2.5c0.3,1.1,1.4,1.8,2.5,1.5
			C110,284.8,110.6,283.6,110.3,282.5z M97,324.8c-1.1,0.3-1.8,1.4-1.5,2.5c0.3,1.1,1.4,1.8,2.5,1.5c1.1-0.3,1.8-1.4,1.5-2.5
			C99.2,325.2,98.1,324.5,97,324.8z M98.3,304.3c-0.6-2.2-2.8-3.5-5.1-3c-2.2,0.6-3.5,2.8-2.9,5s2.8,3.5,5.1,3
			C97.6,308.8,98.9,306.5,98.3,304.3z M113.8,363.3c-0.7,0.2-1.2,0.9-1,1.7c0.2,0.7,0.9,1.2,1.7,1c0.7-0.2,1.2-0.9,1-1.7
			C115.2,363.5,114.5,363.1,113.8,363.3z M110.7,347.1c-0.5,0.1-0.8,0.7-0.7,1.2c0.1,0.5,0.7,0.8,1.2,0.7c0.5-0.1,0.8-0.7,0.7-1.2
			C111.7,347.3,111.2,347,110.7,347.1z M117.6,328.9c-1.9,0.5-3,2.4-2.5,4.3c0.5,1.9,2.4,3,4.3,2.5c1.9-0.5,3-2.4,2.5-4.3
			C121.4,329.5,119.5,328.4,117.6,328.9z M124.8,291.2c-0.6-2.2-2.8-3.5-5.1-3c-2.2,0.6-3.5,2.8-2.9,5s2.8,3.5,5.1,3
			C124,295.6,125.3,293.4,124.8,291.2z M147.4,334.3c-0.7,0.2-1.2,0.9-1,1.7c0.2,0.7,0.9,1.2,1.7,1c0.7-0.2,1.2-0.9,1-1.7
			S148.1,334.1,147.4,334.3z M200.7,417c-0.7,0-1.2,0.5-1.2,1.2s0.6,1.2,1.2,1.2s1.2-0.5,1.2-1.2S201.4,417,200.7,417z M196.6,345.5
			c0-1.8-1.4-3.2-3.2-3.2s-3.2,1.4-3.2,3.2s1.4,3.2,3.2,3.2S196.6,347.3,196.6,345.5z M205.8,395.4c-0.7,0-1.2,0.5-1.2,1.2
			c0,0.7,0.6,1.2,1.2,1.2s1.2-0.5,1.2-1.2C207.1,395.9,206.5,395.4,205.8,395.4z M187.7,371.4c-1.5,0-2.6,1.2-2.6,2.6
			s1.2,2.6,2.6,2.6c1.5,0,2.6-1.2,2.6-2.6S189.1,371.4,187.7,371.4z M222.8,345.7c0-1-0.8-1.7-1.7-1.7s-1.7,0.8-1.7,1.7
			s0.8,1.7,1.7,1.7C222,347.4,222.8,346.6,222.8,345.7z M155.3,413.5c-0.7,0.2-1.2,0.9-1,1.7c0.2,0.7,0.9,1.2,1.7,1
			c0.7-0.2,1.2-0.9,1-1.7S156.1,413.3,155.3,413.5z M221.8,361.1c-1,0-1.7,0.8-1.7,1.7s0.8,1.7,1.7,1.7s1.7-0.8,1.7-1.7
			C223.6,361.9,222.8,361.1,221.8,361.1z M230.7,377.6c-1.5,0-2.6,1.2-2.6,2.6s1.2,2.6,2.6,2.6c1.5,0,2.6-1.2,2.6-2.6
			C233.4,378.8,232.2,377.6,230.7,377.6z M176.7,403c-0.7,0.2-1.2,0.9-1,1.7c0.2,0.7,0.9,1.2,1.7,1c0.7-0.2,1.2-0.9,1-1.7
			C178.2,403.2,177.4,402.8,176.7,403z M139.6,424.7c-0.5,0.1-0.8,0.7-0.7,1.2s0.7,0.8,1.2,0.7c0.5-0.1,0.8-0.7,0.7-1.2
			C140.6,424.9,140.1,424.5,139.6,424.7z M165.3,307.8c-1.3,0-2.3,1-2.3,2.3s1,2.3,2.3,2.3c1.3,0,2.3-1,2.3-2.3
			S166.6,307.8,165.3,307.8z M184.8,327.5c-0.8,0-1.5,0.7-1.5,1.5s0.7,1.5,1.5,1.5c0.8,0,1.5-0.7,1.5-1.5S185.6,327.5,184.8,327.5z
			 M173.7,284.2c-1,0-1.7,0.8-1.7,1.7s0.8,1.7,1.7,1.7s1.7-0.8,1.7-1.7S174.6,284.2,173.7,284.2z M208.5,302.7c-2.5,0-4.5,2-4.5,4.5
			s2,4.5,4.5,4.5s4.5-2,4.5-4.5S211,302.7,208.5,302.7z M162.9,449.6c-1,0-1.7,0.8-1.7,1.7s0.8,1.7,1.7,1.7s1.7-0.8,1.7-1.7
			S163.9,449.6,162.9,449.6z"/>
	</g>
	<g id="Bubble1" class="st10">
		
			<linearGradient id="SVGID_11_" gradientUnits="userSpaceOnUse" x1="-1009.8384" y1="99.13" x2="-1009.8384" y2="275.7477" gradientTransform="matrix(-1 0 0 -1 -670.9051 502)">
			<stop  offset="5.102040e-03" style="stop-color:#FFFFFF;stop-opacity:0.2"/>
			<stop  offset="0.9949" style="stop-color:#FFFFFF"/>
		</linearGradient>
		<path class="st12" d="M358.6,251.4c0.5,0.1,0.8,0.7,0.7,1.2c-0.1,0.5-0.7,0.8-1.2,0.7c-0.5-0.1-0.8-0.7-0.7-1.2
			C357.6,251.5,358.1,251.2,358.6,251.4z M355.1,314.4c1.1,0.3,1.8,1.4,1.5,2.5c-0.3,1.1-1.4,1.8-2.5,1.5s-1.8-1.4-1.5-2.5
			C352.9,314.7,354,314.1,355.1,314.4z M369.7,346.1c1,0.2,1.5,1.2,1.3,2.2s-1.2,1.5-2.2,1.3s-1.5-1.2-1.3-2.2
			C367.7,346.4,368.7,345.8,369.7,346.1z M371.9,307.4c0.5,0.1,0.8,0.7,0.7,1.2c-0.1,0.5-0.7,0.8-1.2,0.7c-0.5-0.1-0.8-0.7-0.7-1.2
			C370.9,307.5,371.4,307.2,371.9,307.4z M339,380.6c0.6,0.2,1,0.8,0.9,1.5s-0.8,1-1.5,0.9c-0.6-0.2-1-0.8-0.9-1.5
			C337.7,380.9,338.4,380.5,339,380.6z M345.2,294.6c1.3,0.4,2.1,1.7,1.8,3.1s-1.7,2.1-3.1,1.8s-2.1-1.7-1.8-3.1
			S343.9,294.3,345.2,294.6z M336.7,340c1.3,0.4,2.1,1.7,1.8,3.1s-1.7,2.1-3.1,1.8s-2.1-1.7-1.8-3.1
			C334,340.5,335.3,339.7,336.7,340z M384.1,227.8c0.3-1.1,1.4-1.8,2.5-1.5c1.1,0.3,1.8,1.4,1.5,2.5c-0.3,1.1-1.4,1.8-2.5,1.5
			C384.5,230,383.8,228.9,384.1,227.8z M403.7,274.6c1.1,0.3,1.8,1.4,1.5,2.5c-0.3,1.1-1.4,1.8-2.5,1.5c-1.1-0.3-1.8-1.4-1.5-2.5
			C401.5,275,402.6,274.3,403.7,274.6z M402.4,254.1c0.6-2.2,2.8-3.5,5-2.9s3.5,2.8,3,5.1c-0.6,2.2-2.8,3.5-5,3
			C403.1,258.5,401.8,256.3,402.4,254.1z M386.9,313c0.7,0.2,1.2,0.9,1,1.7c-0.2,0.7-0.9,1.2-1.7,1c-0.7-0.2-1.2-0.9-1-1.7
			S386.2,312.9,386.9,313z M390,296.9c0.5,0.1,0.8,0.7,0.7,1.2c-0.1,0.5-0.7,0.8-1.2,0.7s-0.8-0.7-0.7-1.2
			C389,297,389.5,296.7,390,296.9z M383.1,278.6c1.9,0.5,3,2.4,2.5,4.3s-2.4,3-4.3,2.5c-1.9-0.5-3-2.4-2.5-4.3
			C379.3,279.3,381.2,278.1,383.1,278.6z M371.8,249.7c0.6-2.2,2.8-3.5,5-2.9s3.5,2.8,3,5.1s-2.8,3.5-5,2.9
			C372.5,254.2,371.2,251.9,371.8,249.7z M353.3,284.1c0.7,0.2,1.2,0.9,1,1.7c-0.2,0.7-0.9,1.2-1.7,1c-0.7-0.2-1.2-0.9-1-1.7
			C351.8,284.3,352.6,283.9,353.3,284.1z M300,366.7c0.7,0,1.2,0.5,1.2,1.2c0,0.7-0.5,1.2-1.2,1.2s-1.2-0.5-1.2-1.2
			C298.8,367.3,299.3,366.7,300,366.7z M304.1,295.3c0-1.8,1.4-3.2,3.2-3.2s3.2,1.4,3.2,3.2s-1.4,3.2-3.2,3.2
			C305.6,298.5,304.1,297.1,304.1,295.3z M294.9,345.1c0.7,0,1.2,0.5,1.2,1.2s-0.5,1.2-1.2,1.2c-0.7,0-1.2-0.5-1.2-1.2
			S294.2,345.1,294.9,345.1z M305.8,326.3c1.5,0,2.6,1.2,2.6,2.6s-1.2,2.6-2.6,2.6s-2.6-1.2-2.6-2.6S304.4,326.3,305.8,326.3z
			 M278,295.5c0-1,0.8-1.7,1.7-1.7s1.7,0.8,1.7,1.7s-0.8,1.7-1.7,1.7S278,296.4,278,295.5z M345.4,363.2c0.7,0.2,1.2,0.9,1,1.7
			c-0.2,0.7-0.9,1.2-1.7,1c-0.7-0.2-1.2-0.9-1-1.7S344.6,363.1,345.4,363.2z M278.9,310.9c1,0,1.7,0.8,1.7,1.7s-0.8,1.7-1.7,1.7
			s-1.7-0.8-1.7-1.7C277.2,311.6,277.9,310.9,278.9,310.9z M270,327.4c1.5,0,2.6,1.2,2.6,2.6s-1.2,2.6-2.6,2.6s-2.6-1.2-2.6-2.6
			S268.5,327.4,270,327.4z M324,352.7c0.7,0.2,1.2,0.9,1,1.7c-0.2,0.7-0.9,1.2-1.7,1c-0.7-0.2-1.2-0.9-1-1.7
			C322.6,353,323.3,352.5,324,352.7z M361.1,374.5c0.5,0.1,0.8,0.7,0.7,1.2c-0.1,0.5-0.7,0.8-1.2,0.7s-0.8-0.7-0.7-1.2
			C360.1,374.6,360.6,374.3,361.1,374.5z M335.4,257.6c1.3,0,2.3,1,2.3,2.3s-1,2.3-2.3,2.3s-2.3-1-2.3-2.3S334.1,257.6,335.4,257.6z
			 M315.9,277.3c0.8,0,1.5,0.7,1.5,1.5s-0.7,1.5-1.5,1.5s-1.5-0.7-1.5-1.5S315.1,277.3,315.9,277.3z M327,233.9c1,0,1.7,0.8,1.7,1.7
			s-0.8,1.7-1.7,1.7s-1.7-0.8-1.7-1.7C325.3,234.7,326.1,233.9,327,233.9z M292.2,252.4c2.5,0,4.5,2,4.5,4.5c0,2.5-2,4.5-4.5,4.5
			s-4.5-2-4.5-4.5C287.7,254.5,289.7,252.4,292.2,252.4z M337.8,399.4c1,0,1.7,0.8,1.7,1.7s-0.8,1.7-1.7,1.7s-1.7-0.8-1.7-1.7
			C336.1,400.2,336.9,399.4,337.8,399.4z"/>
	</g>
	<g id="Tip">
		<g>
			<polygon class="st13" points="279.6,113.6 274.4,91.8 266.7,85.9 265.8,79.2 261.8,74.6 256.7,56.7 246.7,47.9 238.9,78.9 
				230.7,85.1 228.8,93.3 220.2,97.2 214.9,117.3 210.5,113.6 209,123.1 193,127.4 175.6,187.1 292.7,187.1 289.4,125.4 			"/>
			
				<linearGradient id="SVGID_12_" gradientUnits="userSpaceOnUse" x1="246.4919" y1="312.6034" x2="246.4919" y2="451.7534" gradientTransform="matrix(1 0 -5.360000e-02 -1 35.6819 502)">
				<stop  offset="0" style="stop-color:#D3DAE0;stop-opacity:0.1"/>
				<stop  offset="1" style="stop-color:#D3DAE0"/>
			</linearGradient>
			<polygon class="st14" points="292.7,187.1 289.4,125.4 279.6,113.6 274.4,91.8 266.7,85.9 265.8,79.2 261.8,74.6 256.7,56.7 
				246.7,47.9 246.7,48 252,56.8 252.1,60.3 255.6,62.9 253.1,83.4 258.8,82.2 260.8,91.1 268.4,95.4 254.5,114.9 262.9,120.5 
				256.6,134.4 249.9,132.5 241.6,143.6 239.1,140.9 236.2,154.7 237.9,187.1 			"/>
			
				<linearGradient id="SVGID_13_" gradientUnits="userSpaceOnUse" x1="225.7511" y1="398.887" x2="225.7511" y2="440.897" gradientTransform="matrix(1 0 -5.360000e-02 -1 35.6819 502)">
				<stop  offset="1.020000e-02" style="stop-color:#FFFFFF;stop-opacity:0"/>
				<stop  offset="1" style="stop-color:#DCE4E8"/>
			</linearGradient>
			<polygon class="st15" points="247.1,60.4 242.8,70.5 243.4,75.7 239,84 233.8,87.7 230.6,100.4 243.9,102.4 239.8,91.5 
				244.9,85.2 247.6,88.9 247.1,73.9 245.6,69.9 			"/>
			<g>
				<polygon class="st13" points="352.1,173.5 348.2,174.8 336.2,160.1 326.4,155.8 320.4,142.6 313.6,135.9 305.3,111.4 297,98.3 
					288.7,81 284.7,97.2 278.2,113.7 272.8,124 269,138.8 256.7,149.6 249.7,156.4 240.2,167.2 220.5,178.1 213.6,187.1 
					361.4,187.1 				"/>
				
					<linearGradient id="SVGID_14_" gradientUnits="userSpaceOnUse" x1="305.2539" y1="306.2554" x2="305.2539" y2="412.3554" gradientTransform="matrix(1 0 -5.360000e-02 -1 35.6819 502)">
					<stop  offset="0" style="stop-color:#D3DAE0;stop-opacity:0.1"/>
					<stop  offset="1" style="stop-color:#D3DAE0"/>
				</linearGradient>
				<path class="st16" d="M286.9,184.1l-0.1,3h74.6l-9.2-13.6l-3.9,1.3l-12.1-14.7l-9.8-4.3l-5.9-13.2l-6.8-6.7l-8.4-24.5L297,98.3
					L288.7,81l0.5,5.1l4.2,16.5l5.3,9.9l-3.1,1.7l3.6,6.1l-5,10.7l6.5,5.7l-5.2,10.5l-9.3,8.4l14.2,4l-7.5,2.3c0,0,4.5,0.6,3.7,0.9
					c-0.7,0.4-6.3,4.9-6.3,4.9l10.2,5.9l-5,5.9L286.9,184.1z"/>
			</g>
			<polygon class="st13" points="141.2,187.1 144.5,179.7 157,172.6 157.8,164.4 167.2,155.5 167.4,151.4 173.3,147.9 175.7,149.6 
				175.5,153.7 179.6,144.3 184,145.1 186.7,137.6 189.5,138.4 199.6,109.4 209.8,128.9 209.6,132.7 217,136.8 216.6,142.7 
				219.4,140.1 222.8,157.1 229.6,161.2 238.3,180.2 247.9,187.1 			"/>
			
				<linearGradient id="SVGID_15_" gradientUnits="userSpaceOnUse" x1="193.6089" y1="314.94" x2="193.6089" y2="392.63" gradientTransform="matrix(1 0 -5.360000e-02 -1 35.6819 502)">
				<stop  offset="0" style="stop-color:#D3DAE0;stop-opacity:0.1"/>
				<stop  offset="1" style="stop-color:#D3DAE0"/>
			</linearGradient>
			<polygon class="st17" points="247.9,187.1 238.3,180.2 229.6,161.2 222.8,157.1 219.4,140.1 216.6,142.7 217,136.8 209.6,132.7 
				209.8,128.9 199.6,109.4 199.5,109.8 199.4,119.5 202.3,122.2 203.5,127.5 199.3,134.8 203.8,137.3 195,152 196.9,152.4 
				195.4,159.1 202.1,161.6 200.6,166.3 190.6,172 180.4,175.9 184.3,180.8 179,184.7 176.9,187.1 			"/>
			
				<linearGradient id="SVGID_16_" gradientUnits="userSpaceOnUse" x1="270.355" y1="331.32" x2="270.355" y2="412.75" gradientTransform="matrix(1 0 0 -1 0 502)">
				<stop  offset="1.020000e-02" style="stop-color:#FFFFFF;stop-opacity:0"/>
				<stop  offset="1" style="stop-color:#DCE4E8"/>
			</linearGradient>
			<polygon class="st18" points="288,89.2 284.5,104.4 286,107.9 283.5,112.3 278.1,123 279.2,129.1 274.2,140.8 268.1,145.7 
				261.8,154.4 250.1,170.7 274.2,170.7 272.9,151.6 279.8,143.8 280.9,134.9 284.4,128.9 284.5,121.2 290.6,106.2 287.7,100.6 			
				"/>
			
				<linearGradient id="SVGID_17_" gradientUnits="userSpaceOnUse" x1="186.935" y1="342.78" x2="186.935" y2="385.35" gradientTransform="matrix(1 0 0 -1 0 502)">
				<stop  offset="1.020000e-02" style="stop-color:#FFFFFF;stop-opacity:0"/>
				<stop  offset="1" style="stop-color:#DCE4E8"/>
			</linearGradient>
			<polygon class="st19" points="198.1,116.7 195.6,124.9 196,128.6 193.8,128.5 191.4,138.9 187.6,139.9 185.1,146.1 181.4,147 
				175.2,159.2 189.7,159.2 190.7,149.9 190.3,143.9 198.6,139.1 195.7,131.5 198.1,127.8 197.4,124.7 			"/>
			
				<linearGradient id="SVGID_18_" gradientUnits="userSpaceOnUse" x1="173.52" y1="333.99" x2="173.52" y2="354.1" gradientTransform="matrix(1 0 0 -1 0 502)">
				<stop  offset="1.530000e-02" style="stop-color:#D3DAE0;stop-opacity:0"/>
				<stop  offset="1" style="stop-color:#D3DAE0"/>
			</linearGradient>
			<polygon class="st20" points="172.2,168 172.5,161.9 174.6,158.6 175.6,153.5 175.5,153.7 175.7,149.6 173.3,147.9 173,148.1 
				172.6,150.1 174.4,153.1 171.4,161.1 			"/>
			
				<linearGradient id="SVGID_19_" gradientUnits="userSpaceOnUse" x1="230.095" y1="378.97" x2="230.095" y2="416.95" gradientTransform="matrix(1 0 0 -1 0 502)">
				<stop  offset="1.530000e-02" style="stop-color:#D3DAE0;stop-opacity:0"/>
				<stop  offset="1" style="stop-color:#D3DAE0"/>
			</linearGradient>
			<polygon class="st21" points="232.8,109.7 231.3,99 232.4,92.1 230.8,85.1 230.7,85.1 228.8,93.3 228.6,93.4 229.1,96.6 
				230.3,108.2 227.4,123 			"/>
			
				<linearGradient id="SVGID_20_" gradientUnits="userSpaceOnUse" x1="215.34" y1="368.72" x2="215.34" y2="388.39" gradientTransform="matrix(1 0 0 -1 0 502)">
				<stop  offset="1.530000e-02" style="stop-color:#D3DAE0;stop-opacity:0"/>
				<stop  offset="1" style="stop-color:#D3DAE0"/>
			</linearGradient>
			<polygon class="st22" points="211.7,117.1 215.1,120.7 213.7,124.2 215.6,128.6 215,133.3 218.3,126.7 220.1,121.6 217.3,118.8 
				214.9,117.3 210.6,113.6 			"/>
			
				<linearGradient id="SVGID_21_" gradientUnits="userSpaceOnUse" x1="256.685" y1="392.81" x2="256.685" y2="418.04" gradientTransform="matrix(1 0 0 -1 0 502)">
				<stop  offset="1.530000e-02" style="stop-color:#D3DAE0;stop-opacity:0"/>
				<stop  offset="1" style="stop-color:#D3DAE0"/>
			</linearGradient>
			<path class="st23" d="M257.8,84l-0.1,6.7l2.4,2.1l-3.2,5.4l0.6,1.6l-4.2,9.5l0.6-13.4c0,0,3.5-2,3.2-2c-0.3,0-2.1-4.1-2.1-4.1
				L257.8,84z"/>
			
				<linearGradient id="SVGID_22_" gradientUnits="userSpaceOnUse" x1="182.4" y1="332.28" x2="182.4" y2="363.2" gradientTransform="matrix(1 0 0 -1 0 502)">
				<stop  offset="1.530000e-02" style="stop-color:#D3DAE0;stop-opacity:0"/>
				<stop  offset="1" style="stop-color:#D3DAE0"/>
			</linearGradient>
			<polygon class="st24" points="184.9,148.2 187.2,138.8 188.3,142.9 186.9,144.3 190.1,150.3 188.6,154.5 186.4,156.6 
				182.1,168.8 174.7,169.7 183.1,161.5 184.6,155.3 180.8,154.3 182.3,146.5 184,150.1 			"/>
			
				<linearGradient id="SVGID_23_" gradientUnits="userSpaceOnUse" x1="281.66" y1="342.97" x2="281.66" y2="387.01" gradientTransform="matrix(1 0 0 -1 0 502)">
				<stop  offset="1.530000e-02" style="stop-color:#D3DAE0;stop-opacity:0"/>
				<stop  offset="1" style="stop-color:#D3DAE0"/>
			</linearGradient>
			<polygon class="st25" points="292.2,115 294.9,120.7 290.3,133.1 293.5,136.3 291.3,142.7 292.6,145 282,156.6 268.5,159 
				285.5,147.7 284,135.3 289.3,136 288.1,129.9 290.9,124 293.1,120.2 			"/>
			
				<linearGradient id="SVGID_24_" gradientUnits="userSpaceOnUse" x1="256.825" y1="326.03" x2="256.825" y2="360.34" gradientTransform="matrix(1 0 0 -1 0 502)">
				<stop  offset="1.530000e-02" style="stop-color:#D3DAE0;stop-opacity:0"/>
				<stop  offset="1" style="stop-color:#D3DAE0"/>
			</linearGradient>
			<polygon class="st26" points="270.7,141.7 263.1,148.1 263.6,153.7 256,158.1 252.8,164.8 241.7,176 272,176 263.6,165.8 
				260.6,159.6 270.2,157.2 267.5,148.8 			"/>
			
				<linearGradient id="SVGID_25_" gradientUnits="userSpaceOnUse" x1="224.1337" y1="365.34" x2="222.1318" y2="402.653" gradientTransform="matrix(1 0 0 -1 0 502)">
				<stop  offset="0" style="stop-color:#D3DAE0;stop-opacity:0.1"/>
				<stop  offset="1" style="stop-color:#D3DAE0"/>
			</linearGradient>
			<polygon class="st27" points="221.3,98.8 221.7,103.8 223.6,106.6 224.1,114.9 221.3,117.3 224.1,122.7 220.2,136.2 226.2,122.1 
				225.1,118.2 226.4,105.6 223.6,103.8 			"/>
			
				<linearGradient id="SVGID_26_" gradientUnits="userSpaceOnUse" x1="239.6214" y1="356.3363" x2="236.8145" y2="408.6544" gradientTransform="matrix(1 0 0 -1 0 502)">
				<stop  offset="0" style="stop-color:#D3DAE0;stop-opacity:0.1"/>
				<stop  offset="1" style="stop-color:#D3DAE0"/>
			</linearGradient>
			<polygon class="st28" points="247.1,91.9 239,102.6 241.6,107.4 237.8,118.2 227.1,129.6 224.7,144.3 234,145.1 236.4,131.1 
				241.1,135.8 245.4,129 248.3,121.8 249.7,124.4 253.2,123.4 249.7,114.5 245.4,111.9 249.4,105.3 244.5,100.9 			"/>
		</g>
		
			<linearGradient id="SVGID_27_" gradientUnits="userSpaceOnUse" x1="159.7" y1="318.1" x2="159.7" y2="351.35" gradientTransform="matrix(1 0 0 -1 0 502)">
			<stop  offset="1.530000e-02" style="stop-color:#D3DAE0;stop-opacity:0"/>
			<stop  offset="1" style="stop-color:#D3DAE0"/>
		</linearGradient>
		<polygon class="st29" points="168.6,152 168.2,156.2 158.7,164.7 159.6,172.7 147,183.9 172.4,183.3 164.1,167.7 168.8,165.3 
			167.1,161.6 170.9,157.1 169.2,152.7 170.8,150.6 		"/>
	</g>
	<g id="Underwater" class="st30">
		
			<linearGradient id="SVGID_28_" gradientUnits="userSpaceOnUse" x1="248.57" y1="163.24" x2="333.37" y2="163.24" gradientTransform="matrix(1 0 0 -1 0 502)">
			<stop  offset="5.102040e-03" style="stop-color:#366CA3"/>
			<stop  offset="1" style="stop-color:#3F749E;stop-opacity:0.6"/>
		</linearGradient>
		<polygon class="st31" points="258,342.6 261.8,364 267.4,369.8 268.1,376.3 270.9,380.9 274.6,398.4 281.9,407 287.5,376.6 
			293.5,370.5 294.8,362.5 301.1,358.7 305,339 308.1,342.6 309.2,333.3 325.5,317.5 333.4,270.5 248.6,270.5 251,331 		"/>
		
			<linearGradient id="SVGID_29_" gradientUnits="userSpaceOnUse" x1="161.3063" y1="157.9651" x2="176.2176" y2="241.4682" gradientTransform="matrix(1 0 0 -1 0 502)">
			<stop  offset="1.020000e-02" style="stop-color:#3C78B5"/>
			<stop  offset="0.5606" style="stop-color:#3E75A5;stop-opacity:0.7776"/>
			<stop  offset="1" style="stop-color:#3F749E;stop-opacity:0.6"/>
		</linearGradient>
		<polygon class="st32" points="134.3,230.7 129.3,258.5 142.5,292.2 142.5,318.5 202.8,376.2 181.2,319.5 184.4,288.5 		"/>
		
			<linearGradient id="SVGID_30_" gradientUnits="userSpaceOnUse" x1="205.7671" y1="97.1145" x2="216.8967" y2="159.4404" gradientTransform="matrix(1 0 0 -1 0 502)">
			<stop  offset="1.020000e-02" style="stop-color:#3C78B5"/>
			<stop  offset="0.5473" style="stop-color:#4A87BB"/>
			<stop  offset="1" style="stop-color:#518EBD"/>
		</linearGradient>
		<polygon class="st33" points="181.2,319.5 202.8,376.2 196.9,377.5 211.8,396 235.4,428.6 241.7,426.8 248.1,355.6 		"/>
		
			<linearGradient id="SVGID_31_" gradientUnits="userSpaceOnUse" x1="257.265" y1="37.26" x2="257.265" y2="111.94" gradientTransform="matrix(1 0 0 -1 0 502)">
			<stop  offset="5.102040e-03" style="stop-color:#366CA3"/>
			<stop  offset="1" style="stop-color:#3F749E;stop-opacity:0.6"/>
		</linearGradient>
		<polygon class="st34" points="273.4,390.1 270.2,411.9 256.9,422.7 255.5,442.3 242.5,464.7 241.1,412.9 		"/>
		
			<linearGradient id="SVGID_32_" gradientUnits="userSpaceOnUse" x1="252.93" y1="37.26" x2="252.93" y2="314.94" gradientTransform="matrix(1 0 0 -1 0 502)">
			<stop  offset="5.102040e-03" style="stop-color:#77A5D4"/>
			<stop  offset="0.9949" style="stop-color:#97BDDB"/>
		</linearGradient>
		<polygon class="st35" points="367.4,241 368.9,223.9 357.5,201.7 361.4,187.1 141.2,187.1 129.8,208.3 135.5,219.8 127.9,246.1 
			142.7,264.3 158,319.2 167.3,310.1 174.7,327.9 203,341.4 211.9,375.4 221.2,387.6 242.5,464.7 248.8,411.2 279,391.7 
			277.7,374.9 328.2,317.6 357,293.8 361.2,270.2 377.4,284.2 378,260.7 		"/>
		
			<linearGradient id="SVGID_33_" gradientUnits="userSpaceOnUse" x1="313.415" y1="90.79" x2="313.415" y2="314.93" gradientTransform="matrix(1 0 0 -1 0 502)">
			<stop  offset="5.102040e-03" style="stop-color:#366CA3"/>
			<stop  offset="1" style="stop-color:#3F749E;stop-opacity:0.6"/>
		</linearGradient>
		<path class="st36" d="M357,293.8l4.2-23.6l16.2,14.1l0.6-23.5L367.4,241l1.6-17.1l-11.5-22.2l3.9-14.6h-72.7c-0.5,0.1-0.8,0-0.8,0
			l21.7,23.4l-1,19.5l-17.9,14.3l4.9,19.8l11.4,13.6l-16.4,5.1l-5.3,17.6l4.1,12.9l5.9,16.6L282,342.9c0,0-7.8,20.8-8.5,21.4
			s-11.1,8.1-11.1,8.1l5.1,14.4L252.7,398l-3.9,13.2l30.1-19.5l-1.3-16.8l50.5-57.4L357,293.8z"/>
		
			<linearGradient id="SVGID_34_" gradientUnits="userSpaceOnUse" x1="210.125" y1="107.62" x2="210.125" y2="314.94" gradientTransform="matrix(1 0 0 -1 0 502)">
			<stop  offset="5.102040e-03" style="stop-color:#366CA3"/>
			<stop  offset="1" style="stop-color:#3F749E;stop-opacity:0.6"/>
		</linearGradient>
		<polyline class="st37" points="247.9,187.1 234,210.7 239.4,232.3 237.9,244.5 243.9,259.3 221.9,291.9 223.4,330.3 238.9,366.8 
			236.9,394.4 234.4,366.8 208.3,322.6 205.4,283.5 214.9,259.5 208.9,235.6 184.9,224.9 184.4,208.1 172.4,204.5 176.9,187.1 		"/>
		
			<linearGradient id="SVGID_35_" gradientUnits="userSpaceOnUse" x1="345.7" y1="182.47" x2="345.7" y2="314.94" gradientTransform="matrix(1 0 0 -1 0 502)">
			<stop  offset="5.102040e-03" style="stop-color:#366CA3"/>
			<stop  offset="0.2796" style="stop-color:#3A70A1;stop-opacity:0.7057"/>
			<stop  offset="0.9377" style="stop-color:#3F749E;stop-opacity:0"/>
		</linearGradient>
		<polygon class="st38" points="377.4,284.2 378,260.7 367.4,241 368.9,223.9 357.5,201.7 361.4,187.1 333.4,187.1 334.6,205.4 
			355.6,229.2 340.6,246.1 349,273.5 313.4,319.5 328.2,317.6 357,293.8 361.2,270.2 		"/>
		
			<linearGradient id="SVGID_36_" gradientUnits="userSpaceOnUse" x1="165.31" y1="160.68" x2="165.31" y2="285.21" gradientTransform="matrix(1 0 0 -1 0 502)">
			<stop  offset="5.102040e-03" style="stop-color:#366CA3"/>
			<stop  offset="0.2796" style="stop-color:#3A70A1;stop-opacity:0.7057"/>
			<stop  offset="0.9377" style="stop-color:#3F749E;stop-opacity:0"/>
		</linearGradient>
		<polygon class="st39" points="196.2,313.9 184.8,318.6 171.1,293.4 174.5,270.1 164.6,253.4 164.8,235.9 160.2,231.8 150.6,216.8 
			135.3,220.5 127.9,246.1 142.7,264.3 158,319.2 167.3,310.1 174.7,327.9 202.8,341.3 		"/>
		
			<linearGradient id="SVGID_37_" gradientUnits="userSpaceOnUse" x1="308.2449" y1="193.1187" x2="308.2449" y2="288.2864" gradientTransform="matrix(1.0119 -1.190000e-02 -1.190000e-02 -0.9881 11.544 490.456)">
			<stop  offset="5.102040e-03" style="stop-color:#366CA3"/>
			<stop  offset="0.2796" style="stop-color:#3A70A1;stop-opacity:0.7057"/>
			<stop  offset="0.9377" style="stop-color:#3F749E;stop-opacity:0"/>
		</linearGradient>
		<polygon class="st40" points="328.7,204.5 336.1,231.3 321.2,277.2 308.2,296.1 316.2,267.5 305,257.8 320.5,235.6 311.7,202 		
			"/>
		
			<linearGradient id="SVGID_38_" gradientUnits="userSpaceOnUse" x1="259.45" y1="61.01" x2="259.45" y2="213.16" gradientTransform="matrix(1 0 0 -1 0 502)">
			<stop  offset="5.102040e-03" style="stop-color:#366CA3"/>
			<stop  offset="0.2796" style="stop-color:#3A70A1;stop-opacity:0.7057"/>
			<stop  offset="0.9377" style="stop-color:#3F749E;stop-opacity:0"/>
		</linearGradient>
		<polygon class="st41" points="241.1,441 245.9,397.4 261.3,383.8 257.6,371.1 271,361.6 278.2,337.8 272,314.7 276.8,292.1 
			243.5,288.8 258.9,330.8 249.3,346.8 258.2,355.5 248.3,371.5 252.8,382.2 240.7,396.2 		"/>
		
			<linearGradient id="SVGID_39_" gradientUnits="userSpaceOnUse" x1="278.775" y1="166.72" x2="278.775" y2="239.83" gradientTransform="matrix(1 0 0 -1 0 502)">
			<stop  offset="5.102040e-03" style="stop-color:#366CA3"/>
			<stop  offset="0.2796" style="stop-color:#3A70A1;stop-opacity:0.7057"/>
			<stop  offset="0.9377" style="stop-color:#3F749E;stop-opacity:0"/>
		</linearGradient>
		<polygon class="st42" points="283.4,335.3 289,327.5 281.6,301 289.5,280.8 285.2,266.2 268.1,262.2 282,281.6 274.2,301.3 
			286.5,326.4 		"/>
		
			<linearGradient id="SVGID_40_" gradientUnits="userSpaceOnUse" x1="250.52" y1="142.58" x2="250.52" y2="297.72" gradientTransform="matrix(1 0 0 -1 0 502)">
			<stop  offset="5.102040e-03" style="stop-color:#366CA3"/>
			<stop  offset="0.2796" style="stop-color:#3A70A1;stop-opacity:0.7057"/>
			<stop  offset="0.9377" style="stop-color:#3F749E;stop-opacity:0"/>
		</linearGradient>
		<path class="st43" d="M244.2,359.4l-12.6-25.2l-4.4-36.4l17-15.5l6.5-31l-4.1-19.9l1.2-27.1c0,0,27.1,16,25.9,15.5
			c-1.2-0.5-1.2,48.5-1.2,48.5l-29.1,29.6l3.6,11.1l-10.5,16.5L244.2,359.4z"/>
		
			<linearGradient id="SVGID_41_" gradientUnits="userSpaceOnUse" x1="145.545" y1="193.15" x2="145.545" y2="295.33" gradientTransform="matrix(1 0 0 -1 0 502)">
			<stop  offset="5.102040e-03" style="stop-color:#366CA3"/>
			<stop  offset="0.2796" style="stop-color:#3A70A1;stop-opacity:0.7057"/>
			<stop  offset="0.9377" style="stop-color:#3F749E;stop-opacity:0"/>
		</linearGradient>
		<polygon class="st44" points="132.8,244.5 144.6,258 158.3,308.9 150.5,260 143.2,250.4 151.7,242.5 153.3,206.7 140.4,213.4 
			142.9,232.6 		"/>
		
			<linearGradient id="SVGID_42_" gradientUnits="userSpaceOnUse" x1="273.5565" y1="218.96" x2="273.5565" y2="314.95" gradientTransform="matrix(1 0 0 -1 0 502)">
			<stop  offset="5.102040e-03" style="stop-color:#366CA3"/>
			<stop  offset="1" style="stop-color:#3F749E;stop-opacity:0.6"/>
		</linearGradient>
		<path class="st45" d="M256.4,194.7v18.6l12.3,5.8l-5.3,20.8l8.8,19.3l-7.9,23.7l22-25.5l-10.1-14.2c0,0,21.1-29.2,19.4-29.2
			c-1.8,0-13.6-12.4-13.6-12.4l2.2-14.6h-32.6L256.4,194.7z"/>
		
			<linearGradient id="SVGID_43_" gradientUnits="userSpaceOnUse" x1="126.3008" y1="226.2588" x2="126.3008" y2="314.81" gradientTransform="matrix(1 0 -0.1405 -1 79.4857 502)">
			<stop  offset="5.102040e-03" style="stop-color:#366CA3"/>
			<stop  offset="1" style="stop-color:#3F749E;stop-opacity:0.6"/>
		</linearGradient>
		<path class="st46" d="M166.4,233.9l1.4,14.3l13,15.6c0,0,0.1,11.4,0.2,11.9s4.1-15.2,4.1-15.2l-5.3-11.1l1.9-12.4l-8.5-12.4
			l0.7-10.4l-10.2-9.5l-0.7-17.5l-10,0.1l-2.6,15.6l9.2,23.5l-1.5,6.8L166.4,233.9z"/>
		
			<linearGradient id="SVGID_44_" gradientUnits="userSpaceOnUse" x1="197.845" y1="186.57" x2="197.845" y2="264.84" gradientTransform="matrix(1 0 0 -1 0 502)">
			<stop  offset="5.102040e-03" style="stop-color:#366CA3"/>
			<stop  offset="0.2796" style="stop-color:#3A70A1;stop-opacity:0.7057"/>
			<stop  offset="0.9377" style="stop-color:#3F749E;stop-opacity:0"/>
		</linearGradient>
		<polygon class="st47" points="210.1,259.4 206.4,239.3 200.9,237.2 192.8,245 200.9,264.7 192.6,287.5 197.9,300.4 185.6,315.4 
			196.5,307 201.3,300 197.8,282.9 		"/>
	</g>
	<g id="Bubble1_1_">
		
			<linearGradient id="SVGID_45_" gradientUnits="userSpaceOnUse" x1="252.9332" y1="153.04" x2="252.9332" y2="294.57" gradientTransform="matrix(1 0 0 -1 0 502)">
			<stop  offset="5.102040e-03" style="stop-color:#FFFFFF;stop-opacity:0.2"/>
			<stop  offset="0.9949" style="stop-color:#FFFFFF"/>
		</linearGradient>
		<path class="st48" d="M124.3,216.6c-0.4,0-0.8,0.4-0.7,0.9s0.4,0.8,0.8,0.7c0.4,0,0.8-0.4,0.7-0.9
			C125.2,216.9,124.8,216.6,124.3,216.6z M117.3,268.3c-0.9,0.1-1.7,0.9-1.6,1.8c0.1,0.9,0.9,1.6,1.8,1.6c0.9-0.1,1.7-0.9,1.6-1.8
			C119,268.9,118.2,268.2,117.3,268.3z M100.5,291.7c-0.8,0-1.4,0.8-1.4,1.6c0.1,0.8,0.8,1.5,1.6,1.4c0.8,0,1.4-0.8,1.4-1.6
			C102,292.3,101.3,291.6,100.5,291.7z M104.8,260c-0.4,0-0.8,0.4-0.7,0.9s0.4,0.8,0.8,0.7c0.4,0,0.8-0.4,0.7-0.9
			C105.6,260.3,105.2,259.9,104.8,260z M120,324.6c-0.5,0-0.9,0.5-0.9,1c0,0.5,0.5,1,1,0.9s0.9-0.5,0.9-1
			C121,324.9,120.5,324.5,120,324.6z M128.4,253.8c-1.1,0.1-2,1.1-1.9,2.2c0.1,1.1,1.1,2,2.2,1.9c1.1-0.1,2-1.1,1.9-2.2
			C130.6,254.6,129.6,253.8,128.4,253.8z M126.2,278.5c-1.1,0.1-2,1.1-1.9,2.2c0.1,1.1,1.1,2,2.2,1.9c1.1-0.1,2-1.1,1.9-2.2
			C128.4,279.3,127.4,278.4,126.2,278.5z M74.9,258.9c-0.1-0.9-0.9-1.6-1.8-1.6c-0.9,0.1-1.7,0.9-1.6,1.8c0.1,0.9,0.9,1.6,1.8,1.6
			C74.3,260.7,75,259.9,74.9,258.9z M84.1,228.4c-0.9,0.1-1.7,0.9-1.6,1.8c0.1,0.9,0.9,1.6,1.8,1.6c0.9-0.1,1.7-0.9,1.6-1.8
			C85.8,229,85,228.3,84.1,228.4z M91.7,262.2c-0.6,0-1.1,0.6-1.1,1.2c0,0.6,0.6,1.1,1.2,1s1.1-0.6,1.1-1.2
			C92.8,262.6,92.3,262.2,91.7,262.2z M91.7,248.6c-0.4,0-0.8,0.4-0.7,0.9s0.4,0.8,0.8,0.7c0.4,0,0.8-0.4,0.7-0.9
			C92.5,248.9,92.2,248.6,91.7,248.6z M99.3,236.4c-1.2,0.1-2.1,1.1-2,2.2c0.1,1.2,1.1,2.1,2.2,2c1.2-0.1,2.1-1.1,2-2.2
			C101.4,237.2,100.4,236.3,99.3,236.4z M110.1,214.7c-0.1-0.9-0.8-1.6-1.8-1.5c-0.9,0.1-1.6,0.8-1.5,1.8s0.8,1.6,1.8,1.5
			C109.4,216.4,110.1,215.6,110.1,214.7z M123.5,244c-0.6,0-1.1,0.6-1.1,1.2c0,0.6,0.6,1.1,1.2,1.1s1.1-0.6,1.1-1.2
			C124.7,244.4,124.1,243.9,123.5,244z M407.4,267.8c-0.6,0-1,0.5-1,1s0.5,1,1,1s1-0.5,1-1C408.4,268.2,407.9,267.8,407.4,267.8z
			 M398.3,219.3c0-1.5-1.2-2.7-2.7-2.7s-2.7,1.2-2.7,2.7s1.2,2.7,2.7,2.7C397.1,222,398.3,220.8,398.3,219.3z M411.6,249.9
			c-0.6,0-1,0.5-1,1s0.5,1,1,1s1-0.5,1-1C412.6,250.4,412.1,249.9,411.6,249.9z M408.6,226.9c-1.2,0-2.2,1-2.2,2.2s1,2.2,2.2,2.2
			s2.2-1,2.2-2.2C410.8,227.9,409.8,226.9,408.6,226.9z M425.6,208.9c0-0.8-0.6-1.4-1.4-1.4c-0.8,0-1.4,0.6-1.4,1.4s0.6,1.4,1.4,1.4
			C424.9,210.3,425.6,209.7,425.6,208.9z M117.5,309.5c-0.6,0-1.1,0.6-1.1,1.2c0,0.6,0.6,1.1,1.2,1s1.1-0.6,1.1-1.2
			C118.7,309.9,118.2,309.4,117.5,309.5z M414.7,215.8c-0.8,0-1.4,0.6-1.4,1.4c0,0.8,0.6,1.4,1.4,1.4c0.8,0,1.4-0.6,1.4-1.4
			C416.1,216.5,415.5,215.8,414.7,215.8z M432.1,235.3c-1.2,0-2.2,1-2.2,2.2s1,2.2,2.2,2.2s2.2-1,2.2-2.2
			C434.3,236.2,433.4,235.3,432.1,235.3z M135.5,311.9c-0.6,0-1.1,0.6-1.1,1.2s0.6,1.1,1.2,1s1.1-0.6,1.1-1.2
			C136.7,312.3,136.2,311.9,135.5,311.9z M103,316.1c-0.4,0-0.8,0.4-0.7,0.9s0.4,0.8,0.8,0.7c0.4,0,0.8-0.4,0.7-0.9
			S103.4,316,103,316.1z M337.9,330.2c-1.1,0-1.9,0.9-1.9,1.9c0,1.1,0.9,1.9,1.9,1.9c1.1,0,1.9-0.9,1.9-1.9
			C339.8,331,339,330.2,337.9,330.2z M354,346.4c-0.7,0-1.3,0.6-1.3,1.3s0.6,1.3,1.3,1.3c0.7,0,1.3-0.6,1.3-1.3
			S354.7,346.4,354,346.4z M344.9,310.6c-0.8,0-1.4,0.6-1.4,1.4c0,0.8,0.6,1.4,1.4,1.4c0.8,0,1.4-0.6,1.4-1.4
			C346.3,311.3,345.7,310.6,344.9,310.6z M373.6,325.9c-2.1,0-3.8,1.7-3.8,3.8s1.7,3.8,3.8,3.8s3.8-1.7,3.8-3.8
			S375.7,325.9,373.6,325.9z M376.1,294.7c-0.8,0-1.4,0.6-1.4,1.4c0,0.8,0.6,1.4,1.4,1.4c0.8,0,1.4-0.6,1.4-1.4
			S376.9,294.7,376.1,294.7z"/>
		
			<linearGradient id="SVGID_46_" gradientUnits="userSpaceOnUse" x1="-796.0521" y1="78.73" x2="-796.0521" y2="171.72" gradientTransform="matrix(-1 0 0 -1 -617.8871 502)">
			<stop  offset="5.102040e-03" style="stop-color:#FFFFFF;stop-opacity:0.2"/>
			<stop  offset="0.9949" style="stop-color:#FFFFFF"/>
		</linearGradient>
		<path class="st49" d="M174.1,385.3c0.4,0,0.8,0.4,0.8,0.8s-0.4,0.8-0.8,0.8c-0.4,0-0.8-0.4-0.8-0.8
			C173.3,385.7,173.7,385.3,174.1,385.3z M135.1,344c0-1.2,1-2.1,2.1-2.1s2.1,1,2.1,2.1s-1,2.1-2.1,2.1S135.1,345.2,135.1,344z
			 M170.7,371c0.4,0,0.8,0.4,0.8,0.8s-0.4,0.8-0.8,0.8c-0.4,0-0.8-0.4-0.8-0.8C169.9,371.3,170.3,371,170.7,371z M178,358.5
			c1,0,1.8,0.8,1.8,1.8S179,362,178,362s-1.8-0.8-1.8-1.8C176.2,359.2,177,358.5,178,358.5z M155.8,331.4c0-0.6,0.5-1.2,1.2-1.2
			s1.2,0.5,1.2,1.2s-0.5,1.2-1.2,1.2C156.3,332.6,155.8,332.1,155.8,331.4z M169.7,345c0.6,0,1.2,0.5,1.2,1.2s-0.5,1.2-1.2,1.2
			s-1.2-0.5-1.2-1.2S169.1,345,169.7,345z M154.2,359.2c1,0,1.8,0.8,1.8,1.8s-0.8,1.8-1.8,1.8s-1.8-0.8-1.8-1.8
			S153.2,359.2,154.2,359.2z M219.7,408.2c0.9,0,1.5,0.7,1.5,1.5s-0.7,1.5-1.5,1.5c-0.9,0-1.5-0.7-1.5-1.5S218.8,408.2,219.7,408.2z
			 M206.7,421.2c0.6,0,1,0.5,1,1s-0.4,1-1,1s-1-0.5-1-1C205.7,421.7,206.1,421.2,206.7,421.2z M206,385.7c0.6,0,1.2,0.5,1.2,1.2
			s-0.5,1.2-1.2,1.2s-1.2-0.5-1.2-1.2S205.3,385.7,206,385.7z M190.9,404.8c1.7,0,3,1.4,3,3c0,1.7-1.4,3-3,3s-3-1.4-3-3
			C187.9,406.1,189.3,404.8,190.9,404.8z M184.4,383.6c0.6,0,1.2,0.5,1.2,1.2s-0.5,1.2-1.2,1.2s-1.2-0.5-1.2-1.2
			C183.3,384.1,183.8,383.6,184.4,383.6z"/>
		
			<linearGradient id="SVGID_47_" gradientUnits="userSpaceOnUse" x1="-1122.5341" y1="72.1317" x2="-1122.5341" y2="197.3598" gradientTransform="matrix(-1 0 0 -1 -805.4468 502)">
			<stop  offset="5.102040e-03" style="stop-color:#FFFFFF;stop-opacity:0.2"/>
			<stop  offset="0.9949" style="stop-color:#FFFFFF"/>
		</linearGradient>
		<path class="st50" d="M319.2,335.2c0.3-1.3,1.7-2.1,3-1.7s2.1,1.7,1.7,3s-1.7,2.1-3,1.7S318.9,336.5,319.2,335.2z M310.4,347.1
			c1.1,0.3,1.8,1.4,1.5,2.5s-1.4,1.8-2.5,1.5s-1.8-1.4-1.5-2.5C308.1,347.5,309.3,346.8,310.4,347.1z M306.4,370.9
			c0.3,0.1,0.5,0.4,0.4,0.7s-0.4,0.5-0.7,0.4s-0.5-0.4-0.4-0.7C305.7,371,306,370.9,306.4,370.9z M315.2,374.3
			c0.4,0.1,0.7,0.5,0.6,1c-0.1,0.4-0.5,0.7-1,0.6c-0.4-0.1-0.7-0.5-0.6-1C314.3,374.4,314.8,374.1,315.2,374.3z M341.6,348
			c0.3,0.1,0.5,0.4,0.4,0.7s-0.4,0.5-0.7,0.4s-0.5-0.4-0.4-0.7S341.2,347.9,341.6,348z M325.1,351.6c0.6,0.2,1,0.8,0.9,1.5
			s-0.8,1-1.5,0.9s-1-0.8-0.9-1.5S324.4,351.4,325.1,351.6z M317,364.7c0.3,0.1,0.5,0.4,0.4,0.7s-0.4,0.5-0.7,0.4
			c-0.3-0.1-0.5-0.4-0.4-0.7C316.4,364.8,316.7,364.6,317,364.7z M354,305.5c0.2-0.6,0.8-1,1.5-0.9s1,0.8,0.9,1.5s-0.8,1-1.5,0.9
			C354.2,306.9,353.9,306.2,354,305.5z M334.6,319.2c0.3-1.3,1.7-2.1,3-1.7s2.1,1.7,1.7,3s-1.7,2.1-3,1.7S334.2,320.5,334.6,319.2z
			 M283.3,415.5c0.4,0.1,0.7,0.5,0.6,1c-0.1,0.4-0.5,0.7-1,0.6c-0.4-0.1-0.7-0.5-0.6-1C282.5,415.7,282.9,415.4,283.3,415.5z
			 M279,428.8c0.3,0.1,0.5,0.4,0.4,0.7s-0.4,0.5-0.7,0.4s-0.5-0.4-0.4-0.7S278.7,428.7,279,428.8z M286.2,397.3
			c0.8,0.2,1.3,1,1.1,1.8c-0.2,0.8-1,1.3-1.8,1.1c-0.8-0.2-1.3-1-1.1-1.8C284.6,397.6,285.4,397.1,286.2,397.3z M277.8,405.4
			c0.1-0.4,0.5-0.7,1-0.6c0.4,0.1,0.7,0.5,0.6,1c-0.1,0.4-0.5,0.7-1,0.6C277.9,406.2,277.7,405.8,277.8,405.4z M287.6,421.2
			c0.4,0.1,0.6,0.5,0.5,0.9s-0.5,0.6-0.9,0.5s-0.6-0.5-0.5-0.9C286.8,421.4,287.2,421.1,287.6,421.2z M291.3,408.3
			c0.6,0.1,0.9,0.7,0.8,1.3c-0.1,0.6-0.7,0.9-1.3,0.8c-0.6-0.1-0.9-0.7-0.8-1.3C290.1,408.5,290.7,408.2,291.3,408.3z M328.9,362
			c0.4,0.1,0.7,0.5,0.6,1c-0.1,0.4-0.5,0.7-1,0.6c-0.4-0.1-0.7-0.5-0.6-1C328,362.1,328.5,361.8,328.9,362z M324.1,368.2
			c0.8,0.2,1.3,1,1.1,1.8c-0.2,0.8-1,1.3-1.8,1.1c-0.8-0.2-1.3-1-1.1-1.8C322.5,368.5,323.3,368,324.1,368.2z M296.5,375
			c0.6,0.2,1,0.8,0.9,1.5s-0.8,1-1.5,0.9s-1-0.8-0.9-1.5S295.8,374.9,296.5,375z"/>
	</g>
	<g id="Cloud2">
		
			<linearGradient id="SVGID_48_" gradientUnits="userSpaceOnUse" x1="436.72" y1="314.82" x2="436.72" y2="382.58" gradientTransform="matrix(1 0 0 -1 0 502)">
			<stop  offset="0.199" style="stop-color:#FFFFFF;stop-opacity:0.2"/>
			<stop  offset="0.9949" style="stop-color:#FFFFFF"/>
		</linearGradient>
		<path class="st51" d="M500,129.2c-6-6-14.3-9.8-23.4-9.8c-14.5,0-26.7,9.3-31.2,22.2c-3.3-2-7.2-3.2-11.4-3.2
			c-10.9,0-19.9,7.9-21.5,18.3c-1-0.3-2.1-0.5-3.2-0.5c-6.4,0-11.7,5.2-11.7,11.7c0,0.2,0,0.4,0,0.6c-1.5-0.4-3.1-0.6-4.8-0.6
			c-10.7,0-19.3,8.6-19.3,19.3H500V129.2z"/>
		
			<linearGradient id="SVGID_49_" gradientUnits="userSpaceOnUse" x1="87.07" y1="388.55" x2="87.07" y2="420.34" gradientTransform="matrix(1 0 0 -1 0 502)">
			<stop  offset="5.102040e-03" style="stop-color:#FFFFFF;stop-opacity:0.2"/>
			<stop  offset="0.9949" style="stop-color:#FFFFFF"/>
		</linearGradient>
		<path class="st52" d="M122.9,101.3c-1.4,0-2.8,0.3-4.1,0.7c-0.7-4.7-4.7-8.3-9.6-8.3c-2.4,0-4.5,0.8-6.2,2.2
			c-1.4-1.9-3.6-3.1-6.2-3.1c-0.7,0-1.3,0.1-2,0.3c-2.3-6.7-8.7-11.5-16.2-11.5c-7.9,0-14.5,5.3-16.5,12.6c-1.5-0.9-3.3-1.4-5.2-1.4
			c-5.8,0-10.5,4.7-10.5,10.5c0,0.8,0.1,1.6,0.3,2.3c-4.2,0-7.7,3.5-7.7,7.7h96C135.1,106.7,129.6,101.3,122.9,101.3z"/>
	</g>
	<g id="Cloud3">
		
			<linearGradient id="SVGID_50_" gradientUnits="userSpaceOnUse" x1="433.68" y1="405.77" x2="433.68" y2="433.92" gradientTransform="matrix(1 0 0 -1 0 502)">
			<stop  offset="5.102040e-03" style="stop-color:#FFFFFF;stop-opacity:0.2"/>
			<stop  offset="0.9949" style="stop-color:#FFFFFF"/>
		</linearGradient>
		<path class="st53" d="M462.8,89.4c0.9-1.2,1.5-2.6,1.5-4.2c0-3.8-3-6.8-6.8-6.8c-0.7,0-1.3,0.1-1.9,0.3
			c-1.5-6.1-6.9-10.6-13.4-10.6c-6,0-11.1,3.8-13,9.2c-1.4-0.8-3-1.3-4.7-1.3c-4.5,0-8.2,3.3-9,7.6c-0.4-0.1-0.9-0.2-1.3-0.2
			c-2.7,0-4.8,2.2-4.8,4.8c0,0.1,0,0.2,0,0.3c-0.6-0.2-1.3-0.3-2-0.3c-4.4,0-8,3.6-8,8H468C468,92.9,465.8,90.2,462.8,89.4z"/>
	</g>
	<g id="fish5">
		<path class="st54" d="M413.9,295.4l1.1,0.6c0.5-0.3,2.9-1.7,5-1.7c2.4,0,3.7,1.8,3.7,1.8s-1.2,1.8-3.7,1.8c-2.1,0-4.5-1.4-5-1.7
			l-1.1,0.6V295.4z"/>
		<path class="st54" d="M402.6,293.7l1,0.5c0.5-0.3,2.6-1.5,4.5-1.5c2.2,0,3.3,1.6,3.3,1.6s-1.1,1.6-3.3,1.6c-1.9,0-4-1.2-4.5-1.5
			l-1,0.5V293.7z"/>
		<path class="st54" d="M407.1,301.1l1,0.5c0.5-0.3,2.6-1.5,4.5-1.5c2.2,0,3.3,1.6,3.3,1.6s-1.1,1.6-3.3,1.6c-1.9,0-4-1.2-4.5-1.5
			l-1,0.5V301.1z"/>
		<path class="st54" d="M411.7,290.9l0.9,0.5c0.5-0.3,2.4-1.4,4.1-1.4c2,0,3,1.5,3,1.5s-1,1.5-3,1.5c-1.8,0-3.7-1.1-4.1-1.4
			l-0.9,0.5V290.9z"/>
		<path class="st54" d="M389.5,296l0.9,0.5c0.5-0.3,2.4-1.4,4.1-1.4c2,0,3,1.5,3,1.5s-1,1.5-3,1.5c-1.8,0-3.7-1.1-4.1-1.4l-0.9,0.5
			V296z"/>
		<path class="st54" d="M401.4,288.9l0.9,0.5c0.5-0.3,2.4-1.4,4.1-1.4c2,0,3,1.5,3,1.5s-1,1.5-3,1.5c-1.8,0-3.7-1.1-4.1-1.4
			l-0.9,0.5V288.9z"/>
		<path class="st54" d="M394.6,291.8l0.8,0.4c0.4-0.2,2-1.2,3.5-1.2c1.7,0,2.6,1.2,2.6,1.2s-0.9,1.2-2.6,1.2c-1.5,0-3.1-1-3.5-1.2
			l-0.8,0.4V291.8z"/>
		<path class="st54" d="M400.1,298.3l0.8,0.4c0.4-0.2,2-1.2,3.5-1.2c1.7,0,2.6,1.2,2.6,1.2s-0.9,1.2-2.6,1.2c-1.5,0-3.1-1-3.5-1.2
			l-0.8,0.4V298.3z"/>
	</g>
	<g id="fish4" class="st55">
		<path class="st54" d="M164.4,239.1l0.7,0.4c0.4-0.2,1.8-1.1,3.2-1.1c1.5,0,2.3,1.1,2.3,1.1s-0.8,1.1-2.3,1.1
			c-1.4,0-2.8-0.9-3.2-1.1l-0.7,0.4V239.1z"/>
		<path class="st54" d="M157.2,238l0.6,0.3c0.3-0.2,1.6-1,2.8-1c1.4,0,2.1,1,2.1,1s-0.7,1-2.1,1c-1.2,0-2.5-0.8-2.8-1l-0.6,0.3V238z
			"/>
		<path class="st54" d="M160.1,242.6l0.6,0.3c0.3-0.2,1.6-1,2.8-1c1.4,0,2.1,1,2.1,1s-0.7,1-2.1,1c-1.2,0-2.5-0.8-2.8-1l-0.6,0.3
			V242.6z"/>
		<path class="st54" d="M163,236.2l0.6,0.3c0.3-0.2,1.5-0.9,2.6-0.9c1.3,0,1.9,0.9,1.9,0.9s-0.6,0.9-1.9,0.9c-1.1,0-2.3-0.7-2.6-0.9
			l-0.6,0.3V236.2z"/>
		<path class="st54" d="M148.9,239.4l0.6,0.3c0.3-0.2,1.5-0.9,2.6-0.9c1.3,0,1.9,0.9,1.9,0.9s-0.6,0.9-1.9,0.9
			c-1.1,0-2.3-0.7-2.6-0.9l-0.6,0.3V239.4z"/>
		<path class="st54" d="M156.5,234.9l0.6,0.3c0.3-0.2,1.5-0.9,2.6-0.9c1.3,0,1.9,0.9,1.9,0.9s-0.6,0.9-1.9,0.9
			c-1.1,0-2.3-0.7-2.6-0.9l-0.6,0.3V234.9z"/>
		<path class="st54" d="M152.2,236.8l0.5,0.3c0.2-0.1,1.3-0.8,2.2-0.8c1.1,0,1.6,0.8,1.6,0.8s-0.6,0.8-1.6,0.8c-0.9,0-2-0.6-2.2-0.8
			l-0.5,0.3V236.8z"/>
		<path class="st54" d="M155.7,240.9l0.5,0.3c0.2-0.1,1.3-0.8,2.2-0.8c1.1,0,1.6,0.8,1.6,0.8s-0.6,0.8-1.6,0.8c-0.9,0-2-0.6-2.2-0.8
			l-0.5,0.3V240.9z"/>
	</g>
	<g id="fish3" class="st55">
		<path class="st54" d="M116.6,380.1l1.1,0.6c0.6-0.3,2.9-1.7,5-1.7c2.4,0,3.7,1.8,3.7,1.8s-1.2,1.8-3.7,1.8c-2.1,0-4.5-1.4-5-1.7
			l-1.1,0.6V380.1z"/>
		<path class="st54" d="M112.1,384.9l0.9,0.5c0.4-0.3,2.3-1.4,4-1.4c1.9,0,2.9,1.4,2.9,1.4s-1,1.4-2.9,1.4c-1.7,0-3.6-1.1-4-1.4
			l-0.9,0.5V384.9z"/>
		<path class="st54" d="M101.4,380.5l1,0.5c0.5-0.3,2.6-1.5,4.5-1.5c2.2,0,3.3,1.6,3.3,1.6s-1.1,1.6-3.3,1.6c-1.9,0-4-1.2-4.5-1.5
			l-1,0.5V380.5z"/>
		<path class="st54" d="M109.8,376l0.8,0.4c0.4-0.3,2.2-1.3,3.8-1.3c1.8,0,2.8,1.3,2.8,1.3s-0.9,1.3-2.8,1.3c-1.6,0-3.4-1-3.8-1.3
			l-0.8,0.4V376z"/>
		<path class="st54" d="M123.4,385.4l0.8,0.4c0.4-0.3,2.2-1.3,3.8-1.3c1.9,0,2.8,1.3,2.8,1.3s-0.9,1.3-2.8,1.3c-1.6,0-3.4-1-3.8-1.3
			l-0.8,0.4V385.4z"/>
		<path class="st54" d="M102,388.1l0.8,0.4c0.4-0.2,2-1.2,3.5-1.2c1.7,0,2.6,1.2,2.6,1.2s-0.9,1.2-2.6,1.2c-1.5,0-3.2-1-3.5-1.2
			L102,389V388.1z"/>
		<path class="st54" d="M121.8,374.2l0.8,0.4c0.4-0.2,2.1-1.2,3.7-1.2c1.8,0,2.7,1.3,2.7,1.3s-0.9,1.3-2.7,1.3c-1.6,0-3.3-1-3.7-1.2
			l-0.8,0.4V374.2z"/>
	</g>
	<g id="fish2">
		<path class="st54" d="M277.5,340.7l0.9,0.5c0.5-0.3,2.5-1.4,4.3-1.4c2.1,0,3.1,1.5,3.1,1.5s-1,1.5-3.1,1.5c-1.8,0-3.8-1.1-4.3-1.4
			l-0.9,0.5V340.7z"/>
		<path class="st54" d="M273.7,344.7l0.7,0.4c0.4-0.2,2-1.1,3.4-1.1c1.6,0,2.5,1.2,2.5,1.2s-0.8,1.2-2.5,1.2c-1.4,0-3-0.9-3.4-1.1
			l-0.7,0.4V344.7z"/>
		<path class="st54" d="M264.6,341l0.8,0.4c0.4-0.2,2.2-1.3,3.8-1.3c1.8,0,2.8,1.3,2.8,1.3s-0.9,1.3-2.8,1.3c-1.6,0-3.4-1-3.8-1.3
			l-0.8,0.4V341z"/>
		<path class="st54" d="M271.7,337.2l0.7,0.4c0.4-0.2,1.9-1.1,3.2-1.1c1.6,0,2.4,1.1,2.4,1.1s-0.8,1.1-2.4,1.1
			c-1.4,0-2.9-0.9-3.2-1.1l-0.7,0.4V337.2z"/>
		<path class="st54" d="M281.9,335.6l0.7,0.4c0.3-0.2,1.8-1.1,3.1-1.1c1.5,0,2.3,1.1,2.3,1.1s-0.8,1.1-2.3,1.1
			c-1.3,0-2.8-0.9-3.1-1.1l-0.7,0.4V335.6z"/>
	</g>
	<g id="fish1">
		<path class="st56" d="M71.8,319l0.8,0.4c0.4-0.2,2-1.2,3.5-1.2c1.7,0,2.5,1.2,2.5,1.2s-0.8,1.2-2.5,1.2c-1.5,0-3.1-0.9-3.5-1.2
			l-0.8,0.4V319z"/>
		<path class="st56" d="M70,323.7l0.6,0.3c0.3-0.2,1.6-0.9,2.8-0.9c1.3,0,2,1,2,1s-0.7,1-2,1c-1.2,0-2.4-0.7-2.8-0.9l-0.6,0.3V323.7
			z"/>
		<path class="st56" d="M58.9,323.8l0.6,0.3c0.3-0.2,1.6-0.9,2.8-0.9c1.3,0,2,1,2,1s-0.7,1-2,1c-1.2,0-2.5-0.7-2.8-0.9l-0.6,0.3
			V323.8z"/>
		<path class="st56" d="M61.2,318l0.7,0.4c0.3-0.2,1.8-1,3.1-1c1.5,0,2.2,1.1,2.2,1.1s-0.8,1.1-2.2,1.1c-1.3,0-2.7-0.8-3.1-1
			l-0.7,0.4V318z"/>
		<path class="st56" d="M75.3,315l0.7,0.4c0.3-0.2,1.8-1,3.1-1c1.5,0,2.2,1.1,2.2,1.1s-0.8,1.1-2.2,1.1c-1.3,0-2.7-0.8-3.1-1
			l-0.7,0.4V315z"/>
		<path class="st56" d="M68.9,316.7l0.6,0.3c0.3-0.2,1.5-0.9,2.6-0.9c1.3,0,1.9,0.9,1.9,0.9s-0.6,0.9-1.9,0.9
			c-1.1,0-2.3-0.7-2.6-0.9l-0.6,0.3V316.7z"/>
		<path class="st56" d="M65,320.5l0.6,0.3c0.3-0.2,1.5-0.9,2.6-0.9c1.3,0,1.9,0.9,1.9,0.9s-0.6,0.9-1.9,0.9c-1.1,0-2.3-0.7-2.6-0.9
			l-0.6,0.3V320.5z"/>
		<path class="st56" d="M64.8,314.4l0.6,0.3c0.3-0.2,1.5-0.9,2.6-0.9c1.2,0,1.9,0.9,1.9,0.9s-0.6,0.9-1.9,0.9
			c-1.1,0-2.3-0.7-2.6-0.9l-0.6,0.3V314.4z"/>
	</g>
	<g id="Ship">
		<polygon class="st57" points="176.9,169.2 185.7,169.2 183,162 176.9,162 		"/>
		<rect x="176.7" y="166" class="st58" width="8.4" height="1.4"/>
		<rect x="176.7" y="163.5" class="st58" width="7.9" height="1.1"/>
		<rect x="176.7" y="161.4" class="st58" width="6.8" height="1.1"/>
		<rect x="186.1" y="160.8" class="st59" width="0.3" height="6.8"/>
		<rect x="185.7" y="160.5" class="st58" width="1.1" height="0.7"/>
		<rect x="185.6" y="166" class="st58" width="1.3" height="1.6"/>
		<polygon class="st57" points="187.5,177.4 194.9,177.4 192.9,172.5 187.5,172.5 		"/>
		
			<rect x="189.1" y="168" transform="matrix(0.9796 -0.201 0.201 0.9796 -29.7687 43.0796)" class="st60" width="16.4" height="0.3"/>
		<rect x="188.7" y="169.4" class="st61" width="17" height="0.6"/>
		<rect x="204.9" y="165.5" class="st62" width="1.8" height="8.2"/>
		<polygon class="st61" points="208.2,177.9 204.2,177.9 204.2,172.3 206.8,172.3 208.2,174.2 		"/>
		<rect x="200.6" y="176.9" class="st63" width="9.8" height="3.8"/>
		<polygon class="st64" points="176.1,178 191.3,178 189.3,167.3 176.1,167.3 		"/>
		<rect x="246.8" y="171.3" class="st62" width="0.4" height="3.9"/>
		<polygon class="st62" points="245.4,174.8 246.8,171.8 246.7,171.4 247,171.3 247,171.3 247.1,171.3 247.4,171.4 247.2,171.8 
			248.7,174.8 248.3,175 247,172.2 245.7,175 		"/>
		<polygon class="st61" points="250,175.1 253.6,175.1 253.6,171.6 251.8,171.6 		"/>
		
			<rect x="238.2" y="159.9" transform="matrix(0.201 -0.9796 0.9796 0.201 25.7476 367.7833)" class="st60" width="0.3" height="16.4"/>
		<rect x="229.9" y="169.4" class="st61" width="17" height="0.6"/>
		<rect x="228.9" y="165.5" class="st62" width="1.8" height="8.2"/>
		<polygon class="st61" points="227.4,177.9 231.4,177.9 231.4,172.3 228.7,172.3 227.4,174.2 		"/>
		<rect x="225.2" y="176.9" class="st63" width="9.8" height="3.8"/>
		<g>
			<path class="st65" d="M255.6,174.2c-0.2,2.3-5.5,8.1-5.4,8.7s2.6,1.8,2.6,2.3c0,0.6-1.8,1.9-3.1,1.9c-1.3,0-64.3,0-67.5,0
				c-3.2,0-4.3-0.8-4.6-1.5c-0.3-0.8,2.4-0.2,2-0.8c-0.4-0.5-4.6-2-4.6-8.4c0,0,16.6,0,18.9,0s2.3,2.4,2.3,2.4s36.1,0,39.1,0
				s9.3-4.5,11.2-4.5C248.4,174.2,255.6,174.2,255.6,174.2z"/>
			<path class="st66" d="M176.4,181.6H251c-0.4,0.6-0.7,1.1-0.7,1.2c0.1,0.7,2.6,1.8,2.6,2.3c0,0.5-1.8,1.9-3.1,1.9
				c-1.3,0-64.3,0-67.5,0c-3.2,0-4.3-0.8-4.6-1.5c-0.3-0.8,2.4-0.2,2-0.8C179.4,184.4,177.6,183.7,176.4,181.6z"/>
		</g>
		<rect x="245.8" y="171" class="st60" width="2.4" height="0.8"/>
		<g>
			<rect x="185.1" y="169.1" class="st61" width="3.2" height="1.3"/>
			<rect x="181.2" y="169.1" class="st61" width="3.2" height="1.3"/>
			<rect x="177.2" y="169.1" class="st61" width="3.2" height="1.3"/>
		</g>
		<g>
			<rect x="185.1" y="171.7" class="st61" width="3.2" height="1.3"/>
			<rect x="181.2" y="171.7" class="st61" width="3.2" height="1.3"/>
			<rect x="177.2" y="171.7" class="st61" width="3.2" height="1.3"/>
		</g>
	</g>
</g>
</svg>
